<svg width="224" height="58" viewBox="0 0 224 58" fill="none" xmlns="http://www.w3.org/2000/svg">
<path d="M107.521 43.5918C105.56 49.8688 104.527 50.4393 103.855 50.4393C102.255 50.4393 104.01 45.8218 105.714 39.7519C107.573 33.1115 104.733 29.6871 98.9512 29.6871C93.1695 29.6871 90.1756 33.1115 86.8201 40.1661C82.9556 48.3356 80.0681 49.5932 76.7795 49.6576C73.4895 49.5932 70.5502 48.3369 66.6366 40.1661C63.3848 33.4214 60.339 29.6871 52.9061 29.6871C45.4733 29.6871 42.1696 33.4228 38.9683 40.1661C34.9933 48.5701 32.0513 50.3639 28.6439 50.3639V57.1085C35.8189 57.1085 41.239 53.7074 46.0914 43.2284C48.6214 37.7812 49.859 36.4317 52.9048 36.4317C55.9505 36.4317 56.9821 37.7812 59.5121 43.2284C64.2349 53.429 69.595 56.2569 76.4943 56.3995V56.4064C76.5898 56.4064 76.684 56.4064 76.7781 56.405C76.8723 56.405 76.9678 56.4064 77.0619 56.4064V56.3995C83.9667 56.2569 89.4251 53.4304 94.1479 43.2284C96.8839 37.3135 97.5552 36.5359 98.4326 36.5359C99.4138 36.5359 98.8461 38.2996 97.7094 41.8789C94.7674 51.1127 94.7674 57.1826 103.387 57.1826C108.808 57.1826 112.317 54.0695 114.847 46.6515C118.357 36.2753 119.496 36.3563 122.904 36.3563V29.6116C115.729 29.6116 111.647 30.4647 107.517 43.5905L107.521 43.5918Z" fill="#E8E0CD"/>
<path d="M0.469406 57.1839V29.687H21.2847C22.9932 29.687 24.5242 29.9174 25.8765 30.3796C27.2288 30.8418 28.3764 31.5083 29.3207 32.3791C30.2637 33.2514 30.9855 34.3156 31.4822 35.5704C31.9803 36.8266 32.2287 38.2502 32.2287 39.8396C32.2287 41.4291 31.9735 42.8197 31.4631 44.0897C30.9528 45.3582 30.2255 46.4293 29.2825 47.3001C28.3382 48.1724 27.1906 48.8444 25.8383 49.3189C24.486 49.7934 22.9686 50.0306 21.2847 50.0306H8.08377V57.1839H0.469406ZM8.08377 36.1492V43.6097H19.5244C21.1824 43.6097 22.3996 43.3285 23.1788 42.7635C23.9566 42.1998 24.3455 41.2248 24.3455 39.841C24.3455 38.4572 23.9566 37.5274 23.1788 36.9761C22.4009 36.4248 21.1824 36.1492 19.5244 36.1492H8.08377Z" fill="#E8E0CD"/>
<path d="M125.413 57.1455V29.613H143.888C145.853 29.613 147.664 29.9599 149.319 30.6525C150.973 31.3451 152.405 32.3023 153.611 33.5215C154.817 34.7407 155.763 36.1917 156.448 37.873C157.131 39.5544 157.474 41.3838 157.474 43.3601C157.474 45.3363 157.131 47.1657 156.448 48.8471C155.763 50.5284 154.818 51.9849 153.611 53.2178C152.403 54.4507 150.973 55.4121 149.319 56.106C147.664 56.7986 145.855 57.1455 143.888 57.1455H125.413ZM132.841 36.0819V50.6752H140.903C143.764 50.6752 145.96 50.0402 147.489 48.7689C149.019 47.4976 149.785 45.6956 149.785 43.3587C149.785 41.0218 149.019 39.2266 147.489 37.9676C145.96 36.7101 143.763 36.0806 140.903 36.0806H132.841V36.0819Z" fill="#E8E0CD"/>
<path d="M168.9 29.613H178.343L192.376 57.1455H184.464L181.777 51.7435H165.429L162.743 57.1455H154.831L168.901 29.613H168.9ZM168.116 46.3415H179.089L173.602 35.2756L168.115 46.3415H168.116Z" fill="#E8E0CD"/>
<path d="M191.426 47.8624H199.152C199.152 49.2626 199.855 50.3132 201.261 51.0126C202.666 51.7134 204.998 52.0631 208.258 52.0631C209.826 52.0631 211.125 52.0068 212.158 51.8944C213.19 51.7819 214.011 51.6009 214.621 51.3499C215.231 51.1003 215.667 50.7877 215.927 50.4119C216.189 50.0361 216.319 49.5863 216.319 49.061C216.319 48.3356 216.095 47.7856 215.647 47.4112C215.424 47.211 215.125 47.0423 214.751 46.9052C214.378 46.768 213.886 46.6432 213.277 46.5294C212.667 46.417 211.928 46.3237 211.057 46.2483C210.186 46.1728 209.129 46.0988 207.884 46.0234L206.467 45.9479C203.878 45.7985 201.67 45.5351 199.841 45.1607C198.013 44.785 196.513 44.2488 195.344 43.548C194.174 42.8485 193.322 41.9859 192.787 40.9601C192.252 39.9356 191.984 38.7096 191.984 37.2847C191.984 35.9339 192.32 34.7599 192.991 33.7588C193.663 32.759 194.633 31.9266 195.902 31.2642C197.171 30.6018 198.725 30.1081 200.567 29.7831C202.408 29.458 204.499 29.2948 206.838 29.2948C212.012 29.2948 215.945 30.0642 218.632 31.6016C221.319 33.1389 222.738 35.4333 222.887 38.4847H215.198C215.198 37.1092 214.508 36.1409 213.127 35.5773C211.746 35.015 209.587 34.7339 206.652 34.7339C205.333 34.7339 204.226 34.7846 203.331 34.8834C202.436 34.9835 201.719 35.1398 201.184 35.3524C200.649 35.5649 200.263 35.8337 200.027 36.1588C199.79 36.4838 199.672 36.8719 199.672 37.3217C199.672 37.8223 199.777 38.2406 199.989 38.5779C200.2 38.9153 200.599 39.1965 201.183 39.4214C201.767 39.6463 202.576 39.8287 203.609 39.9658C204.641 40.103 205.979 40.2346 207.621 40.3594L209.151 40.4719C210.942 40.5967 212.54 40.753 213.947 40.9409C215.353 41.1288 216.566 41.3345 217.586 41.5594C219.577 42.0092 221.144 42.7909 222.289 43.9032C223.432 45.0167 224.005 46.6474 224.005 48.7977C224.005 51.9479 222.7 54.1874 220.086 55.5122C217.473 56.837 213.605 57.5007 208.479 57.5007C205.717 57.5007 203.291 57.3252 201.202 56.9755C199.111 56.6258 197.351 56.069 195.921 55.3065C194.49 54.544 193.402 53.5497 192.656 52.325C191.909 51.1003 191.498 49.6124 191.423 47.8611L191.426 47.8624Z" fill="#E8E0CD"/>
<path d="M49.4469 27.5038V0.00686646H57.0613V10.5448H75.4286V0.00686646H83.0047V27.5038H75.4286V16.9672H57.0613V27.5038H49.4469Z" fill="#E8E0CD"/>
<path d="M124.26 0.00686646H156.441V6.46761H144.197V27.5038H136.582V6.46761H124.261V0.00686646H124.26Z" fill="#E8E0CD"/>
<path d="M123.51 11.2648C127.536 19.6688 130.53 20.7591 133.936 20.7591V27.5037C126.761 27.5037 121.238 24.8062 116.385 14.3272C113.855 8.87992 112.824 7.06005 109.778 7.06005C106.732 7.06005 105.493 8.87992 102.964 14.3272C98.112 24.8062 92.6919 27.5037 85.5169 27.5037V20.7591C88.9243 20.7591 91.8663 19.6702 95.8413 11.2648C99.0426 4.52156 102.139 0 109.779 0C117.419 0 120.258 4.52156 123.51 11.2648Z" fill="#E8E0CD"/>
<path d="M38.3993 18.3442C37.9135 18.9421 37.2776 19.4592 36.4889 19.898C35.7002 20.3369 34.7791 20.6907 33.7242 20.9581C32.6694 21.2269 31.5109 21.3599 30.25 21.3599C30.1763 21.3599 30.104 21.3599 30.0317 21.3586H16.9536C15.5849 21.3407 14.3417 21.1529 13.2242 20.7935C12.0479 20.4164 11.0354 19.8925 10.1866 19.2219C9.33783 18.5513 8.68283 17.7408 8.2216 16.7904C7.76037 15.84 7.52976 14.8046 7.52976 13.6827C7.52976 12.5609 7.76037 11.5379 8.2216 10.6108C8.68146 9.68507 9.33646 8.88691 10.1866 8.21628C11.0354 7.54566 12.0479 7.02727 13.2242 6.66247C14.3417 6.3155 15.5849 6.1331 16.9536 6.11528H30.0317C30.104 6.11528 30.1763 6.1139 30.25 6.1139C31.5109 6.1139 32.6694 6.2483 33.7242 6.51573C34.7791 6.78453 35.7002 7.13698 36.4889 7.57583C37.2762 8.01469 37.9135 8.52623 38.3993 9.11182C38.8837 9.69741 39.1867 10.3187 39.3095 10.9769H46.9866C46.816 9.36827 46.2825 7.88715 45.386 6.53493C44.4881 5.18271 43.3063 4.02524 41.8394 3.06113C40.3711 2.0984 38.6558 1.3496 36.6908 0.81201C34.7258 0.275786 32.5794 0.00698853 30.25 0.00698853C30.1763 0.00698853 30.104 0.00698853 30.0317 0.00835994H16.9536C14.4918 0.0261883 12.2362 0.353957 10.1866 0.994408C8.07695 1.65269 6.26343 2.57977 4.74738 3.7729C3.23133 4.9674 2.06052 6.40602 1.23631 8.08737C0.412103 9.7701 0 11.6352 0 13.6827C0 15.7303 0.412103 17.6448 1.23631 19.3508C2.06052 21.0569 3.23133 22.5133 4.74738 23.7201C6.26343 24.927 8.07695 25.8596 10.1866 26.5178C12.2362 27.1569 14.4918 27.4847 16.9536 27.5039L30.0317 27.5053C30.104 27.5053 30.1763 27.5053 30.25 27.5053C32.578 27.5053 34.7245 27.2365 36.6895 26.7002C38.6545 26.164 40.3698 25.4084 41.838 24.4333C43.305 23.4582 44.4881 22.2939 45.3846 20.9417C46.2811 19.5894 46.816 18.096 46.9852 16.4626H39.3081C39.1867 17.1209 38.8837 17.749 38.3979 18.3456L38.3993 18.3442Z" fill="#E8E0CD"/>
</svg>
