<svg width="418" height="418" viewBox="0 0 418 418" fill="none" xmlns="http://www.w3.org/2000/svg">
<rect width="417.026" height="417.026" rx="9.74359" fill="#191919"/>
<path d="M87.7582 285C86.9882 285 86.3932 284.802 85.9732 284.405C85.5532 283.985 85.3432 283.39 85.3432 282.62V260.325H89.0882V281.745H101.373V285H87.7582ZM103.063 276.075C103.063 274.232 103.413 272.645 104.113 271.315C104.836 269.962 105.839 268.935 107.123 268.235C108.406 267.535 109.899 267.185 111.603 267.185C114.286 267.185 116.409 267.943 117.973 269.46C119.536 270.977 120.318 273.077 120.318 275.76V276.985H106.633C106.703 278.642 107.169 279.972 108.033 280.975C108.919 281.978 110.168 282.48 111.778 282.48C113.154 282.48 114.263 282.165 115.103 281.535C115.966 280.905 116.538 280.018 116.818 278.875H120.388C120.014 280.742 119.116 282.293 117.693 283.53C116.293 284.743 114.344 285.35 111.848 285.35C109.981 285.35 108.383 284.953 107.053 284.16C105.746 283.343 104.754 282.235 104.078 280.835C103.401 279.435 103.063 277.848 103.063 276.075ZM116.783 274.64C116.689 273.17 116.176 272.027 115.243 271.21C114.333 270.393 113.131 269.985 111.638 269.985C110.238 269.985 109.083 270.393 108.173 271.21C107.263 272.027 106.749 273.17 106.633 274.64H116.783ZM140.245 267.535L134.33 285H128.03L122.01 267.535H125.685L131.215 283.81L136.675 267.535H140.245ZM141.925 276.075C141.925 274.232 142.275 272.645 142.975 271.315C143.698 269.962 144.702 268.935 145.985 268.235C147.268 267.535 148.762 267.185 150.465 267.185C153.148 267.185 155.272 267.943 156.835 269.46C158.398 270.977 159.18 273.077 159.18 275.76V276.985H145.495C145.565 278.642 146.032 279.972 146.895 280.975C147.782 281.978 149.03 282.48 150.64 282.48C152.017 282.48 153.125 282.165 153.965 281.535C154.828 280.905 155.4 280.018 155.68 278.875H159.25C158.877 280.742 157.978 282.293 156.555 283.53C155.155 284.743 153.207 285.35 150.71 285.35C148.843 285.35 147.245 284.953 145.915 284.16C144.608 283.343 143.617 282.235 142.94 280.835C142.263 279.435 141.925 277.848 141.925 276.075ZM155.645 274.64C155.552 273.17 155.038 272.027 154.105 271.21C153.195 270.393 151.993 269.985 150.5 269.985C149.1 269.985 147.945 270.393 147.035 271.21C146.125 272.027 145.612 273.17 145.495 274.64H155.645ZM163.204 270.055C163.204 268.375 164.067 267.535 165.794 267.535H175.979V270.65H166.809V285H163.204V270.055ZM177.439 280.17C177.439 278.7 177.918 277.533 178.874 276.67C179.831 275.783 181.371 275.235 183.494 275.025L190.074 274.395C190.004 272.902 189.619 271.817 188.919 271.14C188.219 270.44 187.111 270.09 185.594 270.09C184.358 270.09 183.366 270.393 182.619 271C181.873 271.607 181.441 272.552 181.324 273.835H177.824C178.011 271.782 178.793 270.16 180.169 268.97C181.569 267.78 183.413 267.185 185.699 267.185C188.219 267.185 190.179 267.885 191.579 269.285C192.979 270.662 193.679 272.575 193.679 275.025V281.885H196.234V285H192.909C192.209 285 191.661 284.813 191.264 284.44C190.868 284.043 190.669 283.495 190.669 282.795V280.66C190.226 282.06 189.421 283.192 188.254 284.055C187.088 284.918 185.478 285.35 183.424 285.35C181.138 285.35 179.563 284.813 178.699 283.74C177.859 282.667 177.439 281.477 177.439 280.17ZM181.009 279.68C181.009 280.567 181.278 281.243 181.814 281.71C182.374 282.177 183.133 282.41 184.089 282.41C185.256 282.41 186.294 282.165 187.204 281.675C188.114 281.185 188.814 280.508 189.304 279.645C189.818 278.782 190.074 277.802 190.074 276.705L184.124 277.37C183.051 277.487 182.258 277.72 181.744 278.07C181.254 278.397 181.009 278.933 181.009 279.68ZM206.649 285.35C204.969 285.35 203.511 284.965 202.274 284.195C201.061 283.402 200.127 282.317 199.474 280.94C198.821 279.563 198.494 278 198.494 276.25C198.494 274.5 198.821 272.948 199.474 271.595C200.127 270.218 201.061 269.145 202.274 268.375C203.511 267.582 204.969 267.185 206.649 267.185C208.469 267.185 209.986 267.593 211.199 268.41C212.436 269.203 213.357 270.265 213.964 271.595V267.535H217.569V289.62C217.569 291.16 216.717 291.93 215.014 291.93H201.434V288.815H213.964V280.94C213.334 282.317 212.401 283.402 211.164 284.195C209.951 284.965 208.446 285.35 206.649 285.35ZM202.099 276.25C202.099 278.21 202.624 279.703 203.674 280.73C204.724 281.733 206.124 282.235 207.874 282.235C209.624 282.235 211.059 281.722 212.179 280.695C213.322 279.668 213.894 278.187 213.894 276.25C213.894 274.36 213.322 272.902 212.179 271.875C211.059 270.825 209.624 270.3 207.874 270.3C206.124 270.3 204.724 270.802 203.674 271.805C202.624 272.808 202.099 274.29 202.099 276.25ZM221.26 281.885H226.125V270.65H222.38V267.535H227.28C228.727 267.535 229.45 268.27 229.45 269.74V281.885H234.315V285H221.26V281.885ZM227.385 264.84C226.615 264.84 225.985 264.618 225.495 264.175C225.005 263.708 224.76 263.102 224.76 262.355C224.76 261.632 225.005 261.048 225.495 260.605C225.985 260.138 226.615 259.905 227.385 259.905C228.179 259.905 228.832 260.138 229.345 260.605C229.859 261.048 230.115 261.632 230.115 262.355C230.115 263.102 229.859 263.708 229.345 264.175C228.832 264.618 228.179 264.84 227.385 264.84ZM237.715 267.535H241.32V272.19C241.786 270.627 242.626 269.402 243.84 268.515C245.076 267.628 246.628 267.185 248.495 267.185C250.548 267.185 252.146 267.838 253.29 269.145C254.456 270.452 255.04 272.318 255.04 274.745V285H251.4V275.165C251.4 273.438 251.073 272.202 250.42 271.455C249.766 270.685 248.705 270.3 247.235 270.3C245.391 270.3 243.945 270.965 242.895 272.295C241.845 273.602 241.32 275.433 241.32 277.79V285H237.715V267.535ZM266.84 285.35C265.16 285.35 263.701 284.965 262.465 284.195C261.251 283.402 260.318 282.317 259.665 280.94C259.011 279.563 258.685 278 258.685 276.25C258.685 274.5 259.011 272.948 259.665 271.595C260.318 270.218 261.251 269.145 262.465 268.375C263.701 267.582 265.16 267.185 266.84 267.185C268.66 267.185 270.176 267.593 271.39 268.41C272.626 269.203 273.548 270.265 274.155 271.595V267.535H277.76V289.62C277.76 291.16 276.908 291.93 275.205 291.93H261.625V288.815H274.155V280.94C273.525 282.317 272.591 283.402 271.355 284.195C270.141 284.965 268.636 285.35 266.84 285.35ZM262.29 276.25C262.29 278.21 262.815 279.703 263.865 280.73C264.915 281.733 266.315 282.235 268.065 282.235C269.815 282.235 271.25 281.722 272.37 280.695C273.513 279.668 274.085 278.187 274.085 276.25C274.085 274.36 273.513 272.902 272.37 271.875C271.25 270.825 269.815 270.3 268.065 270.3C266.315 270.3 264.915 270.802 263.865 271.805C262.815 272.808 262.29 274.29 262.29 276.25ZM300.354 260.325H307.109L315.404 285H311.484L308.439 275.9H298.954L295.909 285H292.024L300.354 260.325ZM307.354 272.68L303.714 261.76L300.039 272.68H307.354ZM333.04 260.325V263.545H327.51V281.745H333.04V285H318.235V281.745H323.765V263.545H318.235V260.325H333.04ZM92.7364 306.535H96.4114V304.435C96.4114 302.475 96.9481 300.958 98.0214 299.885C99.1181 298.812 100.798 298.275 103.061 298.275H106.071V301.39H102.816C101.79 301.39 101.066 301.635 100.646 302.125C100.25 302.592 100.051 303.385 100.051 304.505V306.535H105.091V309.65H100.051V320.885H105.091V324H92.7364V320.885H96.4114V309.65H92.7364V306.535ZM107.472 315.25C107.472 313.477 107.869 311.913 108.662 310.56C109.455 309.183 110.564 308.11 111.987 307.34C113.41 306.57 115.044 306.185 116.887 306.185C118.707 306.185 120.329 306.57 121.752 307.34C123.175 308.11 124.284 309.183 125.077 310.56C125.87 311.913 126.267 313.477 126.267 315.25C126.267 317.023 125.87 318.598 125.077 319.975C124.284 321.352 123.175 322.425 121.752 323.195C120.329 323.965 118.707 324.35 116.887 324.35C115.044 324.35 113.41 323.965 111.987 323.195C110.564 322.425 109.455 321.352 108.662 319.975C107.869 318.598 107.472 317.023 107.472 315.25ZM111.077 315.25C111.077 317 111.59 318.435 112.617 319.555C113.667 320.675 115.09 321.235 116.887 321.235C118.684 321.235 120.084 320.675 121.087 319.555C122.114 318.435 122.627 317 122.627 315.25C122.627 313.523 122.114 312.1 121.087 310.98C120.084 309.86 118.684 309.3 116.887 309.3C115.09 309.3 113.667 309.86 112.617 310.98C111.59 312.1 111.077 313.523 111.077 315.25ZM130.118 309.055C130.118 307.375 130.981 306.535 132.708 306.535H142.893V309.65H133.723V324H130.118V309.055ZM168.564 324.385C166.137 324.385 164.014 323.837 162.194 322.74C160.397 321.62 159.021 320.103 158.064 318.19C157.107 316.253 156.629 314.072 156.629 311.645C156.629 309.242 157.107 307.072 158.064 305.135C159.021 303.198 160.397 301.682 162.194 300.585C164.014 299.488 166.137 298.94 168.564 298.94C171.807 298.94 174.432 299.827 176.439 301.6C178.469 303.35 179.671 305.765 180.044 308.845H176.264C175.984 306.745 175.179 305.123 173.849 303.98C172.519 302.813 170.757 302.23 168.564 302.23C165.974 302.23 163.967 303.082 162.544 304.785C161.144 306.465 160.444 308.752 160.444 311.645C160.444 314.538 161.144 316.837 162.544 318.54C163.967 320.243 165.974 321.095 168.564 321.095C170.757 321.095 172.519 320.523 173.849 319.38C175.179 318.213 175.984 316.568 176.264 314.445H180.044C179.671 317.548 178.469 319.987 176.439 321.76C174.432 323.51 171.807 324.385 168.564 324.385ZM190.418 324.35C188.365 324.35 186.755 323.697 185.588 322.39C184.445 321.083 183.873 319.217 183.873 316.79V306.535H187.513V316.37C187.513 318.12 187.84 319.368 188.493 320.115C189.147 320.862 190.208 321.235 191.678 321.235C193.522 321.235 194.968 320.582 196.018 319.275C197.068 317.945 197.593 316.102 197.593 313.745V306.535H201.198V324H197.593V319.38C197.103 320.92 196.252 322.133 195.038 323.02C193.825 323.907 192.285 324.35 190.418 324.35ZM213.28 324.35C210.597 324.35 208.52 323.767 207.05 322.6C205.603 321.433 204.88 319.765 204.88 317.595H208.485C208.485 318.925 208.893 319.928 209.71 320.605C210.55 321.258 211.752 321.585 213.315 321.585C214.505 321.585 215.38 321.398 215.94 321.025C216.5 320.652 216.78 320.068 216.78 319.275C216.78 318.738 216.593 318.307 216.22 317.98C215.87 317.63 215.287 317.327 214.47 317.07L209.64 315.705C208.45 315.378 207.458 314.842 206.665 314.095C205.895 313.348 205.51 312.333 205.51 311.05C205.51 309.51 206.117 308.32 207.33 307.48C208.567 306.617 210.27 306.185 212.44 306.185C214.797 306.185 216.64 306.71 217.97 307.76C219.323 308.787 220 310.257 220 312.17H216.395C216.395 311.167 216.057 310.385 215.38 309.825C214.703 309.242 213.735 308.95 212.475 308.95C211.448 308.95 210.632 309.148 210.025 309.545C209.442 309.918 209.15 310.397 209.15 310.98C209.15 311.517 209.337 311.96 209.71 312.31C210.083 312.66 210.667 312.952 211.46 313.185L215.555 314.305C217.142 314.725 218.343 315.332 219.16 316.125C220 316.918 220.42 317.992 220.42 319.345C220.42 320.955 219.813 322.192 218.6 323.055C217.387 323.918 215.613 324.35 213.28 324.35ZM235.982 324H228.702C226.999 324 226.147 323.148 226.147 321.445V309.65H222.227V306.535H226.147V302.37L229.752 301.25V306.535H235.282V309.65H229.752V320.885H235.982V324ZM238.038 315.25C238.038 313.477 238.435 311.913 239.228 310.56C240.022 309.183 241.13 308.11 242.553 307.34C243.977 306.57 245.61 306.185 247.453 306.185C249.273 306.185 250.895 306.57 252.318 307.34C253.742 308.11 254.85 309.183 255.643 310.56C256.437 311.913 256.833 313.477 256.833 315.25C256.833 317.023 256.437 318.598 255.643 319.975C254.85 321.352 253.742 322.425 252.318 323.195C250.895 323.965 249.273 324.35 247.453 324.35C245.61 324.35 243.977 323.965 242.553 323.195C241.13 322.425 240.022 321.352 239.228 319.975C238.435 318.598 238.038 317.023 238.038 315.25ZM241.643 315.25C241.643 317 242.157 318.435 243.183 319.555C244.233 320.675 245.657 321.235 247.453 321.235C249.25 321.235 250.65 320.675 251.653 319.555C252.68 318.435 253.193 317 253.193 315.25C253.193 313.523 252.68 312.1 251.653 310.98C250.65 309.86 249.25 309.3 247.453 309.3C245.657 309.3 244.233 309.86 243.183 310.98C242.157 312.1 241.643 313.523 241.643 315.25ZM260.752 306.535H264.357V310.805C264.823 309.428 265.57 308.32 266.597 307.48C267.647 306.617 268.977 306.185 270.587 306.185C273.34 306.185 275.078 307.702 275.802 310.735C276.292 309.382 277.085 308.285 278.182 307.445C279.302 306.605 280.69 306.185 282.347 306.185C284.353 306.185 285.847 306.873 286.827 308.25C287.807 309.627 288.297 311.552 288.297 314.025V324H284.692V314.375C284.692 312.648 284.435 311.377 283.922 310.56C283.432 309.72 282.592 309.3 281.402 309.3C279.675 309.3 278.392 309.988 277.552 311.365C276.735 312.718 276.327 314.597 276.327 317V324H272.722V314.375C272.722 312.648 272.465 311.377 271.952 310.56C271.462 309.72 270.622 309.3 269.432 309.3C267.705 309.3 266.422 309.988 265.582 311.365C264.765 312.718 264.357 314.597 264.357 317V324H260.752V306.535ZM291.837 315.075C291.837 313.232 292.187 311.645 292.887 310.315C293.611 308.962 294.614 307.935 295.897 307.235C297.181 306.535 298.674 306.185 300.377 306.185C303.061 306.185 305.184 306.943 306.747 308.46C308.311 309.977 309.092 312.077 309.092 314.76V315.985H295.407C295.477 317.642 295.944 318.972 296.807 319.975C297.694 320.978 298.942 321.48 300.552 321.48C301.929 321.48 303.037 321.165 303.877 320.535C304.741 319.905 305.312 319.018 305.592 317.875H309.162C308.789 319.742 307.891 321.293 306.467 322.53C305.067 323.743 303.119 324.35 300.622 324.35C298.756 324.35 297.157 323.953 295.827 323.16C294.521 322.343 293.529 321.235 292.852 319.835C292.176 318.435 291.837 316.848 291.837 315.075ZM305.557 313.64C305.464 312.17 304.951 311.027 304.017 310.21C303.107 309.393 301.906 308.985 300.412 308.985C299.012 308.985 297.857 309.393 296.947 310.21C296.037 311.027 295.524 312.17 295.407 313.64H305.557ZM313.116 309.055C313.116 307.375 313.979 306.535 315.706 306.535H325.891V309.65H316.721V324H313.116V309.055ZM111.952 338.325H129.557V341.545H115.697V349.07H127.807V352.22H115.697V359.78H129.557V363H111.952V338.325ZM138.351 354.215L132.086 345.535H136.181L141.256 352.71L146.331 345.535H150.461L144.196 354.215L150.461 363H146.331L141.256 355.825L136.181 363H132.086L138.351 354.215ZM153.616 345.535H157.221V349.665C157.827 348.288 158.749 347.203 159.986 346.41C161.222 345.593 162.739 345.185 164.536 345.185C166.216 345.185 167.662 345.582 168.876 346.375C170.112 347.145 171.057 348.218 171.711 349.595C172.364 350.972 172.691 352.535 172.691 354.285C172.691 356.035 172.364 357.598 171.711 358.975C171.057 360.328 170.112 361.402 168.876 362.195C167.662 362.965 166.216 363.35 164.536 363.35C162.716 363.35 161.187 362.942 159.951 362.125C158.714 361.308 157.804 360.235 157.221 358.905V369.65H153.616V345.535ZM157.291 354.285C157.291 356.198 157.851 357.668 158.971 358.695C160.114 359.722 161.561 360.235 163.311 360.235C165.061 360.235 166.461 359.733 167.511 358.73C168.561 357.727 169.086 356.245 169.086 354.285C169.086 352.325 168.561 350.843 167.511 349.84C166.461 348.813 165.061 348.3 163.311 348.3C161.561 348.3 160.114 348.813 158.971 349.84C157.851 350.867 157.291 352.348 157.291 354.285ZM176.019 354.075C176.019 352.232 176.369 350.645 177.069 349.315C177.793 347.962 178.796 346.935 180.079 346.235C181.363 345.535 182.856 345.185 184.559 345.185C187.243 345.185 189.366 345.943 190.929 347.46C192.493 348.977 193.274 351.077 193.274 353.76V354.985H179.589C179.659 356.642 180.126 357.972 180.989 358.975C181.876 359.978 183.124 360.48 184.734 360.48C186.111 360.48 187.219 360.165 188.059 359.535C188.923 358.905 189.494 358.018 189.774 356.875H193.344C192.971 358.742 192.073 360.293 190.649 361.53C189.249 362.743 187.301 363.35 184.804 363.35C182.938 363.35 181.339 362.953 180.009 362.16C178.703 361.343 177.711 360.235 177.034 358.835C176.358 357.435 176.019 355.848 176.019 354.075ZM189.739 352.64C189.646 351.17 189.133 350.027 188.199 349.21C187.289 348.393 186.088 347.985 184.594 347.985C183.194 347.985 182.039 348.393 181.129 349.21C180.219 350.027 179.706 351.17 179.589 352.64H189.739ZM197.298 348.055C197.298 346.375 198.161 345.535 199.888 345.535H210.073V348.65H200.903V363H197.298V348.055ZM211.844 359.885H216.709V348.65H212.964V345.535H217.864C219.31 345.535 220.034 346.27 220.034 347.74V359.885H224.899V363H211.844V359.885ZM217.969 342.84C217.199 342.84 216.569 342.618 216.079 342.175C215.589 341.708 215.344 341.102 215.344 340.355C215.344 339.632 215.589 339.048 216.079 338.605C216.569 338.138 217.199 337.905 217.969 337.905C218.762 337.905 219.415 338.138 219.929 338.605C220.442 339.048 220.699 339.632 220.699 340.355C220.699 341.102 220.442 341.708 219.929 342.175C219.415 342.618 218.762 342.84 217.969 342.84ZM226.674 354.075C226.674 352.232 227.024 350.645 227.724 349.315C228.447 347.962 229.45 346.935 230.734 346.235C232.017 345.535 233.51 345.185 235.214 345.185C237.897 345.185 240.02 345.943 241.584 347.46C243.147 348.977 243.929 351.077 243.929 353.76V354.985H230.244C230.314 356.642 230.78 357.972 231.644 358.975C232.53 359.978 233.779 360.48 235.389 360.48C236.765 360.48 237.874 360.165 238.714 359.535C239.577 358.905 240.149 358.018 240.429 356.875H243.999C243.625 358.742 242.727 360.293 241.304 361.53C239.904 362.743 237.955 363.35 235.459 363.35C233.592 363.35 231.994 362.953 230.664 362.16C229.357 361.343 228.365 360.235 227.689 358.835C227.012 357.435 226.674 355.848 226.674 354.075ZM240.394 352.64C240.3 351.17 239.787 350.027 238.854 349.21C237.944 348.393 236.742 347.985 235.249 347.985C233.849 347.985 232.694 348.393 231.784 349.21C230.874 350.027 230.36 351.17 230.244 352.64H240.394ZM247.917 345.535H251.522V350.19C251.989 348.627 252.829 347.402 254.042 346.515C255.279 345.628 256.831 345.185 258.697 345.185C260.751 345.185 262.349 345.838 263.492 347.145C264.659 348.452 265.242 350.318 265.242 352.745V363H261.602V353.165C261.602 351.438 261.276 350.202 260.622 349.455C259.969 348.685 258.907 348.3 257.437 348.3C255.594 348.3 254.147 348.965 253.097 350.295C252.047 351.602 251.522 353.433 251.522 355.79V363H247.917V345.535ZM268.817 354.25C268.817 352.5 269.179 350.937 269.902 349.56C270.649 348.183 271.711 347.11 273.087 346.34C274.464 345.57 276.074 345.185 277.917 345.185C279.247 345.185 280.531 345.442 281.767 345.955C283.027 346.468 284.077 347.262 284.917 348.335C285.781 349.408 286.282 350.738 286.422 352.325H282.782C282.572 350.972 282.024 349.968 281.137 349.315C280.274 348.638 279.201 348.3 277.917 348.3C276.167 348.3 274.814 348.86 273.857 349.98C272.901 351.1 272.422 352.523 272.422 354.25C272.422 356 272.901 357.435 273.857 358.555C274.814 359.675 276.167 360.235 277.917 360.235C279.201 360.235 280.274 359.908 281.137 359.255C282.024 358.578 282.572 357.563 282.782 356.21H286.422C286.282 357.797 285.781 359.127 284.917 360.2C284.077 361.273 283.027 362.067 281.767 362.58C280.531 363.093 279.247 363.35 277.917 363.35C276.074 363.35 274.464 362.965 273.087 362.195C271.711 361.425 270.649 360.352 269.902 358.975C269.179 357.575 268.817 356 268.817 354.25ZM289.564 354.075C289.564 352.232 289.914 350.645 290.614 349.315C291.338 347.962 292.341 346.935 293.624 346.235C294.908 345.535 296.401 345.185 298.104 345.185C300.788 345.185 302.911 345.943 304.474 347.46C306.038 348.977 306.819 351.077 306.819 353.76V354.985H293.134C293.204 356.642 293.671 357.972 294.534 358.975C295.421 359.978 296.669 360.48 298.279 360.48C299.656 360.48 300.764 360.165 301.604 359.535C302.468 358.905 303.039 358.018 303.319 356.875H306.889C306.516 358.742 305.618 360.293 304.194 361.53C302.794 362.743 300.846 363.35 298.349 363.35C296.483 363.35 294.884 362.953 293.554 362.16C292.248 361.343 291.256 360.235 290.579 358.835C289.903 357.435 289.564 355.848 289.564 354.075ZM303.284 352.64C303.191 351.17 302.678 350.027 301.744 349.21C300.834 348.393 299.633 347.985 298.139 347.985C296.739 347.985 295.584 348.393 294.674 349.21C293.764 350.027 293.251 351.17 293.134 352.64H303.284Z" fill="#E8E0CD"/>
<path d="M278.716 73.5773V110.912C278.716 113.99 276.225 116.491 273.159 116.491H271.77C273.491 122.1 274.411 128.072 274.411 134.257C274.411 150.582 267.964 165.392 257.485 176.261C246.593 187.539 231.367 194.589 214.498 194.66C214.41 194.662 214.323 194.662 214.234 194.662H213.903C213.964 195.148 213.856 195.647 213.602 196.088L211.97 198.847C211.47 199.71 210.475 200.135 209.509 199.923L207.652 199.529C206.88 199.362 206.096 199.588 205.536 200.135C205.522 200.165 205.507 200.18 205.491 200.196C204.933 200.741 204.692 201.514 204.843 202.273L205.191 204.166C205.387 205.138 204.917 206.123 204.059 206.607L201.279 208.184C200.419 208.67 199.347 208.548 198.607 207.881L197.186 206.593C196.612 206.078 195.813 205.879 195.059 206.078C195.041 206.078 195.028 206.078 195.012 206.092C194.258 206.274 193.652 206.835 193.396 207.578L192.777 209.382C192.445 210.322 191.568 210.959 190.573 210.943L188.972 210.927L187.37 210.898C186.39 210.898 185.514 210.245 185.211 209.291L184.638 207.472C184.396 206.729 183.791 206.168 183.052 205.956C183.036 205.94 183.022 205.94 183.007 205.94C182.252 205.728 181.451 205.895 180.863 206.41L179.414 207.669C178.658 208.32 177.586 208.412 176.724 207.911L173.975 206.274C173.115 205.759 172.692 204.758 172.904 203.789L173.313 201.924C173.479 201.165 173.252 200.377 172.708 199.816C172.678 199.801 172.663 199.787 172.647 199.755C172.104 199.211 171.319 198.967 170.563 199.104L168.69 199.468C167.724 199.649 166.744 199.195 166.26 198.332L164.689 195.541C164.205 194.678 164.327 193.586 164.993 192.859L166.26 191.449C166.788 190.873 166.984 190.084 166.788 189.327C166.788 189.297 166.774 189.25 166.758 189.221C166.578 188.463 166.018 187.856 165.279 187.598L163.496 186.992C162.56 186.674 161.927 185.779 161.941 184.78L161.956 183.187L161.972 181.581C161.988 180.595 162.636 179.716 163.573 179.413L165.385 178.822C166.125 178.595 166.699 178.003 166.895 177.26C166.909 177.23 166.909 177.201 166.925 177.17C167.136 176.412 166.954 175.608 166.442 175.018L165.203 173.577C164.554 172.835 164.462 171.744 164.962 170.894L165.595 169.834C164.932 168.924 164.297 167.999 163.692 167.059C163.526 167.65 163.028 168.09 162.411 168.18L160.174 168.544C159.48 168.65 158.785 168.302 158.467 167.665L157.848 166.468C157.607 165.984 157.125 165.649 156.565 165.589H156.536C155.993 165.528 155.448 165.74 155.1 166.165L154.24 167.227C153.787 167.771 153.047 167.954 152.398 167.71L150.284 166.892C149.618 166.635 149.211 165.998 149.24 165.286L149.301 163.937C149.332 163.392 149.075 162.861 148.638 162.542C148.623 162.527 148.607 162.511 148.592 162.511C148.155 162.178 147.581 162.102 147.067 162.3L145.8 162.769C145.149 163.012 144.411 162.816 143.956 162.269L142.538 160.495C142.099 159.95 142.054 159.191 142.446 158.586L143.157 157.465C143.457 156.995 143.504 156.418 143.277 155.919C143.277 155.903 143.261 155.872 143.247 155.858C143.036 155.343 142.567 154.979 142.025 154.887L140.71 154.674C140.015 154.568 139.472 154.007 139.364 153.311L139.2 152.204L139.019 151.083C138.912 150.385 139.26 149.703 139.879 149.384L141.073 148.763C141.555 148.505 141.888 148.035 141.946 147.49V147.414C142.007 146.869 141.797 146.322 141.359 145.974L140.332 145.125C139.788 144.67 139.592 143.927 139.848 143.276L140.665 141.168C140.906 140.501 141.555 140.076 142.25 140.108L143.594 140.183C144.152 140.198 144.667 139.941 144.999 139.502C144.999 139.486 145.012 139.486 145.012 139.486C145.345 139.032 145.422 138.456 145.226 137.925L144.756 136.651C144.515 136 144.711 135.256 145.255 134.818L147.022 133.392C147.565 132.938 148.335 132.908 148.925 133.286L150.057 134.014C150.525 134.318 151.115 134.348 151.612 134.12C151.644 134.106 151.673 134.09 151.703 134.074C152.171 133.878 152.518 133.453 152.639 132.967L153.001 131.422C153.137 130.816 153.607 130.361 154.194 130.208C155.16 115.49 161.382 102.212 170.986 92.2535C181.878 80.958 197.103 73.9237 213.971 73.8523C214.059 73.8506 214.146 73.8506 214.234 73.8506C214.491 73.8506 214.748 73.8506 215.006 73.8662C215.384 73.8662 215.76 73.8662 216.139 73.8802C216.773 73.8958 217.391 73.9254 218.01 73.9724C218.766 74.0177 219.52 74.0769 220.261 74.1535C220.866 74.2144 221.454 74.2753 222.059 74.3502C223.597 74.5625 225.123 74.8202 226.618 75.123C227.223 75.2606 227.811 75.3963 228.399 75.5321C229.078 75.6992 229.744 75.8663 230.424 76.063V73.5773C230.424 70.4997 232.914 68 235.98 68H273.159C276.225 68 278.716 70.4997 278.716 73.5773Z" fill="#E8E0CD"/>
<path d="M201.839 159.073C200.994 158.572 199.907 158.664 199.151 159.331L198.412 159.982C199.558 159.649 200.738 159.376 201.913 159.118L201.839 159.073Z" stroke="#191919" stroke-width="2" stroke-linecap="round" stroke-linejoin="round"/>
<path d="M215.082 179.99L214.235 179.702L213.256 179.368C212.529 179.111 211.971 178.505 211.775 177.746C211.775 177.73 211.759 177.701 211.759 177.685C211.563 176.928 211.759 176.139 212.288 175.563L213.571 174.139C214.235 173.396 214.357 172.32 213.875 171.455L212.319 168.666C211.835 167.787 210.854 167.333 209.872 167.514L208 167.878C207.23 168.029 206.444 167.772 205.901 167.211L205.886 167.195C205.341 166.635 205.1 165.846 205.267 165.073L205.658 163.179C205.87 162.208 205.431 161.209 204.587 160.708L201.913 159.117C200.737 159.374 199.558 159.648 198.412 159.98L197.716 160.572C197.127 161.087 196.312 161.268 195.556 161.058C195.556 161.042 195.542 161.042 195.526 161.042C195.42 161.011 195.316 160.981 195.224 160.936C194.621 160.662 194.153 160.163 193.941 159.526L193.352 157.691C193.05 156.751 192.174 156.1 191.193 156.084L188.219 156.055C187.478 156.055 186.783 156.403 186.36 156.979C186.238 157.13 186.148 157.282 186.073 157.465L185.212 159.541C184.925 160.208 184.351 160.694 183.656 160.875C183.613 160.89 183.566 160.904 183.521 160.904C182.751 161.117 181.936 160.92 181.362 160.389L179.957 159.101C179.232 158.434 178.145 158.312 177.285 158.798L174.491 160.375C173.63 160.859 173.177 161.844 173.359 162.83L173.72 164.71C173.872 165.482 173.616 166.271 173.057 166.818C173.047 166.827 173.036 166.837 173.026 166.847C172.466 167.394 171.682 167.636 170.912 167.469L169.069 167.06C168.089 166.847 167.092 167.272 166.593 168.135L165.595 169.834L164.962 170.894C164.463 171.744 164.555 172.835 165.203 173.577L166.443 175.018C166.955 175.608 167.137 176.412 166.925 177.17C166.91 177.201 166.91 177.231 166.896 177.26C166.7 178.003 166.126 178.595 165.386 178.822L163.573 179.413C162.637 179.716 161.988 180.595 161.973 181.581L161.957 183.187L161.942 184.78C161.928 185.779 162.561 186.674 163.497 186.993L165.28 187.598C166.019 187.856 166.579 188.464 166.759 189.221C166.775 189.25 166.788 189.297 166.788 189.327C166.984 190.084 166.788 190.873 166.261 191.449L164.994 192.859C164.328 193.586 164.206 194.678 164.69 195.541L166.261 198.332C166.745 199.195 167.725 199.649 168.691 199.468L170.564 199.105C171.32 198.967 172.105 199.211 172.648 199.756C172.664 199.787 172.679 199.801 172.709 199.817C173.253 200.377 173.48 201.166 173.314 201.925L172.905 203.789C172.693 204.758 173.116 205.759 173.976 206.275L176.725 207.911C177.587 208.412 178.658 208.32 179.414 207.669L180.864 206.41C181.452 205.895 182.253 205.728 183.008 205.94C183.023 205.94 183.037 205.94 183.053 205.956C183.791 206.168 184.397 206.729 184.639 207.472L185.212 209.291C185.515 210.245 186.391 210.898 187.371 210.898L188.973 210.928L190.573 210.943C191.569 210.959 192.446 210.322 192.778 209.382L193.397 207.578C193.653 206.835 194.258 206.275 195.013 206.092C195.028 206.078 195.042 206.078 195.06 206.078C195.814 205.879 196.613 206.078 197.187 206.593L198.608 207.881C199.348 208.548 200.42 208.67 201.28 208.184L204.06 206.607C204.918 206.123 205.388 205.138 205.192 204.167L204.843 202.273C204.693 201.514 204.934 200.741 205.492 200.196C205.508 200.18 205.523 200.165 205.537 200.135C206.097 199.588 206.881 199.362 207.653 199.529L209.51 199.923C210.476 200.135 211.471 199.71 211.971 198.847L213.602 196.088C213.857 195.647 213.965 195.148 213.904 194.662C213.857 194.208 213.677 193.767 213.36 193.405L212.123 191.964C211.61 191.388 211.428 190.585 211.639 189.826C211.653 189.797 211.653 189.767 211.669 189.72C211.88 188.979 212.454 188.387 213.195 188.145L214.235 187.811L214.991 187.569C215.928 187.266 216.578 186.401 216.592 185.402L216.621 182.202C216.637 181.217 216.018 180.324 215.082 179.99ZM203.272 190.54C202.789 191.525 202.187 192.45 201.491 193.313C198.592 196.951 194.092 199.272 189.077 199.225C180.455 199.12 173.524 192.009 173.63 183.294C173.645 181.915 173.841 180.595 174.174 179.323C175.984 172.668 182.057 167.803 189.198 167.787H189.455C198.094 167.878 205.039 174.973 204.949 183.642C204.918 186.129 204.316 188.464 203.272 190.54Z" stroke="#191919" stroke-width="2" stroke-linecap="round" stroke-linejoin="round"/>
<path d="M174.643 150.894C174.688 150.35 175.021 149.864 175.503 149.606L176.696 149.001C177.317 148.682 177.662 147.984 177.557 147.288L177.21 145.058C177.104 144.362 176.561 143.815 175.866 143.695L174.522 143.482C173.995 143.392 173.525 143.028 173.315 142.527C173.299 142.513 173.299 142.497 173.284 142.482C173.072 141.982 173.117 141.39 173.403 140.936L174.13 139.783C174.522 139.192 174.477 138.434 174.038 137.89L172.62 136.116C172.181 135.569 171.442 135.357 170.778 135.614L169.509 136.084C168.995 136.281 168.421 136.191 167.969 135.872C167.969 135.863 167.964 135.858 167.953 135.858C167.516 135.524 167.259 135.009 167.273 134.464L167.289 134.251L167.334 133.083C167.364 132.387 166.942 131.734 166.292 131.492L164.194 130.674C163.528 130.417 162.789 130.613 162.352 131.158L161.49 132.204C161.142 132.629 160.585 132.855 160.04 132.796C160.031 132.796 160.021 132.791 160.009 132.78C159.466 132.735 158.983 132.401 158.726 131.917L158.107 130.704C157.776 130.082 157.096 129.734 156.401 129.839L154.332 130.173C154.288 130.173 154.242 130.189 154.196 130.202C153.609 130.356 153.139 130.81 153.003 131.416L152.641 132.962C152.52 133.447 152.173 133.872 151.705 134.069C151.675 134.084 151.646 134.1 151.614 134.114C151.117 134.342 150.527 134.312 150.059 134.008L148.926 133.28C148.337 132.902 147.567 132.932 147.024 133.386L145.257 134.812C144.713 135.251 144.517 135.994 144.758 136.645L145.228 137.919C145.424 138.45 145.347 139.026 145.014 139.481C145.014 139.481 145 139.481 145 139.496C144.669 139.935 144.154 140.193 143.596 140.177L142.252 140.102C141.557 140.071 140.908 140.495 140.667 141.162L139.85 143.27C139.594 143.921 139.789 144.664 140.334 145.119L141.361 145.968C141.799 146.316 142.009 146.863 141.948 147.408V147.484C141.889 148.029 141.557 148.499 141.074 148.757L139.881 149.378C139.262 149.697 138.914 150.379 139.021 151.077L139.202 152.198L139.366 153.305C139.474 154.002 140.017 154.562 140.712 154.668L142.026 154.881C142.569 154.973 143.037 155.337 143.249 155.852C143.263 155.866 143.279 155.897 143.279 155.913C143.506 156.413 143.459 156.989 143.159 157.459L142.448 158.58C142.056 159.186 142.101 159.945 142.54 160.489L143.958 162.263C144.413 162.81 145.151 163.006 145.802 162.763L147.069 162.294C147.583 162.096 148.157 162.173 148.594 162.505C148.609 162.505 148.625 162.521 148.64 162.536C149.077 162.855 149.334 163.386 149.303 163.931L149.242 165.28C149.213 165.992 149.62 166.629 150.286 166.887L152.4 167.705C153.048 167.948 153.789 167.766 154.242 167.221L155.102 166.159C155.45 165.734 155.995 165.522 156.537 165.583H156.567C157.127 165.644 157.609 165.978 157.85 166.462L158.469 167.659C158.787 168.297 159.482 168.645 160.176 168.538L162.413 168.175C163.03 168.084 163.528 167.644 163.694 167.054C163.725 166.993 163.741 166.916 163.755 166.841L163.982 165.492C164.072 164.947 164.435 164.491 164.934 164.265H164.964C165.477 164.037 166.049 164.067 166.519 164.371L167.651 165.099C168.239 165.477 169.011 165.431 169.554 164.993L171.305 163.567C171.85 163.127 172.061 162.385 171.818 161.732L171.335 160.444C171.156 159.945 171.231 159.368 171.548 158.928C171.562 158.914 171.577 158.898 171.577 158.883C171.91 158.428 172.424 158.171 172.982 158.2L174.326 158.261C175.021 158.293 175.67 157.868 175.927 157.215L176.726 155.109C176.983 154.442 176.787 153.699 176.242 153.26L175.217 152.411C174.794 152.063 174.567 151.516 174.628 150.971C174.628 150.94 174.628 150.91 174.643 150.894ZM159.995 160.186C159.966 160.186 159.919 160.202 159.89 160.202C153.895 161.097 148.292 156.957 147.355 150.894C146.525 145.65 149.499 140.694 154.228 138.859C154.966 138.556 155.752 138.328 156.567 138.206C162.609 137.252 168.286 141.374 169.236 147.439C170.173 153.532 166.049 159.217 159.995 160.186Z" stroke="#191919" stroke-width="2" stroke-linecap="round" stroke-linejoin="round"/>
<path d="M159.996 160.188C159.966 160.188 159.921 160.204 159.892 160.204C153.895 161.098 148.294 156.961 147.357 150.896C146.527 145.651 149.503 140.694 154.23 138.861C154.968 138.558 155.754 138.33 156.571 138.208C162.611 137.252 168.288 141.376 169.24 147.439C170.177 153.533 166.053 159.217 159.999 160.188H159.996Z" stroke="#191919" stroke-width="2" stroke-linecap="round" stroke-linejoin="round"/>
<path d="M274.414 134.25C274.414 150.575 267.967 165.385 257.488 176.254C246.596 187.532 231.37 194.582 214.501 194.654C214.412 194.655 214.326 194.655 214.237 194.655H213.906C213.859 194.201 213.679 193.761 213.362 193.398L212.125 191.957C211.612 191.381 211.43 190.579 211.641 189.82C211.655 189.79 211.655 189.76 211.671 189.713C211.882 188.972 212.456 188.38 213.197 188.138L214.237 187.804L214.993 187.562C215.93 187.259 216.58 186.394 216.594 185.395L216.623 182.195C216.639 181.21 216.02 180.317 215.084 179.983L214.237 179.695L213.257 179.361C212.531 179.104 211.973 178.498 211.777 177.739C211.777 177.723 211.761 177.694 211.761 177.678C211.565 176.921 211.761 176.132 212.29 175.556L213.573 174.132C214.237 173.389 214.359 172.313 213.877 171.448L212.321 168.659C211.837 167.78 210.856 167.326 209.874 167.507L208.001 167.871C207.231 168.022 206.446 167.765 205.903 167.204L205.888 167.188C205.343 166.628 205.102 165.839 205.268 165.066L205.66 163.173C205.872 162.201 205.433 161.202 204.589 160.701L201.915 159.11C200.739 159.367 199.56 159.641 198.414 159.973L197.718 160.565C197.129 161.08 196.314 161.261 195.557 161.051C195.557 161.035 195.544 161.035 195.528 161.035C195.422 161.004 195.318 160.974 195.226 160.929C194.623 160.655 194.155 160.156 193.943 159.519L193.353 157.684C193.052 156.744 192.176 156.093 191.194 156.077L188.22 156.048C187.48 156.048 186.785 156.396 186.361 156.972C186.24 157.124 186.15 157.275 186.075 157.458L185.214 159.534C184.927 160.201 184.353 160.687 183.658 160.868C183.615 160.883 183.568 160.897 183.523 160.897C182.753 161.11 181.938 160.913 181.364 160.382L179.959 159.094C179.234 158.427 178.147 158.305 177.287 158.791L174.493 160.368C173.631 160.852 173.179 161.837 173.361 162.823L173.722 164.703C173.874 165.476 173.618 166.264 173.059 166.811C173.049 166.82 173.038 166.83 173.028 166.84C172.468 167.387 171.684 167.629 170.914 167.462L169.071 167.053C168.091 166.84 167.094 167.265 166.594 168.128L165.597 169.827C164.935 168.917 164.3 167.993 163.695 167.053C163.726 166.992 163.742 166.915 163.756 166.84L163.983 165.491C164.073 164.946 164.435 164.49 164.935 164.264H164.964C165.478 164.036 166.05 164.066 166.52 164.37L167.652 165.098C168.24 165.476 169.012 165.43 169.555 164.992L171.306 163.566C171.85 163.126 172.062 162.384 171.819 161.731L171.335 160.443C171.157 159.943 171.231 159.367 171.549 158.927C171.563 158.913 171.578 158.897 171.578 158.882C171.911 158.427 172.424 158.17 172.983 158.199L174.327 158.26C175.022 158.292 175.671 157.867 175.927 157.214L176.727 155.108C176.983 154.441 176.787 153.698 176.243 153.259L175.218 152.41C174.795 152.061 174.568 151.515 174.629 150.97C174.629 150.939 174.629 150.909 174.644 150.893C174.689 150.349 175.022 149.863 175.504 149.605L176.697 149C177.318 148.681 177.663 147.983 177.557 147.287L177.211 145.057C177.105 144.361 176.562 143.814 175.867 143.694L174.523 143.481C173.996 143.391 173.526 143.027 173.316 142.526C173.3 142.512 173.3 142.496 173.285 142.481C173.073 141.981 173.118 141.389 173.404 140.935L174.131 139.782C174.523 139.191 174.478 138.433 174.039 137.889L172.62 136.115C172.182 135.568 171.443 135.356 170.779 135.613L169.509 136.083C168.996 136.28 168.422 136.19 167.97 135.871C167.97 135.862 167.964 135.857 167.954 135.857C167.517 135.523 167.26 135.008 167.274 134.463L167.29 134.25L167.335 133.082C167.364 132.386 166.943 131.733 166.293 131.491L164.194 130.673C163.528 130.416 162.79 130.612 162.353 131.157L161.491 132.203C161.142 132.628 160.586 132.854 160.041 132.795C160.032 132.795 160.022 132.79 160.01 132.779C159.467 132.734 158.983 132.4 158.727 131.916L158.108 130.703C157.776 130.081 157.097 129.733 156.401 129.838L154.333 130.172C154.289 130.172 154.242 130.188 154.197 130.201C155.163 115.484 161.385 102.205 170.989 92.2467C181.881 80.9511 197.106 73.9169 213.974 73.8455C214.062 73.8437 214.149 73.8438 214.237 73.8438C214.494 73.8438 214.751 73.8438 215.009 73.8594C215.387 73.8594 215.763 73.8594 216.141 73.8733C216.776 73.889 217.393 73.9186 218.012 73.9656C218.768 74.0109 219.523 74.07 220.263 74.1466C220.868 74.2076 221.456 74.2685 222.062 74.3433C223.6 74.5557 225.126 74.8133 226.621 75.1162C227.226 75.2537 227.814 75.3895 228.401 75.5253C229.081 75.6924 229.747 75.8595 230.427 76.0562V110.906C230.427 113.983 232.917 116.485 235.983 116.485H271.773C273.493 122.093 274.414 128.066 274.414 134.25Z" stroke="#191919" stroke-width="2" stroke-linecap="round" stroke-linejoin="round"/>
<path d="M230.427 76.0562V108.435C225.276 109.875 219.84 110.648 214.237 110.648C204.845 110.648 195.951 108.481 188.022 104.63C181.634 101.523 175.882 97.3087 170.988 92.2467C181.88 80.9511 197.106 73.9169 213.973 73.8455C214.062 73.8437 214.148 73.8438 214.237 73.8438C214.494 73.8438 214.75 73.8438 215.009 73.8594C215.387 73.8594 215.763 73.8594 216.141 73.8733C216.776 73.889 217.393 73.9186 218.012 73.9656C218.768 74.0109 219.522 74.07 220.263 74.1466C220.868 74.2076 221.456 74.2685 222.061 74.3433C223.599 74.5557 225.125 74.8133 226.62 75.1162C227.225 75.2537 227.813 75.3895 228.401 75.5253C229.081 75.6924 229.747 75.8595 230.427 76.0562Z" stroke="#191919" stroke-width="2" stroke-linecap="round" stroke-linejoin="round"/>
<path d="M204.95 183.636C204.919 186.122 204.315 188.456 203.273 190.533C202.789 191.518 202.186 192.442 201.492 193.307C198.593 196.945 194.093 199.264 189.078 199.219C180.456 199.113 173.524 192.003 173.63 183.288C173.646 181.909 173.842 180.59 174.175 179.317C175.985 172.662 182.056 167.797 189.199 167.781H189.456C198.095 167.872 205.04 174.967 204.95 183.638V183.636Z" stroke="#191919" stroke-width="2" stroke-linecap="round" stroke-linejoin="round"/>
<path d="M198.412 159.973L197.717 160.564C197.127 161.08 196.312 161.261 195.556 161.05C195.556 161.034 195.54 161.034 195.526 161.034C195.421 161.005 195.315 160.974 195.225 160.928C196.267 160.58 197.338 160.246 198.412 159.973Z" stroke="#191919" stroke-width="2" stroke-linecap="round" stroke-linejoin="round"/>
<path d="M257.487 176.251C246.595 187.529 231.37 194.579 214.5 194.65C214.412 194.652 214.325 194.652 214.237 194.652H213.905C213.859 194.197 213.678 193.757 213.361 193.395L212.124 191.954C211.611 191.377 211.429 190.575 211.641 189.816C211.655 189.786 211.655 189.757 211.67 189.71C211.882 188.968 212.456 188.376 213.196 188.135L214.237 187.8L214.993 187.558C215.929 187.255 216.579 186.39 216.593 185.391L216.623 182.192C216.638 181.206 216.019 180.313 215.083 179.979L214.237 179.692L213.257 179.358C212.53 179.1 211.972 178.494 211.776 177.735C211.776 177.72 211.76 177.69 211.76 177.675C211.564 176.917 211.76 176.129 212.289 175.553L213.572 174.129C214.237 173.385 214.358 172.31 213.876 171.444L212.32 168.656C211.837 167.777 210.855 167.322 209.874 167.503L208.001 167.867C207.231 168.019 206.445 167.761 205.903 167.201L205.887 167.185C205.342 166.624 205.101 165.836 205.268 165.063L205.66 163.169C205.871 162.198 205.433 161.199 204.588 160.697L201.914 159.106C205.887 158.288 210.009 157.848 214.237 157.848C223.63 157.848 232.525 159.999 240.453 163.865C246.84 166.973 252.593 171.187 257.487 176.251Z" stroke="#191919" stroke-width="2" stroke-linecap="round" stroke-linejoin="round"/>
<path d="M274.414 134.25H244.334H214.238H184.141H167.289" stroke="#191919" stroke-width="2" stroke-linecap="round" stroke-linejoin="round"/>
<path d="M214.238 73.8438V110.648V134.25V157.851V179.694" stroke="#191919" stroke-width="2" stroke-linecap="round" stroke-linejoin="round"/>
<path d="M214.238 194.652V187.801" stroke="#191919" stroke-width="2" stroke-linecap="round" stroke-linejoin="round"/>
<path d="M244.333 134.25C244.333 145.012 242.929 155.123 240.452 163.869C235.357 182.098 225.653 194.46 214.5 194.654C214.411 194.655 214.324 194.655 214.236 194.655H213.905C213.858 194.201 213.678 193.761 213.36 193.398L212.124 191.957C211.611 191.381 211.429 190.579 211.64 189.82C211.654 189.79 211.654 189.76 211.67 189.713C211.881 188.972 212.455 188.38 213.196 188.138L214.236 187.804L214.992 187.562C215.929 187.259 216.579 186.394 216.593 185.395L216.622 182.195C216.638 181.21 216.019 180.317 215.082 179.983L214.236 179.695L213.256 179.361C212.53 179.104 211.971 178.498 211.775 177.739C211.775 177.723 211.76 177.694 211.76 177.678C211.564 176.921 211.76 176.132 212.289 175.556L213.572 174.132C214.236 173.389 214.357 172.313 213.875 171.448L212.32 168.659C211.836 167.78 210.855 167.326 209.873 167.507L208 167.871C207.23 168.022 206.445 167.765 205.902 167.204L205.886 167.188C205.342 166.628 205.101 165.839 205.267 165.066L205.659 163.173C205.871 162.201 205.432 161.202 204.587 160.701L201.913 159.11C200.738 159.367 199.559 159.641 198.412 159.973L197.717 160.565C197.127 161.08 196.312 161.261 195.556 161.051C195.556 161.035 195.542 161.035 195.527 161.035C195.421 161.004 195.317 160.974 195.225 160.929C194.622 160.655 194.153 160.156 193.942 159.519L193.352 157.684C193.05 156.744 192.175 156.093 191.193 156.077L188.219 156.048C187.479 156.048 186.783 156.396 186.36 156.972C184.926 149.953 184.141 142.284 184.141 134.25C184.141 123.487 185.545 113.377 188.022 104.63C193.116 86.4013 202.819 74.0387 213.972 73.8455C214.061 73.8437 214.148 73.8438 214.236 73.8438C214.493 73.8438 214.749 73.8438 215.008 73.8594C220.685 74.1466 225.955 77.5724 230.426 83.3168V110.906C230.426 113.983 232.916 116.485 235.982 116.485H243.005C243.865 122.093 244.333 128.066 244.333 134.25Z" stroke="#191919" stroke-width="2" stroke-linecap="round" stroke-linejoin="round"/>
<path d="M273.161 68H235.982C232.916 68 230.426 70.4997 230.426 73.5773V110.912C230.426 113.99 232.916 116.491 235.982 116.491H273.161C276.227 116.491 278.717 113.99 278.717 110.912V73.5773C278.717 70.4997 276.227 68 273.161 68ZM273.161 106.623C273.161 108.7 271.68 110.442 269.717 110.822C269.445 110.883 269.173 110.912 268.887 110.912H240.256C237.9 110.912 235.982 108.987 235.982 106.623V77.8821C235.982 75.5182 237.9 73.5929 240.256 73.5929H268.887C271.241 73.5929 273.161 75.5182 273.161 77.8821V106.623Z" stroke="#191919" stroke-width="2" stroke-linecap="round" stroke-linejoin="round"/>
<path d="M264.719 84.0039H262.045V100.482H264.719V84.0039Z" fill="#191919"/>
<path d="M257.048 92.6862L256.474 91.231L253.62 84H250.934L250.207 85.8347L244.424 100.478H246.477C246.704 100.478 246.9 100.417 247.051 100.281C247.202 100.143 247.308 100.008 247.368 99.8563L248.743 96.2181H255.794L257.17 99.8563C257.244 100.037 257.35 100.175 257.501 100.295C257.636 100.417 257.834 100.478 258.075 100.478H260.13L257.048 92.6862ZM249.467 94.2929L251.717 88.2909C251.808 88.0629 251.898 87.8052 251.988 87.5023C252.019 87.4257 252.035 87.3509 252.066 87.2743C252.141 87.0323 252.201 86.7747 252.276 86.5171C252.397 86.9714 252.501 87.3805 252.623 87.7286C252.623 87.7286 252.623 87.7443 252.638 87.7443C252.699 87.941 252.76 88.1238 252.834 88.2909L255.085 94.2929H249.467Z" fill="#191919"/>
<path d="M240.935 77.2578C240.224 77.2578 239.635 77.834 239.635 78.5459C239.635 79.2579 240.224 79.8498 240.935 79.8498C241.646 79.8498 242.219 79.2596 242.219 78.5459C242.219 77.8323 241.645 77.2578 240.935 77.2578ZM268.206 77.2578C267.497 77.2578 266.923 77.834 266.923 78.5459C266.923 79.2579 267.497 79.8498 268.206 79.8498C268.915 79.8498 269.505 79.2596 269.505 78.5459C269.505 77.8323 268.915 77.2578 268.206 77.2578ZM268.206 77.2578C267.497 77.2578 266.923 77.834 266.923 78.5459C266.923 79.2579 267.497 79.8498 268.206 79.8498C268.915 79.8498 269.505 79.2596 269.505 78.5459C269.505 77.8323 268.915 77.2578 268.206 77.2578ZM240.935 77.2578C240.224 77.2578 239.635 77.834 239.635 78.5459C239.635 79.2579 240.224 79.8498 240.935 79.8498C241.646 79.8498 242.219 79.2596 242.219 78.5459C242.219 77.8323 241.645 77.2578 240.935 77.2578ZM240.935 77.2578C240.224 77.2578 239.635 77.834 239.635 78.5459C239.635 79.2579 240.224 79.8498 240.935 79.8498C241.646 79.8498 242.219 79.2596 242.219 78.5459C242.219 77.8323 241.645 77.2578 240.935 77.2578ZM240.935 104.65C240.769 104.65 240.618 104.679 240.481 104.74C239.983 104.921 239.635 105.391 239.635 105.938C239.635 106.65 240.224 107.226 240.935 107.226C241.01 107.226 241.084 107.226 241.145 107.197C241.75 107.104 242.219 106.573 242.219 105.938C242.219 105.226 241.645 104.65 240.935 104.65ZM268.206 104.65C267.708 104.65 267.285 104.921 267.087 105.332C266.983 105.513 266.923 105.726 266.923 105.938C266.923 106.605 267.422 107.136 268.055 107.21C268.1 107.226 268.161 107.226 268.206 107.226C268.915 107.226 269.505 106.65 269.505 105.938C269.505 105.226 268.915 104.65 268.206 104.65ZM268.206 77.2578C267.497 77.2578 266.923 77.834 266.923 78.5459C266.923 79.2579 267.497 79.8498 268.206 79.8498C268.915 79.8498 269.505 79.2596 269.505 78.5459C269.505 77.8323 268.915 77.2578 268.206 77.2578ZM240.935 77.2578C240.224 77.2578 239.635 77.834 239.635 78.5459C239.635 79.2579 240.224 79.8498 240.935 79.8498C241.646 79.8498 242.219 79.2596 242.219 78.5459C242.219 77.8323 241.645 77.2578 240.935 77.2578ZM240.935 104.65C240.769 104.65 240.618 104.679 240.481 104.74C239.983 104.921 239.635 105.391 239.635 105.938C239.635 106.65 240.224 107.226 240.935 107.226C241.01 107.226 241.084 107.226 241.145 107.197C241.75 107.104 242.219 106.573 242.219 105.938C242.219 105.226 241.645 104.65 240.935 104.65ZM268.206 104.65C267.708 104.65 267.285 104.921 267.087 105.332C266.983 105.513 266.923 105.726 266.923 105.938C266.923 106.605 267.422 107.136 268.055 107.21C268.1 107.226 268.161 107.226 268.206 107.226C268.915 107.226 269.505 106.65 269.505 105.938C269.505 105.226 268.915 104.65 268.206 104.65ZM268.206 77.2578C267.497 77.2578 266.923 77.834 266.923 78.5459C266.923 79.2579 267.497 79.8498 268.206 79.8498C268.915 79.8498 269.505 79.2596 269.505 78.5459C269.505 77.8323 268.915 77.2578 268.206 77.2578ZM268.206 77.2578C267.497 77.2578 266.923 77.834 266.923 78.5459C266.923 79.2579 267.497 79.8498 268.206 79.8498C268.915 79.8498 269.505 79.2596 269.505 78.5459C269.505 77.8323 268.915 77.2578 268.206 77.2578ZM268.206 104.65C267.708 104.65 267.285 104.921 267.087 105.332C266.983 105.513 266.923 105.726 266.923 105.938C266.923 106.605 267.422 107.136 268.055 107.21C268.1 107.226 268.161 107.226 268.206 107.226C268.915 107.226 269.505 106.65 269.505 105.938C269.505 105.226 268.915 104.65 268.206 104.65ZM240.935 104.65C240.769 104.65 240.618 104.679 240.481 104.74C239.983 104.921 239.635 105.391 239.635 105.938C239.635 106.65 240.224 107.226 240.935 107.226C241.01 107.226 241.084 107.226 241.145 107.197C241.75 107.104 242.219 106.573 242.219 105.938C242.219 105.226 241.645 104.65 240.935 104.65ZM240.935 77.2578C240.224 77.2578 239.635 77.834 239.635 78.5459C239.635 79.2579 240.224 79.8498 240.935 79.8498C241.646 79.8498 242.219 79.2596 242.219 78.5459C242.219 77.8323 241.645 77.2578 240.935 77.2578ZM240.935 77.2578C240.224 77.2578 239.635 77.834 239.635 78.5459C239.635 79.2579 240.224 79.8498 240.935 79.8498C241.646 79.8498 242.219 79.2596 242.219 78.5459C242.219 77.8323 241.645 77.2578 240.935 77.2578ZM268.206 77.2578C267.497 77.2578 266.923 77.834 266.923 78.5459C266.923 79.2579 267.497 79.8498 268.206 79.8498C268.915 79.8498 269.505 79.2596 269.505 78.5459C269.505 77.8323 268.915 77.2578 268.206 77.2578ZM268.206 77.2578C267.497 77.2578 266.923 77.834 266.923 78.5459C266.923 79.2579 267.497 79.8498 268.206 79.8498C268.915 79.8498 269.505 79.2596 269.505 78.5459C269.505 77.8323 268.915 77.2578 268.206 77.2578ZM240.935 77.2578C240.224 77.2578 239.635 77.834 239.635 78.5459C239.635 79.2579 240.224 79.8498 240.935 79.8498C241.646 79.8498 242.219 79.2596 242.219 78.5459C242.219 77.8323 241.645 77.2578 240.935 77.2578Z" fill="#191919"/>
</svg>
