<svg width="418" height="418" viewBox="0 0 418 418" fill="none" xmlns="http://www.w3.org/2000/svg">
<rect width="417.026" height="417.026" rx="9.74359" fill="#510ADD"/>
<path d="M146.65 293.385C144.224 293.385 142.1 292.837 140.28 291.74C138.484 290.62 137.107 289.103 136.15 287.19C135.194 285.253 134.715 283.072 134.715 280.645C134.715 278.242 135.194 276.072 136.15 274.135C137.107 272.198 138.484 270.682 140.28 269.585C142.1 268.488 144.224 267.94 146.65 267.94C149.894 267.94 152.519 268.827 154.525 270.6C156.555 272.35 157.757 274.765 158.13 277.845H154.35C154.07 275.745 153.265 274.123 151.935 272.98C150.605 271.813 148.844 271.23 146.65 271.23C144.06 271.23 142.054 272.082 140.63 273.785C139.23 275.465 138.53 277.752 138.53 280.645C138.53 283.538 139.23 285.837 140.63 287.54C142.054 289.243 144.06 290.095 146.65 290.095C148.844 290.095 150.605 289.523 151.935 288.38C153.265 287.213 154.07 285.568 154.35 283.445H158.13C157.757 286.548 156.555 288.987 154.525 290.76C152.519 292.51 149.894 293.385 146.65 293.385ZM168.505 293.35C166.452 293.35 164.842 292.697 163.675 291.39C162.532 290.083 161.96 288.217 161.96 285.79V275.535H165.6V285.37C165.6 287.12 165.927 288.368 166.58 289.115C167.233 289.862 168.295 290.235 169.765 290.235C171.608 290.235 173.055 289.582 174.105 288.275C175.155 286.945 175.68 285.102 175.68 282.745V275.535H179.285V293H175.68V288.38C175.19 289.92 174.338 291.133 173.125 292.02C171.912 292.907 170.372 293.35 168.505 293.35ZM182.693 289.885H187.558V270.39H183.813V267.275H189.133C190.486 267.275 191.163 267.928 191.163 269.235V289.885H196.063V293H182.693V289.885ZM209.83 293H202.55C200.847 293 199.995 292.148 199.995 290.445V278.65H196.075V275.535H199.995V271.37L203.6 270.25V275.535H209.13V278.65H203.6V289.885H209.83V293ZM219.535 293.35C217.482 293.35 215.872 292.697 214.705 291.39C213.562 290.083 212.99 288.217 212.99 285.79V275.535H216.63V285.37C216.63 287.12 216.957 288.368 217.61 289.115C218.263 289.862 219.325 290.235 220.795 290.235C222.638 290.235 224.085 289.582 225.135 288.275C226.185 286.945 226.71 285.102 226.71 282.745V275.535H230.315V293H226.71V288.38C226.22 289.92 225.368 291.133 224.155 292.02C222.942 292.907 221.402 293.35 219.535 293.35ZM234.498 278.055C234.498 276.375 235.361 275.535 237.088 275.535H247.273V278.65H238.103V293H234.498V278.055ZM248.734 288.17C248.734 286.7 249.212 285.533 250.169 284.67C251.126 283.783 252.666 283.235 254.789 283.025L261.369 282.395C261.299 280.902 260.914 279.817 260.214 279.14C259.514 278.44 258.406 278.09 256.889 278.09C255.652 278.09 254.661 278.393 253.914 279C253.167 279.607 252.736 280.552 252.619 281.835H249.119C249.306 279.782 250.087 278.16 251.464 276.97C252.864 275.78 254.707 275.185 256.994 275.185C259.514 275.185 261.474 275.885 262.874 277.285C264.274 278.662 264.974 280.575 264.974 283.025V289.885H267.529V293H264.204C263.504 293 262.956 292.813 262.559 292.44C262.162 292.043 261.964 291.495 261.964 290.795V288.66C261.521 290.06 260.716 291.192 259.549 292.055C258.382 292.918 256.772 293.35 254.719 293.35C252.432 293.35 250.857 292.813 249.994 291.74C249.154 290.667 248.734 289.477 248.734 288.17ZM252.304 287.68C252.304 288.567 252.572 289.243 253.109 289.71C253.669 290.177 254.427 290.41 255.384 290.41C256.551 290.41 257.589 290.165 258.499 289.675C259.409 289.185 260.109 288.508 260.599 287.645C261.112 286.782 261.369 285.802 261.369 284.705L255.419 285.37C254.346 285.487 253.552 285.72 253.039 286.07C252.549 286.397 252.304 286.933 252.304 287.68ZM269.749 289.885H274.614V270.39H270.869V267.275H276.189C277.542 267.275 278.219 267.928 278.219 269.235V289.885H283.119V293H269.749V289.885ZM103.368 323.635C103.368 322.002 103.683 320.578 104.313 319.365C104.967 318.152 105.853 317.23 106.973 316.6C108.093 315.97 109.377 315.655 110.823 315.655C111.687 315.655 112.492 315.772 113.238 316.005C113.985 316.238 114.627 316.553 115.163 316.95L109.073 309.215V307.325H127.658V310.44H114.323L125.103 324.16C126.527 321.757 127.238 318.688 127.238 314.955H130.878C130.878 317.382 130.575 319.622 129.968 321.675C129.385 323.705 128.51 325.49 127.343 327.03L131.718 332.56L128.918 334.45L124.998 329.48C122.268 331.65 118.885 332.735 114.848 332.735C112.632 332.735 110.648 332.373 108.898 331.65C107.172 330.927 105.818 329.877 104.838 328.5C103.858 327.123 103.368 325.502 103.368 323.635ZM106.973 323.39C106.973 325.327 107.685 326.855 109.108 327.975C110.555 329.072 112.492 329.62 114.918 329.62C118.232 329.62 120.915 328.698 122.968 326.855L118.943 321.745C117.917 320.438 116.902 319.517 115.898 318.98C114.895 318.42 113.705 318.14 112.328 318.14C110.718 318.14 109.423 318.595 108.443 319.505C107.463 320.415 106.973 321.71 106.973 323.39ZM149.038 332C148.268 332 147.673 331.802 147.253 331.405C146.833 330.985 146.623 330.39 146.623 329.62V307.325H150.368V328.745H162.653V332H149.038ZM165.062 327.17C165.062 325.7 165.54 324.533 166.497 323.67C167.454 322.783 168.994 322.235 171.117 322.025L177.697 321.395C177.627 319.902 177.242 318.817 176.542 318.14C175.842 317.44 174.734 317.09 173.217 317.09C171.98 317.09 170.989 317.393 170.242 318C169.495 318.607 169.064 319.552 168.947 320.835H165.447C165.634 318.782 166.415 317.16 167.792 315.97C169.192 314.78 171.035 314.185 173.322 314.185C175.842 314.185 177.802 314.885 179.202 316.285C180.602 317.662 181.302 319.575 181.302 322.025V328.885H183.857V332H180.532C179.832 332 179.284 331.813 178.887 331.44C178.49 331.043 178.292 330.495 178.292 329.795V327.66C177.849 329.06 177.044 330.192 175.877 331.055C174.71 331.918 173.1 332.35 171.047 332.35C168.76 332.35 167.185 331.813 166.322 330.74C165.482 329.667 165.062 328.477 165.062 327.17ZM168.632 326.68C168.632 327.567 168.9 328.243 169.437 328.71C169.997 329.177 170.755 329.41 171.712 329.41C172.879 329.41 173.917 329.165 174.827 328.675C175.737 328.185 176.437 327.508 176.927 326.645C177.44 325.782 177.697 324.802 177.697 323.705L171.747 324.37C170.674 324.487 169.88 324.72 169.367 325.07C168.877 325.397 168.632 325.933 168.632 326.68ZM186.953 314.535H190.558V319.19C191.025 317.627 191.865 316.402 193.078 315.515C194.315 314.628 195.867 314.185 197.733 314.185C199.787 314.185 201.385 314.838 202.528 316.145C203.695 317.452 204.278 319.318 204.278 321.745V332H200.638V322.165C200.638 320.438 200.312 319.202 199.658 318.455C199.005 317.685 197.943 317.3 196.473 317.3C194.63 317.3 193.183 317.965 192.133 319.295C191.083 320.602 190.558 322.433 190.558 324.79V332H186.953V314.535ZM216.078 332.35C214.398 332.35 212.94 331.965 211.703 331.195C210.49 330.402 209.557 329.317 208.903 327.94C208.25 326.563 207.923 325 207.923 323.25C207.923 321.5 208.25 319.948 208.903 318.595C209.557 317.218 210.49 316.145 211.703 315.375C212.94 314.582 214.398 314.185 216.078 314.185C217.898 314.185 219.415 314.593 220.628 315.41C221.865 316.203 222.787 317.265 223.393 318.595V314.535H226.998V336.62C226.998 338.16 226.147 338.93 224.443 338.93H210.863V335.815H223.393V327.94C222.763 329.317 221.83 330.402 220.593 331.195C219.38 331.965 217.875 332.35 216.078 332.35ZM211.528 323.25C211.528 325.21 212.053 326.703 213.103 327.73C214.153 328.733 215.553 329.235 217.303 329.235C219.053 329.235 220.488 328.722 221.608 327.695C222.752 326.668 223.323 325.187 223.323 323.25C223.323 321.36 222.752 319.902 221.608 318.875C220.488 317.825 219.053 317.3 217.303 317.3C215.553 317.3 214.153 317.802 213.103 318.805C212.053 319.808 211.528 321.29 211.528 323.25ZM237.65 332.35C235.597 332.35 233.987 331.697 232.82 330.39C231.677 329.083 231.105 327.217 231.105 324.79V314.535H234.745V324.37C234.745 326.12 235.072 327.368 235.725 328.115C236.379 328.862 237.44 329.235 238.91 329.235C240.754 329.235 242.2 328.582 243.25 327.275C244.3 325.945 244.825 324.102 244.825 321.745V314.535H248.43V332H244.825V327.38C244.335 328.92 243.484 330.133 242.27 331.02C241.057 331.907 239.517 332.35 237.65 332.35ZM252.357 327.17C252.357 325.7 252.835 324.533 253.792 323.67C254.749 322.783 256.289 322.235 258.412 322.025L264.992 321.395C264.922 319.902 264.537 318.817 263.837 318.14C263.137 317.44 262.029 317.09 260.512 317.09C259.275 317.09 258.284 317.393 257.537 318C256.79 318.607 256.359 319.552 256.242 320.835H252.742C252.929 318.782 253.71 317.16 255.087 315.97C256.487 314.78 258.33 314.185 260.617 314.185C263.137 314.185 265.097 314.885 266.497 316.285C267.897 317.662 268.597 319.575 268.597 322.025V328.885H271.152V332H267.827C267.127 332 266.579 331.813 266.182 331.44C265.785 331.043 265.587 330.495 265.587 329.795V327.66C265.144 329.06 264.339 330.192 263.172 331.055C262.005 331.918 260.395 332.35 258.342 332.35C256.055 332.35 254.48 331.813 253.617 330.74C252.777 329.667 252.357 328.477 252.357 327.17ZM255.927 326.68C255.927 327.567 256.195 328.243 256.732 328.71C257.292 329.177 258.05 329.41 259.007 329.41C260.174 329.41 261.212 329.165 262.122 328.675C263.032 328.185 263.732 327.508 264.222 326.645C264.735 325.782 264.992 324.802 264.992 323.705L259.042 324.37C257.969 324.487 257.175 324.72 256.662 325.07C256.172 325.397 255.927 325.933 255.927 326.68ZM281.567 332.35C279.887 332.35 278.428 331.965 277.192 331.195C275.978 330.402 275.045 329.317 274.392 327.94C273.738 326.563 273.412 325 273.412 323.25C273.412 321.5 273.738 319.948 274.392 318.595C275.045 317.218 275.978 316.145 277.192 315.375C278.428 314.582 279.887 314.185 281.567 314.185C283.387 314.185 284.903 314.593 286.117 315.41C287.353 316.203 288.275 317.265 288.882 318.595V314.535H292.487V336.62C292.487 338.16 291.635 338.93 289.932 338.93H276.352V335.815H288.882V327.94C288.252 329.317 287.318 330.402 286.082 331.195C284.868 331.965 283.363 332.35 281.567 332.35ZM277.017 323.25C277.017 325.21 277.542 326.703 278.592 327.73C279.642 328.733 281.042 329.235 282.792 329.235C284.542 329.235 285.977 328.722 287.097 327.695C288.24 326.668 288.812 325.187 288.812 323.25C288.812 321.36 288.24 319.902 287.097 318.875C285.977 317.825 284.542 317.3 282.792 317.3C281.042 317.3 279.642 317.802 278.592 318.805C277.542 319.808 277.017 321.29 277.017 323.25ZM296.413 323.075C296.413 321.232 296.763 319.645 297.463 318.315C298.186 316.962 299.19 315.935 300.473 315.235C301.756 314.535 303.25 314.185 304.953 314.185C307.636 314.185 309.76 314.943 311.323 316.46C312.886 317.977 313.668 320.077 313.668 322.76V323.985H299.983C300.053 325.642 300.52 326.972 301.383 327.975C302.27 328.978 303.518 329.48 305.128 329.48C306.505 329.48 307.613 329.165 308.453 328.535C309.316 327.905 309.888 327.018 310.168 325.875H313.738C313.365 327.742 312.466 329.293 311.043 330.53C309.643 331.743 307.695 332.35 305.198 332.35C303.331 332.35 301.733 331.953 300.403 331.16C299.096 330.343 298.105 329.235 297.428 327.835C296.751 326.435 296.413 324.848 296.413 323.075ZM310.133 321.64C310.04 320.17 309.526 319.027 308.593 318.21C307.683 317.393 306.481 316.985 304.988 316.985C303.588 316.985 302.433 317.393 301.523 318.21C300.613 319.027 300.1 320.17 299.983 321.64H310.133ZM138.249 346.325H146.999C149.216 346.325 151.024 346.5 152.424 346.85C153.824 347.2 154.886 347.818 155.609 348.705C156.332 349.568 156.694 350.782 156.694 352.345C156.694 353.932 156.262 355.203 155.399 356.16C154.559 357.117 153.521 357.723 152.284 357.98C154.221 358.167 155.737 358.808 156.834 359.905C157.954 360.978 158.514 362.483 158.514 364.42C158.514 366.87 157.639 368.585 155.889 369.565C154.139 370.522 151.596 371 148.259 371H138.249V346.325ZM148.399 367.85C149.869 367.85 151.047 367.757 151.934 367.57C152.844 367.36 153.532 366.963 153.999 366.38C154.489 365.773 154.734 364.898 154.734 363.755C154.734 362.145 154.209 361.06 153.159 360.5C152.132 359.917 150.546 359.625 148.399 359.625H141.994V367.85H148.399ZM147.244 356.685C148.551 356.685 149.612 356.603 150.429 356.44C151.246 356.253 151.876 355.903 152.319 355.39C152.786 354.853 153.019 354.072 153.019 353.045C153.019 351.925 152.797 351.108 152.354 350.595C151.911 350.058 151.304 349.72 150.534 349.58C149.764 349.44 148.667 349.37 147.244 349.37H141.994V356.685H147.244ZM161.883 366.17C161.883 364.7 162.362 363.533 163.318 362.67C164.275 361.783 165.815 361.235 167.938 361.025L174.518 360.395C174.448 358.902 174.063 357.817 173.363 357.14C172.663 356.44 171.555 356.09 170.038 356.09C168.802 356.09 167.81 356.393 167.063 357C166.317 357.607 165.885 358.552 165.768 359.835H162.268C162.455 357.782 163.237 356.16 164.613 354.97C166.013 353.78 167.857 353.185 170.143 353.185C172.663 353.185 174.623 353.885 176.023 355.285C177.423 356.662 178.123 358.575 178.123 361.025V367.885H180.678V371H177.353C176.653 371 176.105 370.813 175.708 370.44C175.312 370.043 175.113 369.495 175.113 368.795V366.66C174.67 368.06 173.865 369.192 172.698 370.055C171.532 370.918 169.922 371.35 167.868 371.35C165.582 371.35 164.007 370.813 163.143 369.74C162.303 368.667 161.883 367.477 161.883 366.17ZM165.453 365.68C165.453 366.567 165.722 367.243 166.258 367.71C166.818 368.177 167.577 368.41 168.533 368.41C169.7 368.41 170.738 368.165 171.648 367.675C172.558 367.185 173.258 366.508 173.748 365.645C174.262 364.782 174.518 363.802 174.518 362.705L168.568 363.37C167.495 363.487 166.702 363.72 166.188 364.07C165.698 364.397 165.453 364.933 165.453 365.68ZM183.81 356.055C183.81 354.375 184.673 353.535 186.4 353.535H196.585V356.65H187.415V371H183.81V356.055ZM199.43 356.055C199.43 354.375 200.293 353.535 202.02 353.535H212.205V356.65H203.035V371H199.43V356.055ZM213.976 367.885H218.841V356.65H215.096V353.535H219.996C221.442 353.535 222.166 354.27 222.166 355.74V367.885H227.031V371H213.976V367.885ZM220.101 350.84C219.331 350.84 218.701 350.618 218.211 350.175C217.721 349.708 217.476 349.102 217.476 348.355C217.476 347.632 217.721 347.048 218.211 346.605C218.701 346.138 219.331 345.905 220.101 345.905C220.894 345.905 221.547 346.138 222.061 346.605C222.574 347.048 222.831 347.632 222.831 348.355C222.831 349.102 222.574 349.708 222.061 350.175C221.547 350.618 220.894 350.84 220.101 350.84ZM228.805 362.075C228.805 360.232 229.155 358.645 229.855 357.315C230.579 355.962 231.582 354.935 232.865 354.235C234.149 353.535 235.642 353.185 237.345 353.185C240.029 353.185 242.152 353.943 243.715 355.46C245.279 356.977 246.06 359.077 246.06 361.76V362.985H232.375C232.445 364.642 232.912 365.972 233.775 366.975C234.662 367.978 235.91 368.48 237.52 368.48C238.897 368.48 240.005 368.165 240.845 367.535C241.709 366.905 242.28 366.018 242.56 364.875H246.13C245.757 366.742 244.859 368.293 243.435 369.53C242.035 370.743 240.087 371.35 237.59 371.35C235.724 371.35 234.125 370.953 232.795 370.16C231.489 369.343 230.497 368.235 229.82 366.835C229.144 365.435 228.805 363.848 228.805 362.075ZM242.525 360.64C242.432 359.17 241.919 358.027 240.985 357.21C240.075 356.393 238.874 355.985 237.38 355.985C235.98 355.985 234.825 356.393 233.915 357.21C233.005 358.027 232.492 359.17 232.375 360.64H242.525ZM250.084 356.055C250.084 354.375 250.947 353.535 252.674 353.535H262.859V356.65H253.689V371H250.084V356.055ZM272.919 371.35C270.236 371.35 268.159 370.767 266.689 369.6C265.242 368.433 264.519 366.765 264.519 364.595H268.124C268.124 365.925 268.532 366.928 269.349 367.605C270.189 368.258 271.391 368.585 272.954 368.585C274.144 368.585 275.019 368.398 275.579 368.025C276.139 367.652 276.419 367.068 276.419 366.275C276.419 365.738 276.232 365.307 275.859 364.98C275.509 364.63 274.926 364.327 274.109 364.07L269.279 362.705C268.089 362.378 267.097 361.842 266.304 361.095C265.534 360.348 265.149 359.333 265.149 358.05C265.149 356.51 265.756 355.32 266.969 354.48C268.206 353.617 269.909 353.185 272.079 353.185C274.436 353.185 276.279 353.71 277.609 354.76C278.962 355.787 279.639 357.257 279.639 359.17H276.034C276.034 358.167 275.696 357.385 275.019 356.825C274.342 356.242 273.374 355.95 272.114 355.95C271.087 355.95 270.271 356.148 269.664 356.545C269.081 356.918 268.789 357.397 268.789 357.98C268.789 358.517 268.976 358.96 269.349 359.31C269.722 359.66 270.306 359.952 271.099 360.185L275.194 361.305C276.781 361.725 277.982 362.332 278.799 363.125C279.639 363.918 280.059 364.992 280.059 366.345C280.059 367.955 279.452 369.192 278.239 370.055C277.026 370.918 275.252 371.35 272.919 371.35Z" fill="#E8E0CD"/>
<path d="M271.891 113.317L258.382 108.57H257.287L258.382 111.856L259.842 118.428L261.668 126.095L258.382 137.413L253.271 146.906L247.429 154.573L240.857 161.144L225.888 167.716L214.57 170.272L216.761 172.828L221.507 176.113L230.635 179.764L237.206 180.495H249.985L257.652 177.209L264.589 181.59L274.081 184.146L288.685 187.066H297.813L288.685 181.59L280.288 173.193L277.732 168.081L281.748 165.16L291.971 156.398L295.257 138.508L291.971 129.381C290.632 127.555 287.59 123.466 286.129 121.714C284.669 119.961 276.028 115.385 271.891 113.317Z" fill="#E8E0CD"/>
<path d="M216.029 83.7426L202.886 80.8219L181.71 79.7266L167.471 81.9171L155.058 84.8379L140.089 91.7748L130.231 99.0767L122.199 108.569L118.183 118.792L116.723 124.999V131.936L118.913 138.142L122.564 145.809L127.31 152.746L134.978 158.588L143.74 164.064L159.074 167.35L167.106 167.715L171.487 168.445V173.192L169.297 180.859L164.55 188.891L160.899 192.907L168.567 188.891L176.964 183.414L186.091 176.477L194.854 166.255L196.314 164.064L210.188 161.874L223.696 157.492L237.935 150.19L244.507 141.793L248.888 128.285V116.967L245.237 104.918L237.205 95.0607L226.982 88.1238L216.029 83.7426Z" fill="#E8E0CD"/>
<path d="M233.253 153.841C233.818 153.469 234.397 153.111 234.962 152.739C235.513 152.34 236.064 151.927 236.629 151.527C237.194 151.142 237.718 150.66 238.255 150.205C238.517 149.971 238.793 149.751 239.054 149.517L239.799 148.773C243.781 144.752 246.688 139.533 248.424 133.832C249.292 130.981 249.857 127.993 250.064 124.936C250.105 124.165 250.161 123.407 250.147 122.622V121.466L250.064 120.295C250.037 119.51 249.913 118.753 249.802 117.982C249.692 117.211 249.609 116.439 249.416 115.668C248.259 109.499 245.352 103.523 241.094 98.5926C236.85 93.6214 231.31 89.7656 225.316 86.86C219.309 83.9406 212.819 81.9576 206.149 80.7045C199.48 79.4238 192.632 78.873 185.756 79.0245C178.88 79.1759 172.046 80.071 165.28 81.4068L162.758 81.9714C161.918 82.1504 161.077 82.357 160.25 82.5911L157.756 83.2521L155.29 84.0232L154.05 84.4088L152.837 84.8495L150.398 85.7308L148.014 86.7361L146.816 87.2318L145.644 87.7964L143.316 88.9256L141.056 90.1787C139.526 90.9774 138.121 91.9965 136.674 92.9053C133.877 94.9159 131.162 97.0503 128.82 99.5428C124.052 104.445 120.221 110.243 117.989 116.632C115.743 122.981 115.316 129.99 117.135 136.366C118.003 139.547 119.436 142.535 121.076 145.289C122.729 148.029 124.576 150.646 126.698 153.001C128.82 155.355 131.204 157.435 133.78 159.142C136.357 160.877 139.072 162.282 141.814 163.48C143.178 164.086 144.57 164.637 145.934 165.16C147.284 165.697 148.758 166.193 150.178 166.496C153.044 167.157 155.869 167.57 158.666 167.914C161.463 168.259 164.219 168.52 166.933 168.658C167.733 168.685 168.504 168.713 169.276 168.754C169.992 168.768 170.585 168.768 170.998 168.754C170.984 169.388 170.957 170.021 170.888 170.641C170.433 176.507 168.339 182.208 164.922 187.001C164.081 188.212 163.144 189.342 162.166 190.443C161.656 190.966 161.174 191.531 160.636 192.041L159.837 192.812L159.644 193.005C158.9 191.958 160.664 194.45 160.485 194.189H160.498L160.526 194.161L160.581 194.134L160.636 194.106C160.829 194.368 160.898 194.464 160.636 194.106L160.705 194.065L161.201 193.789C163.847 192.357 166.479 190.884 169.069 189.328C174.292 186.202 179.39 182.8 184.116 178.903C186.459 176.934 188.732 174.869 190.813 172.596L192.646 170.462C192.646 170.462 192.811 170.255 193.018 169.925C193.224 169.594 193.514 169.167 193.789 168.741C194.368 167.901 194.795 167.005 194.754 167.074C195.498 165.573 195.76 164.554 194.106 166.592C193.624 167.198 192.99 167.887 192.494 168.438C191.998 168.988 191.654 169.402 191.654 169.402L190.358 170.93C188.319 173.244 186.059 175.392 183.689 177.402C178.908 181.382 173.713 184.88 168.353 188.088C166.906 188.956 165.431 189.81 163.957 190.636C164.729 189.741 165.473 188.818 166.148 187.841C169.703 182.856 171.894 176.865 172.376 170.765C172.459 169.952 172.486 169.126 172.5 168.314C172.5 168.286 172.459 168.217 172.445 168.203C172.321 168.038 172.183 167.928 172.073 167.873C172.004 167.625 171.797 167.432 171.632 167.336C171.591 167.308 171.577 167.308 171.536 167.308C171.494 167.308 170.64 167.35 169.372 167.308C168.945 167.308 168.518 167.281 168.077 167.267C165.431 167.157 162.744 166.923 160.016 166.62C157.288 166.303 154.518 165.918 151.762 165.353C150.384 165.064 149.006 164.747 147.725 164.265C146.375 163.769 145.024 163.246 143.688 162.695C141.014 161.566 138.369 160.299 135.875 158.743C133.381 157.187 131.024 155.328 128.916 153.18C126.808 151.031 124.934 148.608 123.267 146.019C121.586 143.416 120.125 140.69 119.119 137.743C117.052 131.876 116.956 125.294 118.733 119.139C120.497 112.969 123.914 107.241 128.227 102.311C132.568 97.3808 137.997 93.4148 143.867 90.2889C149.792 87.2593 156.158 85.0147 162.676 83.4862C165.927 82.7012 169.248 82.1229 172.555 81.6134C175.876 81.1589 179.211 80.7871 182.532 80.5943C189.187 80.2087 195.856 80.553 202.374 81.517C208.891 82.4671 215.244 84.1609 221.196 86.5846C227.135 89.022 232.661 92.3407 237.18 96.5821C241.741 100.796 245.076 106.098 246.922 111.744C247.873 114.567 248.355 117.5 248.617 120.378C248.824 123.256 248.617 126.148 248.107 128.943C247.088 134.52 244.938 139.753 241.865 144.077C240.322 146.239 238.558 148.195 236.547 149.765C234.521 151.334 232.413 152.753 230.222 153.937C225.868 156.347 221.348 158.027 217.007 159.39C212.653 160.74 208.423 161.676 204.413 162.406C203.187 162.613 202.126 162.792 201.244 162.943C200.886 162.998 200.679 163.039 200.679 163.039C200.679 163.039 199.687 163.246 198.709 163.453C197.73 163.659 196.779 163.838 196.862 163.838C195.264 164.196 194.244 164.651 196.903 164.637C198.474 164.678 200.707 164.499 200.707 164.499C200.707 164.499 200.913 164.472 201.285 164.403C201.464 164.375 201.699 164.334 201.947 164.293C202.071 164.279 202.181 164.251 202.305 164.238C203.366 164.086 204.441 163.866 205.529 163.673C207.706 163.26 209.939 162.778 212.212 162.213C216.759 161.057 221.5 159.624 226.212 157.504C228.582 156.485 230.925 155.245 233.226 153.841H233.253Z" fill="#202020"/>
<path d="M299.836 187.967L299.615 187.816L298.747 187.21L297.025 185.998L294.765 184.428C293.594 183.63 292.436 182.831 291.293 182.005C289.005 180.38 286.773 178.672 284.761 176.758C282.749 174.858 280.917 172.751 279.566 170.368L279.001 169.349L278.519 168.289C278.519 168.289 278.436 168.22 278.423 168.206C278.271 168.138 278.147 168.096 278.037 168.082C278.271 168.055 278.712 167.917 279.442 167.614C280.186 167.339 281.027 166.898 281.716 166.581C282.377 166.21 282.873 165.934 282.873 165.934L283.48 165.535L284.486 164.805C286.015 163.69 287.462 162.464 288.785 161.073C289.46 160.412 290.052 159.655 290.672 158.925C291.224 158.154 291.83 157.396 292.298 156.556C292.822 155.758 293.235 154.89 293.663 154.036C294.021 153.141 294.434 152.274 294.682 151.351C295.302 149.533 295.592 147.633 295.785 145.746C296.06 141.959 295.812 138.145 294.806 134.441C294.296 132.609 293.594 130.819 292.712 129.125C291.83 127.431 290.741 125.848 289.543 124.374C288.344 122.901 287.021 121.524 285.629 120.271C284.238 119.004 282.777 117.792 281.192 116.732C278.051 114.597 274.647 112.945 271.175 111.54C269.439 110.838 267.675 110.204 265.883 109.626C264.988 109.337 264.106 109.061 263.196 108.786C262.273 108.524 261.364 108.304 260.454 108.097C259.655 107.918 258.87 107.739 258.057 107.602C258.015 107.602 257.947 107.629 257.933 107.643C257.533 107.877 257.409 108.125 257.409 108.345C257.271 108.194 257.175 108.194 257.161 108.373L257.065 108.276L256.858 108.084L256.83 108.056C256.83 108.056 256.83 108.084 256.83 108.097L256.858 108.18L256.899 108.359L257.078 109.047L257.423 110.438C257.671 111.389 257.864 112.27 258.084 113.192C258.291 114.156 258.47 115.01 258.636 115.933C258.911 117.406 259.159 118.88 259.393 120.367C259.393 120.367 259.228 120.243 259.187 120.229L259.324 120.45L259.435 120.615C259.476 120.877 259.517 121.138 259.559 121.4L259.958 124.03V124.553L259.917 126.068C259.945 126.977 259.752 127.872 259.669 128.767C259.559 129.662 259.476 130.571 259.242 131.439C259.035 132.32 258.87 133.215 258.636 134.083L257.795 136.658L257.588 137.305L257.326 137.925L256.789 139.178L256.252 140.431C256.073 140.844 255.838 141.23 255.632 141.643C255.191 142.441 254.791 143.254 254.336 144.025L252.848 146.311C250.754 149.272 248.439 152.095 245.724 154.532L244.732 155.468C244.388 155.771 244.029 156.047 243.685 156.336L241.577 158.071C240.075 159.118 238.642 160.233 237.098 161.211C236.699 161.473 236.285 161.707 235.872 161.955L235.638 161.734L235.514 161.624C235.514 161.624 235.514 161.693 235.514 161.734L235.569 162.01L235.596 162.12C232.978 163.69 230.223 165.053 227.37 166.127C223.967 167.421 220.425 168.358 216.843 169.019C216.057 169.17 215.272 169.294 214.487 169.418C214.459 169.418 214.39 169.487 214.39 169.501C214.335 169.57 214.28 169.639 214.238 169.694C213.977 169.859 213.908 170.176 213.935 170.423C213.935 170.479 213.935 170.492 213.963 170.52C214.431 171.222 214.955 171.869 215.52 172.489C217.959 175.188 221.101 177.144 224.38 178.534C226.75 179.54 229.23 180.256 231.738 180.752H231.766L232.014 180.917H232.041V180.862L232.014 180.82C232.896 180.999 233.791 181.137 234.687 181.261C238.201 181.757 241.77 181.839 245.297 181.66C247.061 181.55 248.825 181.371 250.588 181.123L251.608 180.972L251.953 180.917L252.641 180.793C252.641 180.793 253.647 180.545 254.612 180.27C255.576 179.994 256.513 179.677 256.431 179.691C257.01 179.471 257.492 179.25 257.74 179.085C257.919 179.154 258.084 179.209 258.263 179.278C258.401 179.347 258.553 179.43 258.732 179.512C260.124 180.242 262.177 181.096 262.177 181.096L263.885 181.66C266.118 182.376 268.364 183.051 270.61 183.671L271.051 184.112L271.354 184.415C271.354 184.415 271.354 184.414 271.354 184.373L271.313 184.263L271.244 184.056L271.175 183.836C271.464 183.919 271.753 184.001 272.043 184.084C274.95 184.855 277.885 185.544 280.848 186.122L281.096 186.315L280.999 186.15C283.576 186.645 286.18 187.072 288.785 187.375C290.204 187.554 291.623 187.678 293.043 187.788L295.316 187.926L299.464 188.064H299.987C299.987 188.064 300.056 188.091 300.029 188.064L299.974 188.022L299.863 187.954L299.836 187.967ZM236.396 180.035C236.354 179.829 236.299 179.609 236.258 179.402C236.423 179.485 236.575 179.595 236.754 179.677L237.374 179.939C237.65 180.035 238.063 180.132 238.407 180.228C237.732 180.187 237.071 180.118 236.396 180.049V180.035ZM234.37 178.314L234.191 178.204C233.929 178.039 233.654 177.887 233.406 177.681C233.364 177.653 233.309 177.612 233.268 177.57C233.35 177.502 233.433 177.433 233.53 177.35C233.764 177.584 234.026 177.818 234.274 178.039L234.37 178.328V178.314ZM280.035 182.611H279.759C279.539 182.514 279.305 182.432 279.084 182.349C278.891 182.28 278.712 182.184 278.533 182.115L277.885 181.096C278.629 181.509 279.332 181.977 279.938 182.528L280.049 182.624L280.035 182.611ZM237.594 177.653H237.388V177.626C237.732 177.336 237.911 177.185 237.47 177.557L237.443 177.488L237.388 177.391L237.264 177.185L237.016 176.786L236.106 175.285C236.644 175.946 237.222 176.593 237.829 177.199C237.829 177.199 237.884 177.254 237.911 177.268C237.911 177.405 237.939 177.529 237.939 177.667L237.594 177.639V177.653ZM288.371 154.353L288.33 154.27C288.33 154.27 288.399 154.229 288.426 154.202C288.413 154.257 288.385 154.298 288.371 154.353ZM267.702 115.823C267.702 115.823 267.661 115.74 267.647 115.685C267.647 115.575 267.647 115.465 267.647 115.368V115.313L267.757 115.437C268.612 116.429 269.439 117.448 270.279 118.453C269.783 117.93 269.259 117.42 268.75 116.911C268.433 116.594 268.102 116.291 267.771 115.974C267.757 115.919 267.73 115.878 267.716 115.823H267.702ZM289.102 135.432C289.322 136.011 289.543 136.589 289.735 137.167C289.763 137.319 289.804 137.484 289.832 137.635C289.928 138.159 290.011 138.668 290.094 139.192C290.025 138.957 289.956 138.71 289.873 138.475L289.432 137.58C289.06 136.451 288.757 135.281 288.509 134.083C288.716 134.523 288.923 134.964 289.115 135.418L289.102 135.432ZM257.147 166.774C257.023 166.747 256.886 166.705 256.762 166.678C256.72 166.609 256.693 166.554 256.651 166.485L256.83 166.182C256.941 166.375 257.051 166.568 257.147 166.76V166.774ZM258.525 169.845C258.291 169.432 258.071 169.019 257.836 168.606C257.919 168.633 257.988 168.675 258.057 168.702C258.222 169.074 258.374 169.46 258.525 169.845ZM239.455 173.246C239.661 173.646 239.84 174.045 240.02 174.458C239.716 174.045 239.427 173.605 239.152 173.164C239.248 173.164 239.331 173.178 239.427 173.191C239.427 173.205 239.455 173.233 239.455 173.246ZM246.22 161.128L246.248 161.101C246.482 161.39 246.592 161.514 246.248 161.101L246.289 161.073L246.331 161.046L246.51 160.894C246.51 160.894 246.565 160.839 246.606 160.825V160.949L246.592 161.39C246.592 161.555 246.606 161.72 246.634 161.872L246.096 161.225C246.096 161.225 246.165 161.17 246.207 161.142L246.22 161.128ZM280.242 158.209C280.366 157.947 280.476 157.672 280.6 157.41C280.765 157.741 280.944 158.071 281.123 158.415C280.917 158.663 280.71 158.925 280.503 159.173L280.255 158.209H280.242ZM284.196 145.925V145.953H284.21V145.925H284.196ZM268.322 126.206C268.253 126.109 268.198 126.027 268.129 125.93C268.129 125.834 268.129 125.724 268.129 125.627L268.309 126.192L268.322 126.206ZM282.722 143.529C282.722 143.529 282.653 143.584 282.612 143.612C282.556 143.653 282.556 143.667 282.543 143.695L282.295 144.576C282.295 144.576 282.226 144.479 282.198 144.438C281.537 142.689 280.903 140.913 280.214 139.136V138.889V138.778C280.2 138.778 280.159 138.82 280.131 138.834L280.104 138.861C279.938 138.448 279.773 138.035 279.608 137.622C279.718 137.801 279.842 137.993 279.966 138.173C280.93 139.715 281.895 141.257 282.86 142.799L282.804 143.047C282.777 143.213 282.736 143.364 282.708 143.529H282.722ZM282.35 153.004L282.432 153.293L282.253 153.072C282.253 153.072 282.295 152.962 282.308 152.907L282.336 153.017L282.35 153.004ZM280.531 153.348C280.531 153.348 280.503 153.444 280.49 153.486C280.434 153.375 280.379 153.279 280.324 153.169C280.324 153.141 280.352 153.127 280.352 153.114C280.407 153.196 280.476 153.279 280.531 153.362V153.348ZM265.208 140.087L265.25 140.238L265.635 141.436C265.429 141.34 265.222 141.257 265.015 141.188C264.96 141.119 264.891 141.064 264.836 141.009C264.96 140.706 265.098 140.403 265.208 140.1V140.087ZM267.454 132.155C267.454 132.155 267.496 132.058 267.509 132.017C267.496 132.072 267.482 132.141 267.468 132.196C267.468 132.196 267.454 132.182 267.441 132.168L267.454 132.155ZM276.783 142.441C276.728 142.524 276.686 142.607 276.631 142.703C276.604 142.538 276.59 142.359 276.59 142.194V142.166C276.659 142.249 276.714 142.345 276.783 142.441ZM269.962 139.357C269.962 139.357 269.99 139.453 270.003 139.494C269.99 139.494 269.976 139.481 269.962 139.467V139.357ZM269.59 138.117L269.507 138.159C269.507 138.159 269.48 138.173 269.466 138.186C269.48 138.131 269.507 138.076 269.521 138.021C269.549 138.049 269.563 138.09 269.59 138.117ZM269.48 143.337C270.582 144.782 271.671 146.228 272.718 147.688C271.698 146.366 270.582 145.072 269.314 143.929C269.37 143.736 269.425 143.529 269.48 143.337ZM273.545 139.384C273.545 139.384 273.545 139.384 273.531 139.371C273.49 139.329 273.462 139.274 273.435 139.233C273.007 138.434 272.553 137.635 272.07 136.851C272.015 136.713 271.946 136.561 271.891 136.424C272.429 137.043 272.98 137.663 273.503 138.296C273.517 138.668 273.531 139.026 273.545 139.398V139.384ZM267 134.551C266.917 135.005 266.848 135.46 266.779 135.914C266.724 135.859 266.669 135.804 266.628 135.749C266.738 135.336 266.862 134.909 266.958 134.496C266.972 134.51 266.986 134.537 267 134.551ZM273.421 135.818C272.663 134.95 271.905 134.096 271.147 133.243C271.133 133.091 271.12 132.94 271.12 132.788C271.12 132.747 271.133 132.719 271.147 132.678C271.933 133.683 272.69 134.716 273.421 135.763C273.421 135.776 273.421 135.804 273.421 135.818ZM269.604 131.149C269.604 131.26 269.604 131.37 269.59 131.48C269.507 131.384 269.439 131.301 269.356 131.205V131.163C269.397 130.998 269.452 130.819 269.507 130.654C269.563 130.709 269.604 130.764 269.659 130.819C269.645 130.929 269.631 131.039 269.618 131.136L269.604 131.149ZM273.834 152.053C273.765 151.902 273.669 151.764 273.6 151.613C273.834 151.957 274.055 152.315 274.275 152.673C274.275 152.769 274.275 152.852 274.261 152.948C274.123 152.646 273.986 152.356 273.848 152.053H273.834ZM262.824 144.094L262.866 144.011L262.907 143.915C262.907 143.915 262.948 144.025 262.976 144.094L262.907 144.135C262.907 144.135 262.852 144.121 262.811 144.108L262.824 144.094ZM279.525 149.382C279.621 148.583 279.718 147.784 279.801 147L279.883 147.137C280.09 147.509 280.269 147.895 280.462 148.266L280.71 148.776C280.503 149.23 280.297 149.685 280.09 150.139C279.897 149.878 279.704 149.63 279.525 149.382ZM283.659 151.076C283.659 151.076 283.741 151.2 283.797 151.255C283.797 151.351 283.824 151.447 283.838 151.544C283.783 151.392 283.728 151.227 283.659 151.076ZM276.645 134.785C276.673 134.95 276.7 135.102 276.728 135.267C275.915 133.849 275.088 132.444 274.248 131.039C275.171 132.168 275.956 133.449 276.631 134.785H276.645ZM262.108 147.716C262.177 147.936 262.246 148.156 262.315 148.363C262.411 148.666 262.535 148.941 262.645 149.23C262.342 148.859 262.039 148.501 261.722 148.142C261.86 148.005 261.984 147.853 262.108 147.716ZM268.474 150.8C268.281 150.511 268.088 150.222 267.895 149.933C267.675 149.588 267.454 149.23 267.248 148.872L267.303 148.624C267.689 148.996 268.061 149.368 268.433 149.767C270.444 151.985 272.153 154.505 273.586 157.162C273.324 156.901 273.076 156.625 272.814 156.35C271.368 154.505 269.935 152.632 268.474 150.786V150.8ZM281.427 155.317C281.495 155.138 281.564 154.959 281.633 154.766L281.895 155.097C282.198 155.482 282.501 155.854 282.804 156.226C282.625 156.474 282.432 156.722 282.24 156.956C281.978 156.405 281.702 155.868 281.427 155.317ZM263.155 160.013C263.21 159.751 263.252 159.49 263.279 159.228C263.403 159.366 263.527 159.517 263.651 159.655C263.541 159.737 263.376 159.848 263.169 160.013H263.155ZM262.246 158.553C262.273 158.443 262.315 158.333 262.356 158.236C262.439 158.333 262.535 158.429 262.618 158.526C262.494 158.498 262.37 158.526 262.259 158.567L262.246 158.553ZM262.397 162.037C262.618 162.34 262.838 162.657 263.059 162.96C262.783 162.753 262.48 162.547 262.163 162.368C262.246 162.257 262.328 162.147 262.397 162.037ZM260.84 156.611C260.95 156.722 261.061 156.832 261.171 156.942C261.13 157.066 261.074 157.176 261.033 157.3C260.923 157.121 260.799 156.956 260.689 156.777C260.744 156.722 260.785 156.667 260.84 156.611ZM279.346 155.854L279.415 155.95L279.456 156.019C279.456 156.019 279.456 156.047 279.442 156.061C279.415 155.992 279.387 155.923 279.346 155.854ZM272.277 127.252L271.712 126.922C271.602 126.743 271.492 126.564 271.381 126.399C271.395 126.371 271.409 126.343 271.437 126.316C271.712 126.633 272.001 126.936 272.277 127.252ZM257.382 154.422C257.533 154.67 257.671 154.918 257.823 155.166C258.084 155.579 258.346 155.992 258.608 156.405H258.594C258.47 156.212 258.346 156.006 258.208 155.799C257.919 155.386 257.616 155 257.299 154.615L257.368 154.436V154.408L257.382 154.422ZM255.094 154.601C255.094 154.601 255.025 154.477 254.984 154.408C255.039 154.463 255.108 154.518 255.163 154.587H255.08L255.094 154.601ZM248.205 162.051C248.177 161.817 248.136 161.569 248.136 161.335V160.991V160.908V160.894C248.136 160.894 248.163 160.922 248.177 160.935C248.48 161.569 248.811 162.189 249.128 162.808C248.894 163.001 248.659 163.18 248.439 163.359C248.329 162.932 248.246 162.492 248.191 162.065L248.205 162.051ZM250.161 158.65V158.471H250.189V158.484L250.299 158.553L250.561 158.691C250.712 158.787 250.864 158.884 251.016 158.98C251.029 159.008 251.043 159.035 251.057 159.076C250.768 159.214 250.437 159.366 250.216 159.476C250.189 159.448 250.175 159.407 250.147 159.379C250.134 159.132 250.12 158.884 250.134 158.65H250.161ZM250.037 166.375C249.831 166.099 249.638 165.81 249.431 165.535C249.72 165.342 249.996 165.149 250.271 164.943C250.354 165.108 250.451 165.273 250.533 165.425C250.533 165.425 250.533 165.438 250.533 165.452C250.588 165.562 250.643 165.673 250.712 165.769C250.492 165.976 250.258 166.168 250.023 166.361L250.037 166.375ZM250.244 159.476C250.244 159.476 250.285 159.462 250.313 159.448V159.503L250.354 159.655V159.682C250.354 159.682 250.271 159.558 250.23 159.49L250.244 159.476ZM247.777 166.623C247.777 166.623 247.86 166.568 247.901 166.54C248.039 166.871 248.191 167.215 248.342 167.532C248.342 167.532 248.329 167.532 248.315 167.545C248.218 167.394 248.136 167.256 248.039 167.105C247.957 166.939 247.86 166.774 247.777 166.609V166.623ZM250.933 167.628C251.084 167.504 251.236 167.38 251.374 167.256C251.622 167.752 251.87 168.248 252.132 168.73C252.269 168.978 252.421 169.225 252.573 169.473C252.559 169.611 252.531 169.749 252.49 169.873L250.933 167.642V167.628ZM253.565 171.222C253.661 171.415 253.758 171.608 253.854 171.801L253.51 171.319C253.51 171.319 253.551 171.263 253.565 171.236V171.222ZM251.002 172.338C251.002 172.338 251.071 172.338 251.112 172.338C251.181 172.434 251.25 172.53 251.319 172.627C251.264 172.627 251.222 172.627 251.167 172.627C251.112 172.53 251.057 172.434 251.002 172.338ZM243.203 165.025L243.244 165.067L243.34 165.191L243.768 165.728C243.947 165.962 244.126 166.196 244.291 166.43L243.864 166.747C243.644 166.251 243.437 165.741 243.244 165.232L243.148 164.97L243.203 165.039V165.025ZM241.77 167.532C241.894 167.683 242.018 167.848 242.142 168.014H242.128C241.99 167.835 241.852 167.656 241.714 167.463C241.728 167.49 241.756 167.504 241.77 167.532ZM242.031 171.869C241.935 171.69 241.839 171.511 241.742 171.332C241.866 171.511 241.99 171.69 242.114 171.869H242.031ZM242.872 173.481L243.299 173.522C243.299 173.522 243.34 173.577 243.354 173.605C243.478 173.756 243.602 173.907 243.726 174.073C243.754 174.142 243.781 174.197 243.809 174.266C243.85 174.389 243.905 174.527 243.947 174.651L243.437 174.706C243.258 174.293 243.065 173.894 242.872 173.494V173.481ZM252.766 157.562C252.642 157.41 252.517 157.259 252.38 157.107C252.531 157.038 252.697 156.97 252.848 156.901C253.11 157.355 253.358 157.823 253.634 158.278C253.592 158.333 253.551 158.402 253.51 158.457C253.51 158.457 253.51 158.471 253.496 158.484C253.248 158.181 253.014 157.865 252.766 157.562ZM256.5 156.598V156.57L256.624 156.309C256.72 156.446 256.83 156.57 256.927 156.708C257.106 156.956 257.244 157.204 257.395 157.465C257.354 157.507 257.313 157.534 257.271 157.575C257.023 157.259 256.775 156.928 256.514 156.611L256.5 156.598ZM259.614 158.016C259.889 158.429 260.151 158.829 260.427 159.242C260.427 159.283 260.399 159.324 260.399 159.366L260.234 160.385C260.193 160.619 260.165 160.867 260.137 161.101L260.11 160.935L259.958 159.82C259.889 159.448 259.738 159.008 259.628 158.594C259.6 158.471 259.531 158.305 259.49 158.181L259.614 158.03V158.016ZM263.996 157.066C263.858 156.901 263.734 156.722 263.596 156.543C264.767 157.782 265.925 159.035 267.055 160.316C267 160.398 266.944 160.481 266.903 160.564C265.925 159.407 264.946 158.25 264.009 157.066H263.996ZM270.816 159.889C269.439 157.961 268.047 156.061 266.82 154.078C266.338 153.307 265.883 152.522 265.456 151.723C265.498 151.654 265.539 151.571 265.58 151.503C265.801 151.916 266.035 152.329 266.283 152.728C267.316 154.436 268.474 156.047 269.755 157.575C270.238 158.14 270.734 158.691 271.244 159.228C271.643 159.93 272.043 160.646 272.401 161.376C272.332 161.528 272.263 161.693 272.194 161.858C271.74 161.197 271.285 160.55 270.816 159.903V159.889ZM258.071 151.613L258.374 152.067C258.374 152.067 258.332 152.04 258.319 152.012L257.96 151.695C257.96 151.695 258.029 151.64 258.071 151.613ZM256.472 152.921C256.72 153.362 256.996 153.802 257.258 154.243L256.982 154.284C256.775 154.064 256.582 153.83 256.376 153.623C256.265 153.513 256.141 153.403 256.017 153.293C256.169 153.169 256.321 153.045 256.472 152.935V152.921ZM243.919 170.534C243.657 170.148 243.382 169.762 243.106 169.377C243.106 169.377 243.134 169.363 243.148 169.349C243.396 169.694 243.63 170.052 243.864 170.41C243.878 170.451 243.905 170.492 243.919 170.534ZM255.742 164.915C255.494 164.461 255.246 164.006 255.012 163.566C255.039 163.524 255.08 163.483 255.108 163.456C255.384 163.855 255.645 164.268 255.907 164.681C255.852 164.764 255.797 164.846 255.756 164.929L255.742 164.915ZM254.529 159.806C254.529 159.806 254.488 159.751 254.474 159.724C254.502 159.696 254.515 159.669 254.543 159.655C254.571 159.682 254.584 159.724 254.612 159.751C254.584 159.765 254.571 159.793 254.543 159.806H254.529ZM255.521 158.333C255.521 158.333 255.521 158.333 255.521 158.319C255.632 158.457 255.742 158.594 255.852 158.718C255.825 158.732 255.811 158.76 255.783 158.773C255.687 158.622 255.59 158.484 255.508 158.333H255.521ZM267.578 161.376C267.606 161.101 267.647 160.949 267.62 160.977C268.708 162.216 269.797 163.469 270.872 164.722C270.927 164.777 270.968 164.846 271.023 164.901C270.996 164.998 270.968 165.094 270.94 165.204C269.797 163.937 268.681 162.657 267.565 161.376H267.578ZM281.606 135.226C282.377 136.341 283.135 137.47 283.879 138.613C283.989 139.288 284.127 139.963 284.279 140.637C283.535 138.765 282.612 136.961 281.606 135.239V135.226ZM269.576 122.226C269.576 122.226 269.521 122.185 269.494 122.157C269.494 122.143 269.494 122.13 269.494 122.102C269.521 122.143 269.549 122.185 269.59 122.226H269.576ZM266.242 118.398L265.746 117.627C265.704 117.461 265.649 117.296 265.608 117.131C265.787 117.365 265.98 117.585 266.173 117.819C266.2 118.012 266.228 118.205 266.255 118.398H266.242ZM246.11 171.195C245.821 170.658 245.518 170.148 245.201 169.652C245.008 169.267 244.829 168.881 244.649 168.509C244.691 168.482 244.732 168.468 244.773 168.44C244.773 168.523 244.774 168.592 244.801 168.675C244.815 168.771 244.856 168.867 244.884 168.964L244.939 169.074L244.966 169.129V169.157H244.98C245.917 169.942 245.242 169.377 245.449 169.556L245.835 169.639C245.835 169.639 245.917 169.639 245.959 169.639C246.482 170.561 247.061 171.456 247.708 172.324L246.606 172.227C246.441 171.869 246.289 171.525 246.096 171.181L246.11 171.195ZM260.923 172.751C260.868 172.42 260.785 172.09 260.702 171.773C260.937 172.131 261.171 172.489 261.419 172.847C261.254 172.82 261.088 172.778 260.923 172.751ZM286.373 142.524C286.415 142.593 286.456 142.662 286.511 142.744C286.635 143.061 286.745 143.392 286.869 143.708C286.897 143.832 286.911 143.97 286.924 144.094C286.759 143.695 286.608 143.281 286.47 142.855C286.428 142.744 286.401 142.634 286.373 142.524ZM288.909 148.101C288.909 148.101 288.867 148.115 288.84 148.129C288.84 148.074 288.84 148.032 288.84 147.977L288.881 148.06L288.909 148.101ZM286.938 137.443L288.11 139.315L288.178 139.426C288.178 139.426 288.289 139.384 288.344 139.357C288.426 139.563 288.523 139.77 288.606 139.976C288.757 140.555 288.867 141.133 288.936 141.712C288.964 142.138 288.978 142.565 288.964 142.992C288.964 143.061 288.95 143.144 288.936 143.213C288.84 143.047 288.757 142.868 288.661 142.703C288.44 142.18 288.206 141.67 287.972 141.161C287.93 141.078 287.889 141.009 287.862 140.927C287.531 139.605 287.131 138.31 286.676 137.043C286.759 137.181 286.856 137.305 286.938 137.443ZM280.131 128.974C280.021 128.822 279.925 128.671 279.814 128.519C279.842 128.505 279.869 128.478 279.911 128.45L280.049 128.808C280.076 128.864 280.09 128.919 280.118 128.974H280.131ZM259.793 143.089C259.793 143.089 259.765 143.116 259.738 143.13C259.738 143.116 259.738 143.089 259.752 143.075C259.752 143.075 259.765 143.075 259.779 143.075L259.793 143.089ZM247.474 174.21L247.295 173.839L249.114 173.99C249.114 173.99 249.128 174.004 249.142 174.018L247.488 174.21H247.474ZM262.259 175.959C262.135 175.877 262.025 175.794 261.901 175.711C261.97 175.643 262.025 175.587 262.039 175.546C262.08 175.422 261.929 175.408 261.571 175.464L261.281 174.926C261.226 174.83 261.185 174.747 261.13 174.651C261.13 174.555 261.13 174.458 261.13 174.376C261.681 174.486 262.232 174.61 262.769 174.775C263.169 175.34 263.569 175.918 263.996 176.483C264.092 176.607 264.175 176.73 264.271 176.841C263.706 176.675 263.128 176.441 262.576 176.152C262.466 176.097 262.37 176.028 262.259 175.973V175.959ZM265.25 175.574C265.25 175.574 265.374 175.629 265.443 175.656C265.47 175.725 265.498 175.78 265.511 175.849C265.539 175.904 265.553 175.959 265.567 176.014C265.456 175.877 265.346 175.725 265.236 175.587L265.25 175.574ZM263.541 172.641C263.803 172.957 264.065 173.274 264.313 173.605C264.12 173.536 263.913 173.481 263.72 173.425C263.486 173.095 263.238 172.764 263.004 172.434C262.797 172.131 262.59 171.814 262.383 171.498C262.783 171.869 263.183 172.241 263.541 172.641ZM256.197 162.147C256.197 162.147 256.21 162.12 256.224 162.106C256.486 162.478 256.762 162.836 257.037 163.208C257.023 163.221 256.996 163.249 256.982 163.263C256.72 162.891 256.458 162.519 256.197 162.147ZM288.854 148.142C288.95 148.101 289.074 148.06 289.198 148.005C289.184 148.294 289.171 148.583 289.157 148.872L288.991 148.597C288.95 148.514 288.895 148.445 288.854 148.363C288.854 148.28 288.854 148.211 288.854 148.129V148.142ZM286.167 129.965C286.167 129.965 286.167 130.02 286.167 130.048L285.657 129.772L285.588 129.745C284.61 128.12 283.549 126.55 282.446 125.035C282.364 124.911 282.267 124.801 282.171 124.677C283.631 126.33 284.968 128.106 286.153 129.965H286.167ZM279.828 128.519C277.61 125.352 275.281 122.267 272.856 119.252C274.137 120.532 275.377 121.868 276.576 123.231C277.94 124.801 279.222 126.44 280.476 128.092C280.228 128.244 279.98 128.409 279.828 128.505V128.519ZM259.683 143.35L259.793 143.502C259.752 143.708 259.71 143.901 259.683 144.066C259.448 144.521 259.228 144.975 258.994 145.43L259.2 144.824C259.366 144.328 259.517 143.846 259.669 143.35H259.683ZM248.301 175.918C248.26 175.849 248.232 175.767 248.191 175.698L250.12 175.477C250.147 175.698 250.161 175.918 250.161 176.125C249.541 176.069 248.921 176.001 248.301 175.918ZM260.261 168.096C260.261 168.096 260.124 168.027 260.069 167.986C259.338 166.857 258.608 165.741 257.864 164.612C257.905 164.571 257.947 164.516 257.988 164.461C258.277 164.833 258.567 165.218 258.856 165.59C259.669 166.637 260.482 167.669 261.281 168.702C260.95 168.482 260.606 168.275 260.261 168.069V168.096ZM257.244 160.908L257.423 160.688C257.74 161.073 258.057 161.459 258.387 161.831C258.098 162.134 258.305 161.955 258.415 161.858C258.415 161.858 258.415 161.858 258.415 161.872C258.415 161.886 258.387 161.899 258.36 161.927L258.415 161.996L258.525 162.12C258.429 162.175 258.319 162.23 258.222 162.285C257.878 161.831 257.547 161.376 257.202 160.908H257.244ZM278.574 161.417C278.574 161.417 278.616 161.473 278.643 161.486C278.56 161.61 278.478 161.72 278.395 161.844V161.872L278.354 161.817C278.423 161.679 278.505 161.555 278.574 161.431V161.417ZM275.584 118.838C275.584 118.838 275.694 118.907 275.749 118.949L276.025 119.293L276.783 120.243L278.285 122.13C280.035 124.347 281.743 126.591 283.273 128.932L282.97 128.836C281.633 127.004 280.255 125.214 278.795 123.479C276.783 121.069 274.647 118.756 272.332 116.608C273.435 117.31 274.523 118.054 275.584 118.825C275.501 118.921 275.543 118.894 275.598 118.825L275.584 118.838ZM267.399 178.273V178.231L267.427 178.3L267.399 178.273ZM268.433 175.326C268.074 175.133 267.716 174.968 267.358 174.803C267.206 174.555 267.055 174.307 266.917 174.059C266.586 173.494 266.228 172.957 265.87 172.406C265.511 171.856 265.153 171.319 264.767 170.795C263.265 168.675 261.667 166.65 260.096 164.64C259.807 164.268 259.517 163.882 259.228 163.511C259.38 163.442 259.545 163.387 259.697 163.359C260.868 164.97 262.039 166.609 263.21 168.234C264.85 170.479 266.531 172.723 268.322 174.885C268.529 175.119 268.736 175.367 268.942 175.601C268.777 175.505 268.612 175.408 268.446 175.326H268.433ZM263.734 112.697C263.555 112.876 263.403 113.027 263.279 113.151C263.252 113.11 263.238 113.069 263.21 113.013L263.045 112.71C262.962 112.559 262.852 112.408 262.769 112.256C263.086 112.408 263.417 112.559 263.748 112.697H263.734ZM261.984 118.728C262.067 119.128 262.135 119.541 262.177 119.954C262.135 120.312 262.094 120.656 262.039 121.014C261.901 120.243 261.777 119.472 261.653 118.687L261.529 117.861L261.984 118.715V118.728ZM231.49 170.41C231.49 170.41 231.463 170.368 231.449 170.355C231.449 170.355 231.449 170.355 231.463 170.355C231.463 170.368 231.476 170.396 231.49 170.41ZM273.407 177.268L273.738 177.763C273.366 177.639 272.994 177.529 272.622 177.419C272.484 177.281 272.346 177.13 272.222 176.992C271.629 176.386 271.078 175.753 270.513 175.119C270.651 174.995 270.761 174.885 270.858 174.789C271.437 175.298 272.043 175.78 272.663 176.248C272.911 176.593 273.159 176.937 273.393 177.281L273.407 177.268ZM275.515 174.376C275.515 174.376 275.612 174.279 275.653 174.238C275.86 174.486 276.08 174.734 276.287 174.982C276.025 174.789 275.763 174.582 275.515 174.376ZM288.358 154.202C288.358 154.202 288.289 154.243 288.261 154.27L288.151 154.064C288.316 153.472 288.454 152.88 288.564 152.274C288.606 152.012 288.633 151.75 288.661 151.503C288.716 151.585 288.785 151.668 288.84 151.75L289.088 152.067C288.978 152.466 288.867 152.852 288.73 153.238C288.619 153.568 288.482 153.885 288.358 154.202ZM248.604 156.391C248.439 156.488 248.273 156.584 248.108 156.68L248.067 156.625C248.149 156.515 248.218 156.391 248.287 156.281C248.59 156.019 248.894 155.758 249.197 155.496C249.004 155.799 248.811 156.088 248.604 156.391ZM245.228 157.823C244.787 158.36 244.333 158.884 243.864 159.407L243.464 159.655L243.272 159.779L243.216 159.806C243.216 159.806 243.148 159.696 243.12 159.655L243.051 159.531C243.134 159.448 243.23 159.366 243.313 159.283C243.905 158.76 244.512 158.236 245.118 157.741C245.146 157.768 245.187 157.81 245.214 157.837L245.228 157.823ZM276.246 178.658C276.246 178.658 276.218 178.617 276.204 178.603C276.273 178.645 276.342 178.686 276.411 178.727C276.356 178.7 276.301 178.686 276.246 178.658ZM282.804 178.562C282.074 177.681 281.344 176.813 280.6 175.959C280.476 175.808 280.338 175.67 280.214 175.532C281.096 176.51 281.978 177.474 282.887 178.424C282.86 178.466 282.832 178.521 282.791 178.576L282.804 178.562ZM274.564 169.212C274.564 169.212 274.62 169.184 274.661 169.17C275.584 170.244 276.507 171.319 277.431 172.393C276.48 171.332 275.529 170.272 274.564 169.225V169.212ZM287.517 155.84C287.6 155.634 287.696 155.427 287.765 155.221C287.82 155.083 287.875 154.931 287.917 154.78C288.027 154.697 288.137 154.628 288.206 154.573C288.096 154.849 287.972 155.138 287.848 155.413C287.737 155.565 287.613 155.689 287.503 155.84H287.517ZM260.482 116.277C260.441 115.96 260.358 115.657 260.289 115.354C260.551 115.63 260.813 115.905 261.033 116.208L261.378 116.704L261.157 116.58L260.868 116.415C260.868 116.415 260.758 116.346 260.73 116.346L260.799 116.484L260.937 116.732C260.813 116.732 260.689 116.759 260.565 116.773L260.468 116.263L260.482 116.277ZM224.614 170.658C224.614 170.658 224.669 170.754 224.697 170.795C224.683 170.795 224.656 170.795 224.642 170.795C224.504 170.671 224.366 170.534 224.242 170.41C224.187 170.355 224.132 170.286 224.077 170.231C224.118 170.203 224.187 170.148 224.297 170.065L224.339 170.148L224.435 170.327C224.504 170.437 224.559 170.561 224.628 170.671L224.614 170.658ZM237.319 177.626C237.319 177.626 237.319 177.626 237.319 177.653H237.305C237.305 177.653 237.319 177.639 237.333 177.626H237.319ZM269.452 179.278C269.907 179.553 270.362 179.843 270.83 180.104C270.555 180.049 270.265 180.008 269.99 179.939C269.879 179.911 269.769 179.87 269.673 179.829L269.452 179.278ZM280.338 164.447C280.462 164.392 280.586 164.351 280.71 164.282C280.545 164.392 280.366 164.502 280.186 164.612C280.242 164.557 280.283 164.502 280.338 164.447ZM259.862 113.385L260.193 113.95C260.11 114.06 260.041 114.156 259.958 114.253L259.876 113.964L259.683 113.275C259.683 113.275 259.655 113.192 259.614 113.069L259.655 113.124C259.724 113.206 259.807 113.289 259.848 113.385H259.862ZM252.338 150.607C252.338 150.607 252.338 150.594 252.325 150.58C252.352 150.552 252.38 150.525 252.407 150.497C252.38 150.539 252.366 150.566 252.338 150.607ZM235.955 164.516C235.955 164.516 235.982 164.612 235.982 164.667C235.72 164.833 235.445 164.984 235.183 165.149L235.156 165.122C236.272 164.351 233.626 166.155 233.902 165.976C233.654 166.155 233.392 166.306 233.144 166.485C233.089 166.526 233.047 166.568 232.992 166.595L232.854 166.458C232.854 166.458 232.896 166.444 232.909 166.43C233.957 165.865 234.976 165.218 235.941 164.516H235.955ZM231.228 167.27C231.27 167.38 231.311 167.477 231.352 167.587C230.76 167.835 230.167 168.055 229.575 168.289C229.561 168.275 229.547 168.261 229.534 168.248C229.602 168.206 229.63 168.179 229.534 168.248C229.492 168.206 229.437 168.151 229.396 168.096L229.368 168.069C230.002 167.821 230.622 167.545 231.242 167.27H231.228ZM228.597 168.468C228.597 168.468 228.541 168.413 228.514 168.385C228.665 168.33 228.817 168.261 228.969 168.206C228.831 168.303 228.693 168.385 228.583 168.454L228.597 168.468ZM226.75 169.019C226.847 169.225 226.943 169.432 227.053 169.639C227.301 170.134 227.577 170.616 227.866 171.084C227.852 171.084 227.839 171.084 227.811 171.084C227.343 170.63 226.847 170.203 226.337 169.776L226.075 169.432L225.965 169.308C226.227 169.212 226.488 169.115 226.764 169.033L226.75 169.019ZM224.38 169.831C224.38 169.831 224.394 169.859 224.408 169.859C224.242 169.997 224.104 170.121 224.049 170.176C223.994 170.121 223.925 170.052 223.87 169.997C224.036 169.942 224.215 169.886 224.38 169.818V169.831ZM222.851 172.076C222.851 172.076 222.933 172.076 222.975 172.09C222.906 172.2 222.837 172.31 222.754 172.434C222.492 172.255 222.23 172.104 221.982 171.924C221.969 171.924 221.941 171.897 221.927 171.883C222.01 171.897 222.079 171.924 222.162 171.938L222.851 172.076ZM218.565 171.043L218.496 170.988L218.579 171.016C218.579 171.016 218.579 171.043 218.565 171.043ZM236.974 177.901C236.974 177.901 236.947 177.997 236.947 178.052C236.919 178.039 236.878 178.025 236.85 177.997C236.892 177.956 236.933 177.929 236.974 177.887V177.901ZM250.726 178.7H250.74C250.74 178.7 250.74 178.7 250.726 178.7ZM251.539 178.59C251.374 178.617 251.208 178.631 251.043 178.658C251.071 178.617 251.084 178.562 251.112 178.507L251.181 178.355C251.346 178.355 251.525 178.355 251.691 178.355C252.201 178.355 252.724 178.3 253.234 178.273L253.124 178.3H253.082L252.628 178.397L251.553 178.603L251.539 178.59ZM282.57 183.492L282.419 183.272L282.06 182.748L281.661 182.253L281.261 181.757C282.06 182.294 282.832 182.845 283.576 183.437L284.031 183.795L284.058 183.822L284.086 183.85C283.604 183.754 283.094 183.63 282.598 183.506L282.57 183.492ZM274.771 166.843C274.771 166.843 274.868 166.76 274.895 166.719L274.964 166.65C275.46 166.32 276.163 165.852 276.011 165.948L275.929 165.714C275.929 165.714 275.915 165.659 275.901 165.631C276.287 165.466 276.686 165.287 277.058 165.067C277.155 165.012 277.251 164.957 277.348 164.901C277.265 165.108 277.196 165.315 277.141 165.535C277.017 165.645 276.907 165.769 276.783 165.893C276.232 166.361 275.653 166.788 275.06 167.174C274.964 167.063 274.881 166.953 274.785 166.857L274.771 166.843ZM255.356 144.893L255.508 145.099C255.508 145.099 255.521 145.113 255.535 145.127L255.411 145.085L255.287 145.044C255.287 145.044 255.342 144.948 255.37 144.893H255.356ZM219.158 170.107L218.62 170.313L218.055 170.534L218 170.561C218 170.561 217.931 170.506 217.89 170.492C217.794 170.437 217.67 170.396 217.573 170.368C218.221 170.244 218.868 170.121 219.53 169.969L219.158 170.107ZM232.276 179.319L232.097 178.686C232.193 178.769 232.289 178.851 232.4 178.92C232.675 179.14 233.006 179.333 233.309 179.526C233.392 179.581 233.433 179.622 233.571 179.677C233.144 179.609 232.73 179.54 232.317 179.457C232.303 179.402 232.289 179.361 232.276 179.319ZM239.138 179.856C239.937 180.049 240.736 180.214 241.549 180.325C240.709 180.325 239.882 180.297 239.055 180.256C239.083 180.132 239.11 179.994 239.152 179.87L239.138 179.856ZM266.545 180.834C267.068 181.054 267.606 181.275 268.129 181.509C267.592 181.344 267.055 181.178 266.517 181.013C266.517 180.958 266.545 180.875 266.545 180.82V180.834ZM277.858 183.974C277.858 183.974 277.858 183.974 277.871 183.974L278.023 184.084C277.596 183.988 277.169 183.905 276.742 183.795C277.114 183.85 277.486 183.919 277.858 183.96V183.974ZM279.773 184.263C280.366 184.47 280.972 184.649 281.578 184.828C281.013 184.717 280.462 184.607 279.897 184.483L279.773 184.263ZM277.803 168.069C277.334 168.069 277.155 168.482 277.114 168.771C277.114 168.826 277.114 168.84 277.114 168.867L277.637 169.997L277.789 170.272C277.21 169.625 276.645 168.991 276.066 168.344C276.218 168.248 276.37 168.138 276.521 168.027C276.494 168.11 276.59 168.055 276.645 168.027L276.866 167.931L278.505 167.242C277.995 167.628 277.679 167.945 277.789 168.041L277.803 168.069ZM289.915 157.424C290.369 156.598 290.796 155.758 291.182 154.904C291.237 154.876 291.306 154.863 291.361 154.821C291.485 154.752 291.582 154.684 291.692 154.615C291.651 154.697 291.609 154.794 291.554 154.89C291.058 155.771 290.507 156.611 289.915 157.424ZM293.139 134.138C293.828 136.424 294.2 138.806 294.324 141.202C294.2 140.706 294.062 140.224 293.897 139.756C293.828 138.875 293.676 138.021 293.428 137.195C293.359 136.947 293.263 136.699 293.167 136.465C293.167 136.41 293.167 136.341 293.153 136.286C293.043 135.473 292.946 134.881 292.946 134.881C292.822 134.413 292.712 133.931 292.56 133.477C292.216 132.279 291.789 131.108 291.279 129.965C290.783 128.808 290.149 127.693 289.322 126.674C289.129 126.44 288.923 126.206 288.702 125.985C288.73 125.944 288.743 125.917 288.771 125.862C290.7 128.354 292.23 131.122 293.125 134.151L293.139 134.138ZM287.297 124.058C287.076 123.892 286.842 123.741 286.621 123.576C285.96 122.763 285.243 121.992 284.499 121.262C284.306 121.083 284.1 120.918 283.907 120.739C285.106 121.772 286.249 122.887 287.297 124.058ZM259.807 109.461C259.71 109.585 259.6 109.736 259.504 109.874C259.256 109.832 259.063 109.695 258.87 109.722C258.801 109.722 258.732 109.777 258.663 109.819L257.836 109.061C258.484 109.171 259.145 109.323 259.807 109.461ZM254.915 145.622C254.805 146.008 254.695 146.394 254.626 146.724C254.626 146.793 254.612 146.862 254.598 146.931C254.584 146.958 254.571 146.986 254.543 147.013C254.267 147.151 253.978 147.316 253.689 147.495C254.102 146.876 254.515 146.256 254.915 145.609V145.622ZM216.801 170.506C216.746 170.589 216.65 170.726 216.553 170.864C216.443 171.016 216.333 171.153 216.25 171.263C216.085 171.071 215.92 170.892 215.768 170.685C216.112 170.63 216.457 170.561 216.815 170.492L216.801 170.506ZM217.353 172.434L219.047 173.728C219.819 174.321 220.605 174.913 221.418 175.505C219.943 174.637 218.579 173.618 217.366 172.448L217.353 172.434ZM256.458 178.865C256.555 178.824 256.651 178.782 256.748 178.741C256.803 178.769 256.858 178.782 256.899 178.81C256.762 178.81 256.61 178.837 256.445 178.865H256.458ZM270.513 182.17C270.513 182.17 270.637 182.211 270.706 182.239C270.651 182.225 270.582 182.211 270.527 182.184L270.513 182.17ZM288.33 185.847L287.889 185.392C287.338 184.828 286.787 184.263 286.222 183.74C286.58 183.905 286.952 184.056 287.324 184.208L287.724 184.373C287.944 184.456 288.137 184.497 288.33 184.566L288.633 184.649C288.854 184.759 289.074 184.869 289.295 184.979L290.535 185.571L291.816 186.108L292.161 186.246C291.251 186.163 290.342 186.081 289.432 185.984C289.06 185.943 288.702 185.888 288.33 185.833V185.847ZM293.552 186.356C293.401 186.356 293.249 186.329 293.098 186.315C293.263 185.998 293.456 185.613 293.566 185.378C293.566 185.378 293.58 185.378 293.594 185.392L295.109 186.439L293.552 186.342V186.356Z" fill="#202020"/>
<path d="M259.109 108.57H257.648" stroke="#191919"/>
<path d="M148.643 119.384C148.747 119.428 148.786 119.436 148.877 119.429L154.753 119.468L178.637 119.615C182.621 119.65 186.58 119.692 190.565 119.764L196.532 119.87L200.353 119.96C200.353 119.96 202.825 119.94 205.251 119.924C207.671 119.919 210.052 119.907 209.85 119.881C213.816 119.803 216.454 119.474 210.113 118.798C206.372 118.359 200.988 118.01 200.988 118.01L197.382 117.925L191.291 117.808C187.241 117.736 183.171 117.697 179.128 117.65L154.788 117.503L148.938 117.456C148.938 117.456 148.703 117.521 148.651 117.535C146.772 118.373 147.875 119.105 148.643 119.384Z" fill="#191919"/>
<path d="M206.574 124.395C202.806 124.072 197.394 123.877 197.394 123.877L188.1 123.909L176.692 123.979C169.08 124.037 161.494 124.088 153.903 124.076L148.066 124.044C148.066 124.044 147.83 124.109 147.778 124.123C145.899 124.961 147.003 125.693 147.77 125.972C147.874 126.016 147.913 126.024 148.004 126.017L153.887 126.046C161.394 126.053 168.869 126.006 176.351 125.947L187.563 125.876L196.949 125.838C196.949 125.838 199.415 125.756 201.842 125.667C204.262 125.589 206.643 125.504 206.422 125.474C210.376 125.272 212.962 124.848 206.561 124.38L206.574 124.395Z" fill="#191919"/>
<path d="M182.768 131.495C179.008 131.161 173.642 130.889 173.642 130.889L170.381 130.844C164.831 130.769 159.282 130.693 153.758 130.574C151.828 130.525 149.852 130.48 147.987 130.396C147.896 130.403 147.759 130.45 147.706 130.464C147.261 130.66 146.947 130.82 146.893 131.017C146.873 131.122 146.684 131.147 146.592 131.227C146.487 131.293 146.414 131.376 146.368 131.453C146.342 131.497 146.315 131.54 146.367 131.599C146.393 131.628 146.419 131.657 146.471 131.679L146.522 131.738C146.62 131.829 146.684 131.902 146.795 131.972C146.976 132.103 147.21 132.221 147.398 132.305C147.515 132.364 147.542 132.356 147.646 132.364C149.7 132.46 151.63 132.509 153.606 132.554C159.175 132.669 164.725 132.745 170.274 132.821L173.085 132.853C173.085 132.853 183.014 132.637 182.59 132.581C186.564 132.383 189.143 131.97 182.749 131.491L182.768 131.495Z" fill="#191919"/>
</svg>
