<svg width="418" height="418" viewBox="0 0 418 418" fill="none" xmlns="http://www.w3.org/2000/svg">
<rect width="417.026" height="417.026" rx="9.74359" fill="#191919"/>
<path d="M113.913 264.325H122.663C124.88 264.325 126.688 264.5 128.088 264.85C129.488 265.2 130.55 265.818 131.273 266.705C131.996 267.568 132.358 268.782 132.358 270.345C132.358 271.932 131.926 273.203 131.063 274.16C130.223 275.117 129.185 275.723 127.948 275.98C129.885 276.167 131.401 276.808 132.498 277.905C133.618 278.978 134.178 280.483 134.178 282.42C134.178 284.87 133.303 286.585 131.553 287.565C129.803 288.522 127.26 289 123.923 289H113.913V264.325ZM124.063 285.85C125.533 285.85 126.711 285.757 127.598 285.57C128.508 285.36 129.196 284.963 129.663 284.38C130.153 283.773 130.398 282.898 130.398 281.755C130.398 280.145 129.873 279.06 128.823 278.5C127.796 277.917 126.21 277.625 124.063 277.625H117.658V285.85H124.063ZM122.908 274.685C124.215 274.685 125.276 274.603 126.093 274.44C126.91 274.253 127.54 273.903 127.983 273.39C128.45 272.853 128.683 272.072 128.683 271.045C128.683 269.925 128.461 269.108 128.018 268.595C127.575 268.058 126.968 267.72 126.198 267.58C125.428 267.44 124.331 267.37 122.908 267.37H117.658V274.685H122.908ZM138.181 264.325H145.846C149.369 264.325 151.982 264.955 153.686 266.215C155.412 267.452 156.276 269.587 156.276 272.62C156.276 275.653 155.412 277.8 153.686 279.06C151.982 280.32 149.369 280.95 145.846 280.95H141.926V289H138.181V264.325ZM145.986 277.73C148.179 277.73 149.812 277.38 150.886 276.68C151.982 275.957 152.531 274.603 152.531 272.62C152.531 270.637 151.982 269.295 150.886 268.595C149.789 267.895 148.156 267.545 145.986 267.545H141.926V277.73H145.986ZM160.008 276.645C160.008 274.242 160.487 272.072 161.443 270.135C162.4 268.198 163.777 266.682 165.573 265.585C167.37 264.488 169.482 263.94 171.908 263.94C174.312 263.94 176.412 264.488 178.208 265.585C180.005 266.682 181.37 268.198 182.303 270.135C183.26 272.072 183.738 274.242 183.738 276.645C183.738 279.072 183.26 281.253 182.303 283.19C181.37 285.103 180.005 286.62 178.208 287.74C176.435 288.837 174.335 289.385 171.908 289.385C169.482 289.385 167.37 288.837 165.573 287.74C163.777 286.62 162.4 285.103 161.443 283.19C160.487 281.253 160.008 279.072 160.008 276.645ZM163.823 276.645C163.823 279.515 164.512 281.813 165.888 283.54C167.265 285.243 169.272 286.095 171.908 286.095C174.545 286.095 176.54 285.243 177.893 283.54C179.27 281.837 179.958 279.538 179.958 276.645C179.958 273.775 179.27 271.488 177.893 269.785C176.517 268.082 174.522 267.23 171.908 267.23C169.272 267.23 167.265 268.082 165.888 269.785C164.512 271.488 163.823 273.775 163.823 276.645ZM215.573 271.535L209.658 289H203.358L197.338 271.535H201.013L206.543 287.81L212.003 271.535H215.573ZM225.58 289.35C222.897 289.35 220.82 288.767 219.35 287.6C217.904 286.433 217.18 284.765 217.18 282.595H220.785C220.785 283.925 221.194 284.928 222.01 285.605C222.85 286.258 224.052 286.585 225.615 286.585C226.805 286.585 227.68 286.398 228.24 286.025C228.8 285.652 229.08 285.068 229.08 284.275C229.08 283.738 228.894 283.307 228.52 282.98C228.17 282.63 227.587 282.327 226.77 282.07L221.94 280.705C220.75 280.378 219.759 279.842 218.965 279.095C218.195 278.348 217.81 277.333 217.81 276.05C217.81 274.51 218.417 273.32 219.63 272.48C220.867 271.617 222.57 271.185 224.74 271.185C227.097 271.185 228.94 271.71 230.27 272.76C231.624 273.787 232.3 275.257 232.3 277.17H228.695C228.695 276.167 228.357 275.385 227.68 274.825C227.004 274.242 226.035 273.95 224.775 273.95C223.749 273.95 222.932 274.148 222.325 274.545C221.742 274.918 221.45 275.397 221.45 275.98C221.45 276.517 221.637 276.96 222.01 277.31C222.384 277.66 222.967 277.952 223.76 278.185L227.855 279.305C229.442 279.725 230.644 280.332 231.46 281.125C232.3 281.918 232.72 282.992 232.72 284.345C232.72 285.955 232.114 287.192 230.9 288.055C229.687 288.918 227.914 289.35 225.58 289.35ZM238.58 289.35C237.67 289.35 236.912 289.047 236.305 288.44C235.722 287.833 235.43 287.087 235.43 286.2C235.43 285.337 235.722 284.613 236.305 284.03C236.912 283.423 237.67 283.12 238.58 283.12C239.49 283.12 240.248 283.423 240.855 284.03C241.485 284.613 241.8 285.337 241.8 286.2C241.8 287.087 241.485 287.833 240.855 288.44C240.248 289.047 239.49 289.35 238.58 289.35ZM261.828 264.325V275.245H275.338V264.325H279.083V289H275.338V278.5H261.828V289H258.083V264.325H261.828ZM283.957 264.325H293.407C296.604 264.325 299.054 264.815 300.757 265.795C302.46 266.752 303.312 268.502 303.312 271.045C303.312 274.475 301.807 276.552 298.797 277.275H300.477C301.504 277.275 302.239 277.543 302.682 278.08C303.149 278.617 303.382 279.317 303.382 280.18V289H299.637V279.48H287.702V289H283.957V264.325ZM293.407 276.26C294.877 276.26 296.032 276.167 296.872 275.98C297.712 275.793 298.365 275.385 298.832 274.755C299.322 274.125 299.567 273.168 299.567 271.885C299.567 270.602 299.322 269.645 298.832 269.015C298.365 268.385 297.7 267.988 296.837 267.825C295.997 267.638 294.854 267.545 293.407 267.545H287.702V276.26H293.407ZM126.627 321.315C126.627 326.028 123.383 328.385 116.897 328.385C113.07 328.385 110.177 327.557 108.217 325.9C106.257 324.22 105.277 321.817 105.277 318.69H109.092C109.092 320.93 109.733 322.587 111.017 323.66C112.323 324.733 114.307 325.27 116.967 325.27C118.973 325.27 120.443 324.967 121.377 324.36C122.333 323.73 122.812 322.773 122.812 321.49C122.812 320.603 122.497 319.845 121.867 319.215C121.26 318.562 120.327 318.072 119.067 317.745L111.892 315.89C108.228 314.933 106.397 312.833 106.397 309.59C106.397 307.42 107.167 305.775 108.707 304.655C110.247 303.512 112.475 302.94 115.392 302.94C118.798 302.94 121.388 303.698 123.162 305.215C124.958 306.708 125.857 308.808 125.857 311.515H122.007C122.007 307.852 119.802 306.02 115.392 306.02C111.938 306.02 110.212 307.175 110.212 309.485C110.212 310.302 110.48 310.99 111.017 311.55C111.553 312.11 112.428 312.553 113.642 312.88L120.677 314.63C122.66 315.143 124.142 315.972 125.122 317.115C126.125 318.235 126.627 319.635 126.627 321.315ZM142.359 328H135.079C133.376 328 132.524 327.148 132.524 325.445V313.65H128.604V310.535H132.524V306.37L136.129 305.25V310.535H141.659V313.65H136.129V324.885H142.359V328ZM145.101 323.17C145.101 321.7 145.579 320.533 146.536 319.67C147.493 318.783 149.033 318.235 151.156 318.025L157.736 317.395C157.666 315.902 157.281 314.817 156.581 314.14C155.881 313.44 154.773 313.09 153.256 313.09C152.019 313.09 151.028 313.393 150.281 314C149.534 314.607 149.103 315.552 148.986 316.835H145.486C145.673 314.782 146.454 313.16 147.831 311.97C149.231 310.78 151.074 310.185 153.361 310.185C155.881 310.185 157.841 310.885 159.241 312.285C160.641 313.662 161.341 315.575 161.341 318.025V324.885H163.896V328H160.571C159.871 328 159.323 327.813 158.926 327.44C158.529 327.043 158.331 326.495 158.331 325.795V323.66C157.888 325.06 157.083 326.192 155.916 327.055C154.749 327.918 153.139 328.35 151.086 328.35C148.799 328.35 147.224 327.813 146.361 326.74C145.521 325.667 145.101 324.477 145.101 323.17ZM148.671 322.68C148.671 323.567 148.939 324.243 149.476 324.71C150.036 325.177 150.794 325.41 151.751 325.41C152.918 325.41 153.956 325.165 154.866 324.675C155.776 324.185 156.476 323.508 156.966 322.645C157.479 321.782 157.736 320.802 157.736 319.705L151.786 320.37C150.713 320.487 149.919 320.72 149.406 321.07C148.916 321.397 148.671 321.933 148.671 322.68ZM166.116 310.535H170.211V310.185C170.211 307.992 170.759 306.335 171.856 305.215C172.976 304.072 174.621 303.5 176.791 303.5H184.421C185.564 302.683 187.046 302.275 188.866 302.275H196.566V305.355H188.621C187.617 305.355 186.894 305.647 186.451 306.23C186.031 306.79 185.821 307.63 185.821 308.75V310.535H196.566C197.429 310.535 198.059 310.745 198.456 311.165C198.876 311.562 199.086 312.203 199.086 313.09V324.885H203.916V328H166.116V324.885H170.211V313.65H166.116V310.535ZM182.251 324.885V313.65H173.746V324.885H182.251ZM182.251 310.535V308.68C182.251 307.863 182.332 307.14 182.496 306.51H176.791C175.647 306.51 174.854 306.802 174.411 307.385C173.967 307.968 173.746 308.925 173.746 310.255V310.535H182.251ZM195.446 324.885V313.65H185.821V324.885H195.446ZM207.324 310.535H210.929V315.19C211.396 313.627 212.236 312.402 213.449 311.515C214.686 310.628 216.238 310.185 218.104 310.185C220.158 310.185 221.756 310.838 222.899 312.145C224.066 313.452 224.649 315.318 224.649 317.745V328H221.009V318.165C221.009 316.438 220.683 315.202 220.029 314.455C219.376 313.685 218.314 313.3 216.844 313.3C215.001 313.3 213.554 313.965 212.504 315.295C211.454 316.602 210.929 318.433 210.929 320.79V328H207.324V310.535ZM236.449 328.35C234.769 328.35 233.311 327.965 232.074 327.195C230.861 326.402 229.928 325.317 229.274 323.94C228.621 322.563 228.294 321 228.294 319.25C228.294 317.5 228.621 315.948 229.274 314.595C229.928 313.218 230.861 312.145 232.074 311.375C233.311 310.582 234.769 310.185 236.449 310.185C238.269 310.185 239.786 310.593 240.999 311.41C242.236 312.203 243.158 313.265 243.764 314.595V310.535H247.369V332.62C247.369 334.16 246.518 334.93 244.814 334.93H231.234V331.815H243.764V323.94C243.134 325.317 242.201 326.402 240.964 327.195C239.751 327.965 238.246 328.35 236.449 328.35ZM231.899 319.25C231.899 321.21 232.424 322.703 233.474 323.73C234.524 324.733 235.924 325.235 237.674 325.235C239.424 325.235 240.859 324.722 241.979 323.695C243.123 322.668 243.694 321.187 243.694 319.25C243.694 317.36 243.123 315.902 241.979 314.875C240.859 313.825 239.424 313.3 237.674 313.3C235.924 313.3 234.524 313.802 233.474 314.805C232.424 315.808 231.899 317.29 231.899 319.25ZM262.229 310.535H265.904V308.435C265.904 306.475 266.441 304.958 267.514 303.885C268.611 302.812 270.291 302.275 272.554 302.275H275.564V305.39H272.309C271.282 305.39 270.559 305.635 270.139 306.125C269.742 306.592 269.544 307.385 269.544 308.505V310.535H274.584V313.65H269.544V324.885H274.584V328H262.229V324.885H265.904V313.65H262.229V310.535ZM276.965 319.25C276.965 317.477 277.361 315.913 278.155 314.56C278.948 313.183 280.056 312.11 281.48 311.34C282.903 310.57 284.536 310.185 286.38 310.185C288.2 310.185 289.821 310.57 291.245 311.34C292.668 312.11 293.776 313.183 294.57 314.56C295.363 315.913 295.76 317.477 295.76 319.25C295.76 321.023 295.363 322.598 294.57 323.975C293.776 325.352 292.668 326.425 291.245 327.195C289.821 327.965 288.2 328.35 286.38 328.35C284.536 328.35 282.903 327.965 281.48 327.195C280.056 326.425 278.948 325.352 278.155 323.975C277.361 322.598 276.965 321.023 276.965 319.25ZM280.57 319.25C280.57 321 281.083 322.435 282.11 323.555C283.16 324.675 284.583 325.235 286.38 325.235C288.176 325.235 289.576 324.675 290.58 323.555C291.606 322.435 292.12 321 292.12 319.25C292.12 317.523 291.606 316.1 290.58 314.98C289.576 313.86 288.176 313.3 286.38 313.3C284.583 313.3 283.16 313.86 282.11 314.98C281.083 316.1 280.57 317.523 280.57 319.25ZM299.61 313.055C299.61 311.375 300.474 310.535 302.2 310.535H312.385V313.65H303.215V328H299.61V313.055ZM94.1401 342.325H103.59C106.787 342.325 109.237 342.815 110.94 343.795C112.643 344.752 113.495 346.502 113.495 349.045C113.495 352.475 111.99 354.552 108.98 355.275H110.66C111.687 355.275 112.422 355.543 112.865 356.08C113.332 356.617 113.565 357.317 113.565 358.18V367H109.82V357.48H97.8851V367H94.1401V342.325ZM103.59 354.26C105.06 354.26 106.215 354.167 107.055 353.98C107.895 353.793 108.548 353.385 109.015 352.755C109.505 352.125 109.75 351.168 109.75 349.885C109.75 348.602 109.505 347.645 109.015 347.015C108.548 346.385 107.883 345.988 107.02 345.825C106.18 345.638 105.037 345.545 103.59 345.545H97.8851V354.26H103.59ZM117.26 358.075C117.26 356.232 117.61 354.645 118.31 353.315C119.033 351.962 120.037 350.935 121.32 350.235C122.603 349.535 124.097 349.185 125.8 349.185C128.483 349.185 130.607 349.943 132.17 351.46C133.733 352.977 134.515 355.077 134.515 357.76V358.985H120.83C120.9 360.642 121.367 361.972 122.23 362.975C123.117 363.978 124.365 364.48 125.975 364.48C127.352 364.48 128.46 364.165 129.3 363.535C130.163 362.905 130.735 362.018 131.015 360.875H134.585C134.212 362.742 133.313 364.293 131.89 365.53C130.49 366.743 128.542 367.35 126.045 367.35C124.178 367.35 122.58 366.953 121.25 366.16C119.943 365.343 118.952 364.235 118.275 362.835C117.598 361.435 117.26 359.848 117.26 358.075ZM130.98 356.64C130.887 355.17 130.373 354.027 129.44 353.21C128.53 352.393 127.328 351.985 125.835 351.985C124.435 351.985 123.28 352.393 122.37 353.21C121.46 354.027 120.947 355.17 120.83 356.64H130.98ZM138.504 349.535H142.109V353.805C142.575 352.428 143.322 351.32 144.349 350.48C145.399 349.617 146.729 349.185 148.339 349.185C151.092 349.185 152.83 350.702 153.554 353.735C154.044 352.382 154.837 351.285 155.934 350.445C157.054 349.605 158.442 349.185 160.099 349.185C162.105 349.185 163.599 349.873 164.579 351.25C165.559 352.627 166.049 354.552 166.049 357.025V367H162.444V357.375C162.444 355.648 162.187 354.377 161.674 353.56C161.184 352.72 160.344 352.3 159.154 352.3C157.427 352.3 156.144 352.988 155.304 354.365C154.487 355.718 154.079 357.597 154.079 360V367H150.474V357.375C150.474 355.648 150.217 354.377 149.704 353.56C149.214 352.72 148.374 352.3 147.184 352.3C145.457 352.3 144.174 352.988 143.334 354.365C142.517 355.718 142.109 357.597 142.109 360V367H138.504V349.535ZM169.589 358.25C169.589 356.477 169.986 354.913 170.779 353.56C171.572 352.183 172.681 351.11 174.104 350.34C175.527 349.57 177.161 349.185 179.004 349.185C180.824 349.185 182.446 349.57 183.869 350.34C185.292 351.11 186.401 352.183 187.194 353.56C187.987 354.913 188.384 356.477 188.384 358.25C188.384 360.023 187.987 361.598 187.194 362.975C186.401 364.352 185.292 365.425 183.869 366.195C182.446 366.965 180.824 367.35 179.004 367.35C177.161 367.35 175.527 366.965 174.104 366.195C172.681 365.425 171.572 364.352 170.779 362.975C169.986 361.598 169.589 360.023 169.589 358.25ZM173.194 358.25C173.194 360 173.707 361.435 174.734 362.555C175.784 363.675 177.207 364.235 179.004 364.235C180.801 364.235 182.201 363.675 183.204 362.555C184.231 361.435 184.744 360 184.744 358.25C184.744 356.523 184.231 355.1 183.204 353.98C182.201 352.86 180.801 352.3 179.004 352.3C177.207 352.3 175.784 352.86 174.734 353.98C173.707 355.1 173.194 356.523 173.194 358.25ZM203.831 367H196.551C194.848 367 193.996 366.148 193.996 364.445V352.65H190.076V349.535H193.996V345.37L197.601 344.25V349.535H203.131V352.65H197.601V363.885H203.831V367ZM206.059 358.075C206.059 356.232 206.409 354.645 207.109 353.315C207.832 351.962 208.836 350.935 210.119 350.235C211.402 349.535 212.896 349.185 214.599 349.185C217.282 349.185 219.406 349.943 220.969 351.46C222.532 352.977 223.314 355.077 223.314 357.76V358.985H209.629C209.699 360.642 210.166 361.972 211.029 362.975C211.916 363.978 213.164 364.48 214.774 364.48C216.151 364.48 217.259 364.165 218.099 363.535C218.962 362.905 219.534 362.018 219.814 360.875H223.384C223.011 362.742 222.112 364.293 220.689 365.53C219.289 366.743 217.341 367.35 214.844 367.35C212.977 367.35 211.379 366.953 210.049 366.16C208.742 365.343 207.751 364.235 207.074 362.835C206.397 361.435 206.059 359.848 206.059 358.075ZM219.779 356.64C219.686 355.17 219.172 354.027 218.239 353.21C217.329 352.393 216.127 351.985 214.634 351.985C213.234 351.985 212.079 352.393 211.169 353.21C210.259 354.027 209.746 355.17 209.629 356.64H219.779ZM264.171 367H257.416L252.831 343.69L248.246 367H241.456L236.801 342.325H240.546L244.641 363.185L245.026 365.495L249.576 342.325H256.051L260.671 365.6L261.021 363.185L265.081 342.325H268.791L264.171 367ZM269.496 358.25C269.496 356.477 269.893 354.913 270.686 353.56C271.48 352.183 272.588 351.11 274.011 350.34C275.435 349.57 277.068 349.185 278.911 349.185C280.731 349.185 282.353 349.57 283.776 350.34C285.2 351.11 286.308 352.183 287.101 353.56C287.895 354.913 288.291 356.477 288.291 358.25C288.291 360.023 287.895 361.598 287.101 362.975C286.308 364.352 285.2 365.425 283.776 366.195C282.353 366.965 280.731 367.35 278.911 367.35C277.068 367.35 275.435 366.965 274.011 366.195C272.588 365.425 271.48 364.352 270.686 362.975C269.893 361.598 269.496 360.023 269.496 358.25ZM273.101 358.25C273.101 360 273.615 361.435 274.641 362.555C275.691 363.675 277.115 364.235 278.911 364.235C280.708 364.235 282.108 363.675 283.111 362.555C284.138 361.435 284.651 360 284.651 358.25C284.651 356.523 284.138 355.1 283.111 353.98C282.108 352.86 280.708 352.3 278.911 352.3C277.115 352.3 275.691 352.86 274.641 353.98C273.615 355.1 273.101 356.523 273.101 358.25ZM292.142 352.055C292.142 350.375 293.006 349.535 294.732 349.535H304.917V352.65H295.747V367H292.142V352.055ZM308.035 341.275H311.64V356.675L319.725 349.535H324.345L314.93 358.005L324.275 367H319.69L311.64 359.265V367H308.035V341.275Z" fill="#E8E0CD"/>
<path d="M284.01 67.1197L280.154 63.2639L275.656 66.7984L279.19 70.9755L277.584 75.1527L272.121 75.7953L271.479 81.2577L276.298 81.9003L278.226 86.0774L274.692 90.2545L279.19 93.789L283.689 90.2545L287.544 92.8251V97.0022L292.685 97.6448L293.649 92.8251L298.148 91.8611L301.04 95.0743L305.538 90.2545L302.968 86.0774L305.217 82.5429H309.715V75.7953H305.217L304.574 72.2608L307.466 68.0837L302.968 64.2279L298.469 66.7984L294.292 64.2279V60.0508H289.151L288.508 64.2279L284.01 67.1197Z" fill="#E8E0CD"/>
<path d="M226.494 84.1474L237.097 86.0753L239.668 88.3245L240.632 92.5017L239.989 146.804V189.218L238.704 193.074L236.455 194.359L223.602 195.002L202.717 196.608L190.507 197.572L163.837 200.143L135.24 203.677H129.456L127.207 202.071L125.279 198.215V188.897L126.565 118.528V83.8261L127.207 76.1145L130.42 73.2227H135.561L144.88 74.5079L172.834 77.7211L226.494 84.1474Z" fill="#E8E0CD"/>
<path d="M239.749 172.431H239.742C239.26 172.426 238.873 172.033 238.878 171.553L239.628 90.7865C239.646 88.5524 237.657 86.625 235.001 86.3045L143.097 75.1681C142.619 75.1099 142.278 74.6759 142.337 74.1989C142.395 73.7219 142.829 73.3847 143.307 73.4394L235.21 84.5758C238.747 85.003 241.397 87.6794 241.372 90.8017L240.622 171.569C240.617 172.047 240.228 172.431 239.749 172.431Z" fill="#191919"/>
<path d="M138.538 73.7378C138.48 74.2134 138.044 74.5505 137.567 74.4979L133.743 74.0334C132.475 73.8769 131.232 74.0915 130.139 74.6544C130.122 74.6599 130.098 74.6717 130.081 74.6835C128.529 75.5073 127.593 76.9065 127.576 78.433C126.21 206.758 126.258 198.182 126.373 198.797C126.617 200.039 127.477 201.142 128.779 201.844C128.869 201.904 129.367 202.15 129.848 202.302C129.812 202.99 129.829 203.427 129.831 203.741C129.831 203.898 129.895 204.032 129.994 204.136C129.331 203.997 128.698 203.764 128.105 203.457C128.093 203.457 128.087 203.451 128.076 203.445C126.873 202.843 125.743 201.799 125.135 200.543C124.751 199.759 124.547 198.9 124.559 198.013C124.62 192.277 125.753 85.8109 125.832 78.4088C125.856 76.2266 127.146 74.2591 129.285 73.1327C129.314 73.1092 129.349 73.0919 129.383 73.0808C129.401 73.0752 129.412 73.069 129.424 73.0635C130.802 72.3726 132.371 72.1116 133.952 72.3033L137.777 72.7679C138.254 72.826 138.596 73.2615 138.538 73.7371V73.7378Z" fill="#191919"/>
<path d="M191.215 198.112L180.904 199.197L173.371 199.987C131.015 204.291 132.638 204.491 130.66 204.253C130.823 204.172 130.945 204.021 130.98 203.841C130.986 203.8 130.992 203.753 130.992 203.713C130.98 203.319 130.986 202.924 130.998 202.535C132.222 202.678 129.518 202.787 172.731 198.304L180.386 197.503L191.029 196.382C191.168 196.371 191.308 196.388 191.43 196.434C191.726 196.551 191.953 196.817 191.988 197.154C192.04 197.636 191.691 198.065 191.215 198.112H191.215Z" fill="#191919"/>
<path d="M224.007 105.135L135.858 97.425C135.379 97.3828 135.024 96.9605 135.066 96.4821C135.108 96.003 135.526 95.6493 136.01 95.6908L224.159 103.4C224.639 103.443 224.994 103.865 224.951 104.343C224.91 104.819 224.49 105.176 224.007 105.135Z" fill="#191919"/>
<path d="M182.796 88.5897C182.765 88.5897 182.734 88.5883 182.702 88.5848L146.326 84.6774C145.847 84.6255 145.501 84.197 145.552 83.7193C145.603 83.2409 146.031 82.8941 146.511 82.9467L182.888 86.854C183.367 86.906 183.713 87.3345 183.662 87.8122C183.613 88.2587 183.235 88.5897 182.796 88.5897H182.796Z" fill="#191919"/>
<path d="M167.851 91.4657C167.833 91.4657 167.815 91.4657 167.797 91.4643L159.932 90.9853C159.451 90.9555 159.085 90.5429 159.115 90.0631C159.145 89.584 159.557 89.2199 160.038 89.2476L167.903 89.7266C168.383 89.7557 168.75 90.169 168.72 90.6481C168.692 91.1099 168.308 91.4657 167.851 91.4657Z" fill="#191919"/>
<path d="M233.342 94.3941C233.574 92.6252 232.512 91.0278 230.971 90.8262C229.429 90.6247 227.992 91.8953 227.76 93.6642C227.528 95.4332 228.589 97.0306 230.131 97.2321C231.672 97.4337 233.11 96.163 233.342 94.3941Z" fill="#191919"/>
<path d="M230.23 98.1143C228.158 97.9793 226.688 96.0027 226.869 93.7735C227.158 90.2012 231.105 88.6698 233.25 91.149C233.965 91.9763 234.322 93.1172 234.228 94.2796C234.051 96.4666 232.31 98.243 230.23 98.1143H230.23ZM228.606 93.914C228.508 95.1242 229.218 96.3032 230.343 96.3759C232.159 96.4908 233.218 93.7756 231.929 92.2871C231.706 92.0289 231.32 91.7132 230.752 91.6765C229.616 91.6031 228.706 92.681 228.605 93.9133L228.606 93.914Z" fill="#191919"/>
<path d="M222.311 93.1207C222.543 91.3517 221.481 89.7543 219.94 89.5528C218.398 89.3512 216.961 90.6219 216.729 92.3908C216.497 94.1597 217.558 95.7571 219.1 95.9587C220.641 96.1602 222.079 94.8896 222.311 93.1207Z" fill="#191919"/>
<path d="M219.197 96.8439C217.125 96.7089 215.654 94.7324 215.835 92.5032C216.12 88.9897 220.047 87.3711 222.217 89.8793C222.933 90.7066 223.289 91.8476 223.194 93.0093C223.016 95.2087 221.265 96.9727 219.197 96.8439H219.197ZM217.573 92.6437C217.474 93.8539 218.185 95.0329 219.31 95.1055C221.133 95.2253 222.181 92.5018 220.897 91.0175C220.673 90.7593 220.287 90.4436 219.718 90.4062C218.584 90.3335 217.673 91.408 217.572 92.643L217.573 92.6437Z" fill="#191919"/>
<path d="M211.629 91.6011C211.861 89.8322 210.799 88.2348 209.258 88.0332C207.717 87.8317 206.279 89.1023 206.047 90.8713C205.815 92.6402 206.877 94.2376 208.418 94.4392C209.959 94.6407 211.397 93.3701 211.629 91.6011Z" fill="#191919"/>
<path d="M208.734 95.3298C208.662 95.3298 208.589 95.3277 208.516 95.3228C207.602 95.2633 206.756 94.8334 206.132 94.1127C205.416 93.2854 205.059 92.1445 205.154 90.9821C205.337 88.7356 207.132 87.0187 209.151 87.1474C210.064 87.207 210.911 87.6369 211.535 88.3576C213.76 90.9309 212.006 95.3291 208.733 95.3291L208.734 95.3298ZM206.892 91.1233C206.836 91.8232 207.039 92.4982 207.451 92.9745C207.675 93.2328 208.061 93.5485 208.63 93.5859C209.706 93.6627 210.67 92.6526 210.776 91.349C210.833 90.6491 210.629 89.9741 210.216 89.4971C209.993 89.2389 209.607 88.9232 209.039 88.8865C207.964 88.8249 206.999 89.8197 206.892 91.1233Z" fill="#191919"/>
<path d="M199.894 197.391C199.444 197.391 199.063 197.045 199.026 196.589C198.988 196.109 199.347 195.69 199.826 195.652C204.634 195.27 210.693 194.972 216.551 194.682C222.397 194.394 228.442 194.096 233.224 193.717C234.539 193.612 235.899 193.505 237.08 193.049C238.037 192.68 238.473 191.031 238.635 190.362L238.766 178.017C238.774 177.541 239.162 177.16 239.638 177.16H239.652C240.134 177.168 240.518 177.564 240.51 178.044L240.378 190.478C240.378 190.543 240.37 190.607 240.354 190.671C240.017 192.081 239.376 194.03 237.708 194.673C236.291 195.22 234.735 195.343 233.362 195.452C228.554 195.834 222.496 196.132 216.637 196.421C210.792 196.709 204.747 197.008 199.965 197.387C199.941 197.389 199.918 197.39 199.894 197.39V197.391Z" fill="#191919"/>
<path d="M111.497 90.7699C111.481 90.7699 111.464 90.7699 111.447 90.7685C110.966 90.7415 110.599 90.3295 110.626 89.8498C111.339 77.4797 120.337 65.8926 133.016 61.0153C133.464 60.8429 133.969 61.0658 134.142 61.5151C134.316 61.9638 134.092 62.4678 133.643 62.6408C121.592 67.2765 113.041 78.2509 112.367 89.9488C112.34 90.4119 111.956 90.7699 111.497 90.7699Z" fill="#191919"/>
<path d="M106.872 75.263C106.76 75.263 106.646 75.2415 106.537 75.1958C106.092 75.011 105.882 74.5008 106.067 74.057C108.065 69.2718 111.31 64.8895 115.454 61.3857C115.823 61.0749 116.373 61.1213 116.683 61.4875C116.995 61.8544 116.949 62.4034 116.581 62.7143C112.648 66.0408 109.569 70.1953 107.677 74.7271C107.538 75.0615 107.213 75.263 106.872 75.263Z" fill="#191919"/>
<path d="M154.67 151.505C149.75 151.505 145.084 149.526 141.497 145.911C137.841 142.226 135.775 137.311 135.681 132.072C135.486 121.171 143.833 112.151 154.289 111.964C155.737 111.939 157.187 112.086 158.601 112.403C159.064 112.506 159.359 112.961 159.264 113.426L155.715 130.843L172.72 130.539C172.968 130.542 173.174 130.623 173.341 130.783C173.508 130.943 173.603 131.163 173.608 131.394C173.702 136.634 171.814 141.619 168.293 145.432C164.761 149.257 160.04 151.413 155 151.503C154.89 151.504 154.78 151.505 154.67 151.505L154.67 151.505ZM154.611 113.702C154.514 113.702 154.418 113.703 154.321 113.705C144.826 113.875 137.247 122.101 137.425 132.04C137.511 136.83 139.397 141.32 142.736 144.685C146.065 148.04 150.42 149.835 154.968 149.761C159.529 149.679 163.805 147.723 167.011 144.251C170.031 140.981 171.735 136.764 171.86 132.295L154.66 132.603C154.37 132.596 154.143 132.493 153.974 132.289C153.804 132.086 153.737 131.818 153.79 131.559L157.381 113.935C156.466 113.78 155.538 113.701 154.611 113.701V113.702Z" fill="#191919"/>
<path d="M161.232 125.773L164.159 110.351C164.258 109.829 164.776 109.499 165.292 109.624C168.396 110.372 171.27 111.857 173.642 113.948C176.109 116.122 177.939 118.868 178.956 121.903C179.129 122.421 178.821 122.978 178.289 123.102L162.352 126.844C161.7 126.997 161.107 126.43 161.232 125.773Z" fill="#191919"/>
<path d="M195.118 129.92C194.901 129.92 194.682 129.839 194.513 129.675L181.146 116.798L172.436 116.955C171.943 116.959 171.557 116.581 171.549 116.1C171.541 115.619 171.923 115.222 172.405 115.214L181.477 115.051C181.724 115.047 181.931 115.135 182.098 115.295L195.724 128.422C196.071 128.756 196.081 129.307 195.747 129.652C195.576 129.83 195.347 129.919 195.119 129.919L195.118 129.92Z" fill="#191919"/>
<path d="M197.61 132.209C198.51 131.31 198.51 129.854 197.61 128.955C196.71 128.057 195.251 128.057 194.352 128.955C193.452 129.854 193.452 131.31 194.352 132.209C195.251 133.107 196.71 133.107 197.61 132.209Z" fill="#191919"/>
<path d="M195.981 133.753C194.256 133.753 192.837 132.368 192.805 130.638C192.791 129.791 193.106 128.989 193.695 128.379C194.285 127.769 195.076 127.425 195.924 127.41C196.782 127.415 197.576 127.711 198.186 128.299C198.797 128.888 199.141 129.677 199.157 130.525C199.188 132.273 197.789 133.721 196.038 133.752C196.019 133.752 196 133.752 195.981 133.752V133.753ZM195.982 129.151C195.973 129.151 195.965 129.151 195.956 129.151C195.574 129.158 195.217 129.313 194.951 129.588C194.685 129.863 194.543 130.224 194.55 130.607C194.563 131.386 195.203 132.011 195.982 132.011C195.99 132.011 195.999 132.011 196.008 132.011C196.39 132.004 196.747 131.85 197.012 131.575C197.278 131.3 197.421 130.938 197.414 130.556C197.407 130.174 197.251 129.818 196.976 129.553C196.708 129.294 196.355 129.151 195.983 129.151H195.982Z" fill="#191919"/>
<path d="M239.699 90.3102C239.358 89.9703 239.358 89.4192 239.699 89.0793L250.457 78.3368C250.621 78.1734 250.842 78.082 251.073 78.082H271.415C271.896 78.082 272.287 78.4718 272.287 78.953C272.287 79.4341 271.896 79.8239 271.415 79.8239H251.434L240.931 90.3116C240.591 90.6515 240.039 90.6515 239.699 90.3116V90.3102Z" fill="#191919"/>
<path d="M283.685 67.7834C283.444 67.7834 283.204 67.6844 283.032 67.4891L279.404 63.3928C279.085 63.0328 279.119 62.4824 279.48 62.1639C279.842 61.8448 280.392 61.8794 280.711 62.2394L284.338 66.3358C284.657 66.6958 284.623 67.2461 284.262 67.5646C284.097 67.7114 283.891 67.7834 283.685 67.7834Z" fill="#191919"/>
<path d="M283.707 67.9268C283.401 67.9268 283.105 67.7655 282.944 67.4803C282.71 67.0601 282.861 66.5298 283.281 66.2958L287.643 63.8679C288.064 63.6345 288.594 63.7841 288.829 64.2043C289.064 64.6245 288.912 65.1548 288.492 65.3888L284.131 67.8168C283.996 67.8915 283.851 67.9268 283.706 67.9268H283.707Z" fill="#191919"/>
<path d="M288.351 65.1685C288.321 65.1685 288.29 65.1672 288.259 65.1637C287.78 65.1132 287.433 64.6846 287.483 64.2062L287.924 60.06C287.974 59.5816 288.406 59.2362 288.883 59.286C289.361 59.3366 289.708 59.7651 289.658 60.2435L289.217 64.3897C289.17 64.8369 288.792 65.1685 288.351 65.1685Z" fill="#191919"/>
<path d="M288.839 60.9993C288.367 60.9993 287.979 60.6227 287.967 60.1491C287.956 59.6687 288.337 59.2692 288.818 59.2582L294.223 59.1294C294.721 59.1135 295.104 59.4984 295.116 59.9788C295.127 60.4593 294.746 60.8588 294.265 60.8698L288.86 60.9986C288.852 60.9986 288.846 60.9986 288.839 60.9986V60.9993Z" fill="#191919"/>
<path d="M294.498 65.4179C294.032 65.4179 293.645 65.0496 293.627 64.5809L293.45 59.9896C293.431 59.5091 293.806 59.1048 294.287 59.0861C294.763 59.0771 295.173 59.4426 295.192 59.9224L295.369 64.5138C295.388 64.9942 295.013 65.3985 294.531 65.4172C294.52 65.4172 294.509 65.4172 294.498 65.4172V65.4179Z" fill="#191919"/>
<path d="M298.878 67.8854C298.682 67.8854 298.484 67.819 298.321 67.684C297.101 66.6698 295.651 65.8771 294.127 65.3925C293.668 65.2464 293.415 64.7569 293.561 64.2986C293.706 63.8403 294.196 63.5862 294.656 63.733C296.392 64.2848 298.046 65.1882 299.437 66.3451C299.807 66.6531 299.857 67.2015 299.548 67.5711C299.376 67.7774 299.127 67.8848 298.878 67.8848L298.878 67.8854Z" fill="#191919"/>
<path d="M299.064 67.8415C298.843 67.8415 298.621 67.7584 298.452 67.5916C298.108 67.2537 298.104 66.7027 298.442 66.36C299.655 65.1304 301.011 64.0345 302.473 63.102C302.877 62.8431 303.417 62.9614 303.676 63.3671C303.936 63.7721 303.817 64.3107 303.412 64.5697C302.06 65.4316 300.805 66.4451 299.684 67.5819C299.514 67.755 299.288 67.8415 299.063 67.8415H299.064Z" fill="#191919"/>
<path d="M307.393 68.7256C307.144 68.7256 306.899 68.6211 306.726 68.4175C305.513 66.9851 304.115 65.7044 302.573 64.6119C302.18 64.3336 302.087 63.7902 302.366 63.3983C302.645 63.0058 303.19 62.9137 303.582 63.192C305.243 64.3689 306.749 65.7487 308.058 67.2932C308.37 67.6601 308.323 68.2098 307.956 68.5207C307.792 68.6591 307.592 68.7263 307.393 68.7263L307.393 68.7256Z" fill="#191919"/>
<path d="M304.419 72.7684C304.194 72.7684 303.969 72.6819 303.798 72.5095C303.46 72.1668 303.464 71.6157 303.806 71.2779C304.853 70.2477 305.712 69.0653 306.361 67.7637C306.575 67.3331 307.101 67.1587 307.53 67.3726C307.961 67.5865 308.137 68.1092 307.922 68.5398C307.188 70.0137 306.215 71.352 305.031 72.5185C304.861 72.686 304.64 72.7691 304.419 72.7691V72.7684Z" fill="#191919"/>
<path d="M305.339 76.5071C304.959 76.5071 304.609 76.2572 304.5 75.8737L303.543 72.4987C303.412 72.0362 303.681 71.5551 304.145 71.4242C304.605 71.292 305.09 71.562 305.221 72.0251L306.178 75.3994C306.309 75.8619 306.04 76.343 305.577 76.4746C305.497 76.4967 305.418 76.5071 305.339 76.5071Z" fill="#191919"/>
<path d="M310.127 77.0312C310.05 77.0312 309.972 77.0208 309.895 77C308.886 76.7231 307.556 76.6622 306.382 76.6089C306.075 76.595 305.776 76.5812 305.492 76.5639C305.012 76.5355 304.645 76.1236 304.673 75.6438C304.702 75.1641 305.119 74.7937 305.595 74.8262C305.872 74.8421 306.163 74.856 306.462 74.8691C307.727 74.9273 309.161 74.9924 310.359 75.3212C310.822 75.4486 311.096 75.9284 310.967 76.3922C310.861 76.7785 310.51 77.0319 310.127 77.0319V77.0312Z" fill="#191919"/>
<path d="M310.005 83.4786C309.985 83.4786 309.966 83.4786 309.945 83.4772C309.464 83.4447 309.101 83.0293 309.134 82.5502C309.189 81.7458 309.17 80.8541 309.151 79.9091C309.126 78.6803 309.1 77.4092 309.232 76.1776C309.282 75.6992 309.709 75.3517 310.19 75.4036C310.669 75.4541 311.016 75.8833 310.965 76.361C310.846 77.484 310.871 78.6983 310.895 79.8738C310.915 80.8575 310.934 81.7873 310.875 82.6672C310.843 83.1269 310.46 83.4786 310.006 83.4786H310.005Z" fill="#191919"/>
<path d="M310.053 83.5777C308.579 83.5777 307.353 83.5016 305.934 83.4136L305.2 83.3679C304.719 83.3389 304.353 82.9262 304.382 82.4465C304.412 81.9667 304.817 81.6039 305.305 81.6303L306.042 81.6753C307.432 81.7611 308.633 81.8366 310.053 81.8366C310.534 81.8366 310.925 82.2263 310.925 82.7075C310.925 83.1886 310.535 83.5784 310.053 83.5784V83.5777Z" fill="#191919"/>
<path d="M302.784 86.9469C302.562 86.9469 302.341 86.8631 302.171 86.6949C301.828 86.3564 301.826 85.8053 302.164 85.464C303.055 84.5654 303.749 83.6149 304.482 82.2863C304.715 81.8647 305.247 81.7124 305.667 81.9443C306.089 82.1769 306.242 82.7066 306.01 83.1275C305.193 84.6042 304.414 85.6689 303.404 86.688C303.233 86.8604 303.008 86.9462 302.784 86.9462V86.9469Z" fill="#191919"/>
<path d="M305.874 91.4901C305.564 91.4901 305.263 91.3246 305.105 91.0325C304.266 89.4775 303.285 87.987 302.19 86.6017C301.891 86.2244 301.956 85.6768 302.333 85.3791C302.712 85.0807 303.26 85.1451 303.558 85.5224C304.716 86.9873 305.753 88.563 306.64 90.2058C306.869 90.6295 306.711 91.1578 306.287 91.3855C306.155 91.4561 306.013 91.4901 305.874 91.4901Z" fill="#191919"/>
<path d="M300.947 95.7436C300.644 95.7436 300.349 95.5858 300.189 95.3033C299.95 94.8852 300.097 94.3542 300.516 94.1167C301.785 93.396 303.751 91.6196 305.137 90.1775C305.471 89.8313 306.023 89.8196 306.369 90.1526C306.717 90.4856 306.728 91.0366 306.394 91.3835C305.029 92.8041 302.895 94.7682 301.377 95.6301C301.241 95.7076 301.093 95.7443 300.946 95.7443L300.947 95.7436Z" fill="#191919"/>
<path d="M300.963 95.7616C300.717 95.7616 300.473 95.6584 300.301 95.4577L297.458 92.1478C297.145 91.7829 297.187 91.2332 297.552 90.9203C297.918 90.6081 298.468 90.6496 298.782 91.0145L301.624 94.3244C301.938 94.6892 301.895 95.2389 301.53 95.5518C301.366 95.6924 301.163 95.7616 300.963 95.7616Z" fill="#191919"/>
<path d="M293.781 93.7748C293.381 93.7748 293.02 93.4979 292.931 93.0915C292.827 92.6221 293.124 92.1576 293.595 92.0544C294.624 91.828 295.404 91.5733 296.392 91.25C296.792 91.1191 297.222 90.9786 297.712 90.8256C298.171 90.6809 298.66 90.937 298.804 91.396C298.948 91.855 298.692 92.3438 298.233 92.4871C297.751 92.638 297.328 92.7765 296.935 92.9046C295.9 93.2431 295.083 93.5096 293.97 93.7547C293.907 93.7686 293.844 93.7748 293.782 93.7748H293.781Z" fill="#191919"/>
<path d="M292.548 98.5508C292.477 98.5508 292.405 98.5425 292.332 98.5238C291.865 98.4055 291.584 97.9312 291.703 97.4653L292.941 92.6206C293.06 92.1546 293.531 91.8722 294.001 91.9926C294.467 92.111 294.749 92.5852 294.63 93.0512L293.392 97.8959C293.292 98.2891 292.937 98.5508 292.548 98.5508Z" fill="#191919"/>
<path d="M292.591 98.6288H292.574C291.117 98.6018 290.194 98.4231 288.917 98.1753C288.467 98.0881 287.962 97.9905 287.359 97.8845C286.885 97.8008 286.569 97.3494 286.652 96.8758C286.736 96.4023 287.185 96.0859 287.662 96.1697C288.276 96.2777 288.79 96.3774 289.248 96.466C290.528 96.7145 291.301 96.8641 292.605 96.8876C293.087 96.8966 293.47 97.2933 293.462 97.7738C293.453 98.2494 293.064 98.6288 292.59 98.6288H292.591Z" fill="#191919"/>
<path d="M287.477 97.9071H287.475C286.994 97.9057 286.604 97.5152 286.605 97.0341L286.617 92.154C286.618 91.6742 287.008 91.2852 287.489 91.2852H287.49C287.972 91.2865 288.362 91.677 288.36 92.1575L288.349 97.0389C288.348 97.5187 287.958 97.9071 287.477 97.9071Z" fill="#191919"/>
<path d="M287.339 93.2399C287.191 93.2399 287.04 93.2025 286.903 93.1229C286.29 92.7684 285.655 92.4624 284.982 92.1384C284.31 91.8151 283.615 91.4801 282.945 91.0931C282.528 90.8521 282.386 90.3198 282.627 89.9037C282.869 89.4876 283.402 89.345 283.818 89.5859C284.432 89.9404 285.067 90.2464 285.739 90.5704C286.411 90.8937 287.106 91.2288 287.776 91.6158C288.193 91.8567 288.335 92.3891 288.094 92.8051C287.933 93.0841 287.639 93.2399 287.339 93.2399H287.339Z" fill="#191919"/>
<path d="M279.276 94.6353C279.015 94.6353 278.757 94.5183 278.586 94.2961C278.292 93.9153 278.362 93.3691 278.744 93.0749C280.12 92.0156 281.476 90.8879 282.775 89.7227C283.133 89.4015 283.685 89.4313 284.006 89.7892C284.328 90.1471 284.299 90.6975 283.94 91.0187C282.609 92.2123 281.219 93.3684 279.809 94.4532C279.651 94.5758 279.463 94.6346 279.277 94.6346L279.276 94.6353Z" fill="#191919"/>
<path d="M279.042 94.6855C278.885 94.6855 278.726 94.6433 278.583 94.5554C276.82 93.4657 275.271 92.0991 273.981 90.4936C273.68 90.1184 273.74 89.5701 274.115 89.2696C274.492 88.9691 275.04 89.0287 275.341 89.4032C276.507 90.8543 277.907 92.0894 279.501 93.0752C279.91 93.3286 280.037 93.8644 279.783 94.2743C279.618 94.5401 279.333 94.6862 279.041 94.6862L279.042 94.6855Z" fill="#191919"/>
<path d="M274.7 90.8952C274.489 90.8952 274.278 90.8191 274.11 90.6654C273.755 90.3407 273.732 89.7896 274.058 89.4352L277.797 85.3672C278.122 85.0134 278.674 84.9906 279.029 85.3146C279.384 85.64 279.406 86.191 279.081 86.5448L275.342 90.6128C275.17 90.7997 274.935 90.8946 274.7 90.8946L274.7 90.8952Z" fill="#191919"/>
<path d="M278.35 86.9087C278.023 86.9087 277.71 86.7238 277.561 86.4088C277.248 85.7442 276.883 85.0505 276.529 84.3783C276.168 83.6929 275.795 82.984 275.466 82.2875C275.261 81.8528 275.448 81.3342 275.884 81.1293C276.319 80.9258 276.839 81.112 277.044 81.5468C277.355 82.2079 277.72 82.8995 278.072 83.569C278.435 84.2571 278.81 84.9688 279.139 85.6681C279.344 86.1035 279.156 86.622 278.721 86.8263C278.601 86.8824 278.474 86.9094 278.35 86.9094L278.35 86.9087Z" fill="#191919"/>
<path d="M276.316 82.7863C276.284 82.7863 276.253 82.7849 276.22 82.7814L271.464 82.267C270.985 82.2151 270.639 81.7859 270.691 81.3082C270.742 80.8305 271.175 80.4851 271.651 80.5363L276.409 81.0507C276.887 81.1026 277.234 81.5318 277.181 82.0102C277.132 82.456 276.754 82.787 276.315 82.787L276.316 82.7863Z" fill="#191919"/>
<path d="M271.327 82.1649C270.848 82.1164 270.498 81.6893 270.548 81.2109L271.113 75.6572C271.161 75.1781 271.595 74.8334 272.068 74.8791C272.547 74.9275 272.897 75.3547 272.847 75.8331L272.282 81.3867C272.232 81.8769 271.788 82.2168 271.327 82.1649Z" fill="#191919"/>
<path d="M271.923 76.6966C271.442 76.6703 271.073 76.2605 271.099 75.78C271.125 75.3003 271.548 74.9389 272.017 74.9576C273.725 75.0531 275.485 74.808 277.1 74.2577C277.559 74.1026 278.052 74.3463 278.207 74.8004C278.362 75.2553 278.119 75.7503 277.663 75.9053C275.852 76.5215 273.876 76.7998 271.923 76.696V76.6966Z" fill="#191919"/>
<path d="M277.368 75.8956C277.262 75.8956 277.154 75.8762 277.05 75.8354C276.602 75.6596 276.381 75.1549 276.557 74.7069L278.082 70.8224C278.257 70.3738 278.766 70.155 279.211 70.3295C279.66 70.5047 279.881 71.0093 279.705 71.4573L278.18 75.3432C278.045 75.6859 277.716 75.8956 277.368 75.8956Z" fill="#191919"/>
<path d="M278.877 71.8885C278.631 71.8885 278.387 71.7853 278.215 71.5846L274.784 67.5934C274.471 67.2286 274.513 66.6789 274.878 66.366C275.243 66.053 275.794 66.0953 276.108 66.4594L279.538 70.4513C279.852 70.8154 279.809 71.3658 279.444 71.6787C279.28 71.8193 279.078 71.8885 278.877 71.8885Z" fill="#191919"/>
<path d="M275.445 67.8355C275.185 67.8355 274.927 67.7192 274.755 67.4984C274.46 67.1183 274.529 66.5714 274.911 66.2771C275.686 65.6762 276.406 65.0088 277.167 64.3027C277.922 63.6021 278.703 62.8779 279.539 62.2299C279.92 61.935 280.468 62.0035 280.762 62.3843C281.058 62.7644 280.989 63.3113 280.608 63.6055C279.833 64.2058 279.115 64.8725 278.354 65.5779C277.597 66.2792 276.816 67.0041 275.979 67.6528C275.82 67.776 275.632 67.8355 275.445 67.8355Z" fill="#191919"/>
<path d="M299.182 82.4382C297.413 85.8457 293.183 87.8202 289.362 87.0372C285.548 86.2424 282.494 82.7442 282.3 78.94C282.113 75.124 284.798 71.3357 288.522 70.2163C291.327 69.3682 293.373 69.5932 296.32 71.2617L297.477 72.0384C300.347 74.6124 300.963 79.0376 299.183 82.4382H299.182Z" fill="#E8E0CD"/>
<path d="M291.058 88.0795C290.431 88.0795 289.804 88.0186 289.187 87.8926C284.978 87.0154 281.645 83.187 281.43 78.9868C281.222 74.7478 284.163 70.6203 288.271 69.3852C291.36 68.4506 293.657 68.7552 296.751 70.5067C296.77 70.5178 296.789 70.5296 296.807 70.5414L297.964 71.3181C297.997 71.341 298.03 71.3659 298.06 71.3929C301.171 74.1836 301.969 78.9999 299.955 82.8443C298.3 86.0324 294.689 88.0795 291.058 88.0795ZM291.423 70.6071C290.597 70.6071 289.743 70.7587 288.775 71.0516C285.465 72.0471 283.004 75.4934 283.172 78.8995C283.347 82.3334 286.085 85.4667 289.541 86.1867C292.999 86.897 296.813 85.113 298.408 82.0391C298.408 82.0391 298.41 82.0378 298.41 82.0364C300.049 78.9051 299.429 74.9998 296.939 72.727L295.862 72.0042C294.176 71.0523 292.84 70.6064 291.423 70.6064V70.6071Z" fill="#191919"/>
<path d="M230.516 114.795L194.776 113.162C193.805 113.118 192.982 113.868 192.937 114.838L192.736 119.223C192.692 120.192 193.443 121.014 194.414 121.059L230.154 122.692C231.125 122.736 231.949 121.986 231.993 121.016L232.194 116.632C232.239 115.662 231.487 114.84 230.516 114.795Z" fill="#191919"/>
<path d="M224.575 129.519H203.278C202.797 129.519 202.406 129.129 202.406 128.648C202.406 128.167 202.797 127.777 203.278 127.777H224.575C225.056 127.777 225.447 128.167 225.447 128.648C225.447 129.129 225.057 129.519 224.575 129.519Z" fill="#191919"/>
<path d="M228.472 136.297H207.802C207.321 136.297 206.93 135.907 206.93 135.426C206.93 134.944 207.32 134.555 207.802 134.555H228.472C228.953 134.555 229.344 134.944 229.344 135.426C229.344 135.907 228.954 136.297 228.472 136.297Z" fill="#191919"/>
<path d="M192.928 174.223H185.939V184.794H192.928V174.223Z" fill="#191919"/>
<path d="M192.93 185.666H185.941C185.459 185.666 185.068 185.276 185.068 184.795V174.222C185.068 173.742 185.459 173.352 185.941 173.352H192.93C193.411 173.352 193.802 173.741 193.802 174.222V184.795C193.802 185.275 193.412 185.666 192.93 185.666ZM186.813 183.924H192.058V175.093H186.813V183.924Z" fill="#191919"/>
<path d="M208.799 166.574H201.811V184.794H208.799V166.574Z" fill="#191919"/>
<path d="M208.8 185.664H201.812C201.33 185.664 200.939 185.275 200.939 184.793V166.574C200.939 166.094 201.33 165.703 201.812 165.703H208.8C209.281 165.703 209.673 166.093 209.673 166.574V184.793C209.673 185.274 209.282 185.664 208.8 185.664ZM202.684 183.923H207.929V167.445H202.684V183.923Z" fill="#191919"/>
<path d="M224.67 158.594H217.682V184.573H224.67V158.594Z" fill="#191919"/>
<path d="M224.671 185.444H217.683C217.202 185.444 216.811 185.054 216.811 184.573V158.594C216.811 158.113 217.201 157.723 217.683 157.723H224.671C225.153 157.723 225.544 158.112 225.544 158.594V184.573C225.544 185.053 225.153 185.444 224.671 185.444ZM218.555 183.703H223.8V159.464H218.555V183.703Z" fill="#191919"/>
<path d="M185.949 168.56C185.753 168.56 185.556 168.494 185.393 168.358C185.022 168.051 184.972 167.502 185.28 167.132C188.262 163.551 191.481 160.285 194.849 157.424C195.112 157.2 195.484 157.153 195.794 157.304C196.834 157.808 197.852 158.33 198.867 158.849C200.737 159.808 202.666 160.796 204.683 161.637C206.763 159.437 208.784 157.187 210.741 155.005C212.835 152.671 215.001 150.257 217.245 147.903C217.576 147.555 218.129 147.541 218.477 147.874C218.826 148.205 218.839 148.756 218.507 149.104C216.281 151.438 214.125 153.842 212.04 156.166C209.946 158.5 207.78 160.914 205.536 163.268C205.29 163.526 204.912 163.608 204.581 163.475C202.289 162.561 200.145 161.461 198.071 160.398C197.234 159.97 196.397 159.54 195.546 159.12C192.411 161.827 189.41 164.895 186.62 168.245C186.448 168.452 186.2 168.559 185.949 168.559V168.56Z" fill="#191919"/>
<path d="M221.169 152.092C218.606 150.016 216.044 147.941 213.48 145.864C216.843 145.583 220.58 144.739 223.943 144.457C223.19 146.882 222.345 149.704 221.169 152.092Z" fill="#191919"/>
<path d="M221.17 152.964C220.972 152.964 220.778 152.897 220.62 152.77L212.932 146.543C212.656 146.32 212.543 145.951 212.648 145.611C212.754 145.271 213.054 145.029 213.409 145C215.058 144.861 216.848 144.578 218.578 144.304C220.338 144.024 222.158 143.736 223.87 143.592C224.16 143.572 224.442 143.688 224.623 143.915C224.805 144.14 224.863 144.442 224.777 144.718L224.632 145.183C223.907 147.526 223.084 150.181 221.953 152.478C221.836 152.716 221.616 152.888 221.357 152.944C221.295 152.958 221.233 152.964 221.171 152.964H221.17ZM215.65 146.503L220.849 150.712C221.582 149.032 222.182 147.185 222.72 145.459C221.452 145.61 220.135 145.819 218.851 146.023C217.794 146.19 216.715 146.362 215.65 146.503H215.65Z" fill="#191919"/>
<path d="M172.41 163.211H139.101C138.62 163.211 138.229 162.821 138.229 162.34C138.229 161.859 138.619 161.469 139.101 161.469H172.411C172.892 161.469 173.283 161.859 173.283 162.34C173.283 162.821 172.892 163.211 172.411 163.211H172.41Z" fill="#191919"/>
<path d="M162.477 171.492H148.148C147.666 171.492 147.275 171.102 147.275 170.621C147.275 170.14 147.666 169.75 148.148 169.75H162.477C162.958 169.75 163.349 170.14 163.349 170.621C163.349 171.102 162.959 171.492 162.477 171.492Z" fill="#191919"/>
</svg>
