<svg width="167" height="171" viewBox="0 0 167 171" fill="none" xmlns="http://www.w3.org/2000/svg">
<path d="M150.852 114.925L146.91 102.025L155.219 90.3996L134.773 76.3594C132.13 80.6296 129.51 84.8774 126.868 89.1476C126.733 89.3712 126.577 89.6171 126.353 89.7513C126.039 89.9525 125.658 89.9525 125.3 89.9525C120.754 89.8854 116.186 89.8183 111.64 89.7065C109.4 85.4811 107.206 81.4568 104.765 77.6114C104.563 77.2984 104.339 76.9854 103.981 76.8959C103.623 76.8065 103.264 77.0077 102.951 77.1866C97.5316 80.406 92.1346 83.6478 86.7153 86.8672C86.5809 86.9566 86.4242 87.046 86.3346 87.1802C86.1107 87.5155 86.3122 87.985 86.5137 88.3428C88.5516 91.9199 90.9925 95.2734 93.7694 98.3364C91.3285 102.808 88.7531 106.966 85.9315 110.946C85.2597 111.907 84.4759 112.913 83.3562 113.249C82.4156 113.517 81.4079 113.249 80.4674 113.003C76.6604 111.929 72.8982 110.722 69.1808 109.381C66.0008 116.826 65.3962 125.299 67.4788 133.124C67.7924 133.728 81.923 131.715 81.923 131.715L90.3431 146.203L83.5801 157.225L99.0768 168.426L107.116 156.755L121.314 157.024L126.801 169.32L147.985 162.054L142.857 149.445L150.471 137.215L164.826 136.075L165.273 118.704L150.852 114.948V114.925ZM126.42 121.498C126.577 122.124 126.017 123.309 125.793 123.868C125.591 124.36 125.39 124.807 125.099 125.254C124.561 126.059 123.867 126.864 123.15 127.512C121.628 128.898 119.948 129.927 118.022 130.62C117.238 130.911 116.41 131.089 115.581 131.224C114.842 131.335 114.193 131.402 113.454 131.335C113.006 131.291 112.536 131.157 112.088 131.134C113.342 131.134 111.976 131.134 111.483 131.022C109.311 130.419 107.161 128.653 106.108 126.685C105.459 125.5 104.899 124.181 104.832 122.817C104.787 121.588 105.101 120.313 105.593 119.195C106.288 117.586 107.071 115.976 108.079 114.523C109.221 112.913 110.632 111.214 112.446 110.32C114.282 109.403 116.253 109.269 118.044 109.94C118.783 109.604 119.634 109.493 120.329 109.761C121.65 110.253 122.77 110.879 123.688 111.974C124.606 113.047 125.188 114.098 125.703 115.395C125.86 115.797 125.994 116.2 126.106 116.624C126.174 116.87 126.218 117.116 126.263 117.362C126.308 117.742 126.375 118.145 126.42 118.525C126.42 118.435 126.42 118.346 126.42 118.257C126.375 117.921 126.397 117.899 126.442 118.212C126.509 118.614 126.554 118.994 126.599 119.397C126.599 119.598 126.621 119.799 126.621 120C126.621 120.492 126.577 121.006 126.442 121.476L126.42 121.498Z" fill="#E8E0CD"/>
<path d="M89.0663 130.289C89.0663 130.289 88.9991 130.289 88.9543 130.289C88.7528 130.222 88.6408 130.021 88.6856 129.819C92.7165 116.092 97.5088 102.41 102.883 89.1518C102.973 88.9506 103.197 88.8612 103.376 88.9283C103.578 89.0177 103.667 89.2413 103.6 89.4201C98.2254 102.655 93.4555 116.316 89.4246 129.998C89.3798 130.155 89.223 130.266 89.0439 130.266L89.0663 130.289Z" fill="#191919"/>
<path d="M95.2733 132.504C95.2733 132.504 95.2061 132.504 95.1613 132.504C94.9598 132.437 94.8478 132.236 94.8926 132.035C98.6324 119.09 103.559 106.391 109.561 94.2958C109.65 94.0946 109.897 94.0276 110.076 94.117C110.277 94.2064 110.344 94.4523 110.255 94.6312C104.276 106.682 99.349 119.313 95.6316 132.236C95.5868 132.415 95.4301 132.504 95.2509 132.504H95.2733Z" fill="#191919"/>
<path d="M92.9438 157.335C92.9438 157.335 92.8542 157.335 92.787 157.313C92.5855 157.223 92.4959 157 92.5855 156.821L102.864 132.228C102.954 132.027 103.178 131.937 103.357 132.027C103.559 132.116 103.648 132.34 103.559 132.519L93.2797 157.111C93.2125 157.268 93.0782 157.357 92.9214 157.357L92.9438 157.335Z" fill="#191919"/>
<path d="M106.449 152.061C106.449 152.061 106.359 152.061 106.314 152.038C106.113 151.949 106.023 151.725 106.113 151.546L111.846 137.439C111.935 137.238 112.159 137.148 112.338 137.238C112.54 137.327 112.629 137.551 112.54 137.73L106.807 151.837C106.74 151.993 106.606 152.083 106.449 152.083V152.061Z" fill="#191919"/>
<path d="M117.198 105.514C117.198 105.514 117.131 105.514 117.086 105.514C116.885 105.447 116.773 105.246 116.84 105.022L119.572 96.3475C119.639 96.1462 119.863 96.0345 120.065 96.1015C120.266 96.1686 120.378 96.3922 120.311 96.5934L117.579 105.268C117.534 105.424 117.377 105.536 117.221 105.536L117.198 105.514Z" fill="#191919"/>
<path d="M128.013 107.795C128.013 107.795 127.924 107.795 127.879 107.773C127.677 107.706 127.588 107.482 127.655 107.281C130.454 99.8585 133.679 92.4807 137.217 85.3935C137.307 85.1923 137.553 85.1252 137.732 85.2146C137.934 85.3041 138.001 85.55 137.911 85.7289C134.373 92.7937 131.171 100.149 128.371 107.549C128.304 107.706 128.17 107.795 128.013 107.795Z" fill="#191919"/>
<path d="M117.176 152.198C117.176 152.198 117.064 152.198 117.019 152.154C116.817 152.064 116.75 151.841 116.84 151.639L142.951 96.7529C143.041 96.5517 143.265 96.4846 143.466 96.574C143.668 96.6634 143.735 96.887 143.645 97.0882L117.534 151.975C117.467 152.109 117.332 152.198 117.176 152.198Z" fill="#191919"/>
<path d="M127.609 154.414C127.609 154.414 127.497 154.414 127.452 154.369C127.251 154.28 127.184 154.056 127.273 153.855L144.808 116.518C144.897 116.317 145.121 116.25 145.323 116.34C145.524 116.429 145.592 116.653 145.502 116.854L127.968 154.19C127.9 154.324 127.766 154.414 127.609 154.414Z" fill="#191919"/>
<path d="M146.309 135.741C146.309 135.741 146.175 135.741 146.13 135.697C145.951 135.585 145.884 135.361 145.973 135.182L153.677 121.321C153.789 121.142 154.013 121.075 154.192 121.164C154.371 121.276 154.438 121.5 154.348 121.679L146.645 135.54C146.578 135.674 146.443 135.741 146.309 135.741Z" fill="#191919"/>
<path d="M133.362 161.989C133.362 161.989 133.25 161.989 133.183 161.944C133.004 161.854 132.914 161.609 133.004 161.43L136.497 154.499C136.587 154.298 136.833 154.231 137.012 154.32C137.192 154.41 137.281 154.655 137.192 154.834L133.698 161.765C133.631 161.899 133.497 161.966 133.362 161.966V161.989Z" fill="#191919"/>
<path d="M74.3777 127.068C74.3777 127.068 74.2657 127.068 74.1985 127.023C73.997 126.934 73.9298 126.71 74.0194 126.509L78.7445 116.851C78.8341 116.649 79.058 116.582 79.2596 116.672C79.4611 116.761 79.5283 116.985 79.4387 117.186L74.7136 126.844C74.6464 126.978 74.5121 127.068 74.3777 127.068Z" fill="#191919"/>
<path d="M94.2856 90.647C94.2856 90.647 94.1512 90.647 94.1064 90.6023C93.9273 90.4905 93.8601 90.2669 93.9497 90.0881L97.4431 83.8952C97.5551 83.7163 97.779 83.6492 97.9582 83.7387C98.1373 83.8504 98.2045 84.074 98.1149 84.2529L94.6215 90.4458C94.5543 90.5799 94.4199 90.647 94.2856 90.647Z" fill="#191919"/>
<path d="M125.929 170.71C125.459 170.71 125.034 170.419 124.854 169.994C123.309 166.193 121.719 162.281 119.278 158.458C114.665 159.017 110.03 158.748 105.64 158.324C104.341 160.604 103.087 162.929 101.766 165.366C101.05 166.708 100.288 168.094 99.5044 169.547C99.2357 170.061 98.6086 170.285 98.0712 170.061C91.2858 167.468 85.3514 163.22 80.9622 157.832C80.6263 157.429 80.6263 156.848 80.9174 156.423C83.2911 153.182 85.7321 149.85 88.3522 145.759C85.5529 142.204 83.0672 137.912 80.783 132.703C79.6633 132.926 78.5436 133.15 77.4015 133.396C74.0872 134.089 70.6609 134.782 66.9659 135.296C66.3837 135.363 65.8462 135.028 65.6895 134.469C63.6068 126.934 64.1891 118.416 67.4362 109.161C67.6377 108.602 68.22 108.266 68.8022 108.423C73.5274 109.585 78.4092 110.793 83.5823 112.022C85.6425 107.685 88.2178 103.638 90.9499 99.3905C88.6209 96.3499 86.0008 92.8175 83.6718 88.6591C83.4031 88.1896 83.5151 87.586 83.9182 87.2283C88.9792 82.7345 95.3615 78.822 102.908 75.5802C103.446 75.3567 104.073 75.5802 104.364 76.0721C106.738 80.1634 108.865 84.456 110.701 88.8156C115.628 88.0331 120.644 87.8543 125.638 88.279C127.833 84.1653 130.117 79.9175 133.006 75.4685C133.319 74.9766 133.969 74.7977 134.506 75.066C140.015 77.8607 145.233 81.2589 150.025 85.1938C151.302 86.2445 152.556 87.34 153.765 88.3908L153.832 88.4355C154.459 88.9721 155.153 89.5757 155.377 90.4924C155.467 90.8054 155.4 91.1631 155.221 91.4314C154.123 93.0187 153.004 94.5837 151.862 96.1934C150.272 98.4291 148.637 100.71 146.935 103.258C148.413 106.858 149.913 110.524 151.279 114.191C155.333 114.549 160.573 115.309 166.171 117.567C166.597 117.723 166.866 118.126 166.888 118.573C167.313 125.548 166.373 131.92 164.021 138.046C163.842 138.515 163.417 138.806 162.902 138.784L161.334 138.717C157.639 138.582 153.832 138.426 149.757 138.739C148.234 142.383 145.905 146.072 142.456 150.186C144.606 153.875 146.801 157.72 148.726 162.259C148.95 162.817 148.726 163.443 148.211 163.734C140.956 167.58 133.521 169.927 126.064 170.687C126.019 170.687 125.974 170.687 125.952 170.687L125.929 170.71ZM119.838 156.066C120.219 156.066 120.577 156.267 120.801 156.58C123.421 160.515 125.101 164.472 126.668 168.317C133.207 167.535 139.746 165.478 146.151 162.191C144.27 157.921 142.12 154.232 140.038 150.655C139.791 150.23 139.836 149.694 140.149 149.336C143.912 144.909 146.353 141.064 147.853 137.241C148.01 136.839 148.39 136.548 148.816 136.503C153.317 136.078 157.415 136.257 161.401 136.391H162.14C164.089 131.07 164.895 125.481 164.626 119.422C159.207 117.366 154.168 116.74 150.339 116.404C149.891 116.359 149.51 116.069 149.353 115.644C147.875 111.62 146.196 107.528 144.561 103.571C144.404 103.214 144.449 102.789 144.651 102.453C146.487 99.6811 148.256 97.2219 149.958 94.8297C150.966 93.4212 151.929 92.0574 152.892 90.6936C152.713 90.5147 152.489 90.3135 152.309 90.157L152.242 90.09C151.033 89.0392 149.801 87.966 148.547 86.9376C144.18 83.3381 139.41 80.1858 134.394 77.57C131.662 81.8626 129.468 85.9986 127.318 90.0005C127.094 90.403 126.646 90.6713 126.176 90.6042C120.846 90.0676 115.449 90.2688 110.186 91.1855C109.671 91.2749 109.134 90.9842 108.91 90.4924C107.141 86.2445 105.103 82.0861 102.841 78.0619C96.302 80.9683 90.6812 84.3889 86.1352 88.279C88.4418 92.2362 90.9947 95.6569 93.2565 98.5633C93.5476 98.9434 93.57 99.4799 93.3236 99.9047C90.3005 104.6 87.434 109.026 85.2842 113.788C85.0603 114.28 84.5004 114.549 83.963 114.437C78.8123 113.207 73.9528 112.022 69.2725 110.86C66.63 118.886 66.0925 126.264 67.6601 132.814C70.8849 132.345 73.9528 131.696 76.9089 131.093C78.3645 130.802 79.7977 130.489 81.2309 130.221C81.7683 130.109 82.3058 130.4 82.5074 130.914C84.9483 136.637 87.5908 141.221 90.6364 144.909C90.9499 145.29 90.9947 145.848 90.7259 146.251C88.0835 150.409 85.6425 153.785 83.2911 157.005C87.1653 161.521 92.1816 165.12 97.9144 167.49C98.5191 166.372 99.1013 165.299 99.6835 164.226C101.139 161.521 102.505 158.972 103.961 156.468C104.185 156.066 104.633 155.864 105.08 155.887C109.761 156.356 114.777 156.714 119.637 156.021C119.681 156.021 119.749 156.021 119.793 156.021L119.838 156.066Z" fill="#191919"/>
<path d="M114.375 132.194C112.516 132.194 110.635 131.814 108.91 131.076C107.432 130.45 106.38 129.645 105.686 128.684C104.723 127.342 104.499 125.733 104.387 124.481C104.029 119.987 105.126 115.896 107.477 112.967C110.299 109.457 114.979 107.892 118.876 109.166C119.1 109.233 119.301 109.39 119.436 109.569C119.503 109.569 119.57 109.613 119.637 109.636C123.758 110.977 126.826 115.024 127.072 119.45C127.318 123.676 124.967 128.036 121.25 130.316C119.212 131.568 116.816 132.194 114.375 132.194ZM116.077 111.044C113.613 111.044 110.993 112.296 109.291 114.42C107.32 116.879 106.38 120.389 106.693 124.302C106.761 125.263 106.94 126.471 107.567 127.342C108.015 127.968 108.754 128.505 109.829 128.975C113.165 130.405 117.084 130.182 120.04 128.371C123.063 126.515 124.967 123.005 124.765 119.607C124.564 116.164 122.1 112.9 118.921 111.849C118.809 111.804 118.674 111.782 118.562 111.737C118.226 111.648 117.778 111.514 117.465 111.201C117.017 111.111 116.547 111.067 116.077 111.067V111.044ZM118.517 110.262L118.741 111.402L118.495 110.284L118.517 110.262Z" fill="#191919"/>
<path d="M93.8127 38.2264C91.8868 35.2306 91.1478 31.4299 92.0883 27.9869C92.8945 25.0581 94.8204 22.5318 97.1494 20.3184C94.4173 16.2494 91.3941 12.3593 88.1246 8.7151C87.8335 8.37974 87.5423 8.06674 87.184 7.82081C86.6242 7.41839 85.9076 7.1501 85.2134 6.6806C82.235 9.90002 77.801 11.7333 73.3445 11.6662C67.5669 10.9508 62.3715 6.72532 60.4008 1.20312C54.8023 2.09741 49.3158 3.68476 44.1876 5.87575C45.2401 7.64196 45.5312 9.76588 45.4864 11.8227C45.4416 14.0361 45.0833 16.2941 44.098 18.2839C43.135 20.2737 41.5227 22.0175 39.4848 22.8895C38.2979 23.4037 37.0215 23.6049 35.7226 23.7167C33.5056 23.9179 31.2438 23.8508 29.0492 23.672C29.0492 23.672 24.8168 39.3219 25.3094 39.3219C26.6755 39.6573 28.0415 40.0373 29.4075 40.4398C30.9079 40.8869 32.4083 41.4011 33.7296 42.273C35.0284 43.145 36.1481 44.397 36.5288 45.9172C36.7752 46.9233 36.708 47.9964 36.5288 49.0249C35.9018 52.7585 33.9535 56.2462 31.1095 58.7502C31.1095 58.7502 41.5899 69.1239 41.7466 69.0121C42.9335 67.2459 44.9042 66.2174 46.7853 65.2337C47.5915 64.8313 48.3752 64.4065 49.2262 64.1382C52.3166 63.1545 55.8772 64.1606 58.251 66.3739C60.6248 68.5873 61.8788 71.8514 62.058 75.1379C65.7754 74.9367 69.4928 74.646 73.1878 74.2883C74.8002 74.1318 76.4797 73.9306 78.0025 72.7233C77.9129 69.4369 78.6071 66.128 80.0404 63.1769C80.7346 61.746 81.6079 60.3599 82.8172 59.3315C84.6311 57.8112 87.1169 57.1852 89.4682 57.3193C91.842 57.4535 94.1262 58.2807 96.4104 59.175C98.8289 54.5918 101.292 49.9191 102.076 44.6205C98.7169 43.4132 95.6714 41.1775 93.7679 38.1817L93.8127 38.2264ZM75.9199 39.2101C75.6511 41.3564 74.6882 43.3462 73.3445 45.023C72.6727 45.8725 71.8665 46.5879 71.0156 47.2363C70.1646 47.8623 69.0673 48.4659 68.0372 48.7342C66.9175 49.0249 65.6858 48.8907 64.5437 48.8907C63.3568 48.8907 62.1476 48.8907 61.0055 48.4659C59.9305 48.0859 58.99 47.3928 58.1614 46.5879C57.3552 45.8278 56.3923 45.1124 55.8324 44.1287C53.6602 40.2833 54.2873 35.1858 56.885 31.6981C58.2734 29.8425 60.2217 28.434 62.2819 27.3609C64.4989 26.1983 67.0966 25.7959 69.5152 26.5113C70.2542 26.7349 70.5229 27.3609 70.4109 27.9645C74.3747 30.0214 76.4349 34.8952 75.8975 39.2548L75.9199 39.2101Z" fill="#E8E0CD"/>
<path d="M61.9454 76.3473C61.3408 76.3473 60.8257 75.8778 60.781 75.2518C60.6018 72.2559 59.2582 69.3495 57.0412 67.2927C56.1454 66.4431 54.7122 65.4147 53.055 65.2582C51.5994 65.1017 50.099 65.6383 48.6658 66.1748C46.4264 67.0244 44.1646 68.1199 42.7762 70.2438C42.597 70.5121 42.3283 70.6909 42.0148 70.758C41.7013 70.8027 41.3654 70.7357 41.119 70.5344C36.5506 67.0467 32.99 63.6038 30.1908 60.0043C29.8101 59.5124 29.8996 58.797 30.3699 58.4169C33.0124 56.2259 34.8935 53.0289 35.4981 49.653C35.7221 48.3562 35.7221 47.3725 35.4533 46.5677C34.9831 45.1368 33.617 43.8625 31.3776 42.7893C29.2502 41.7609 26.9436 41.0678 24.4803 40.6654C24.1668 40.6207 23.898 40.4418 23.7189 40.1959C23.5397 39.95 23.4726 39.637 23.5173 39.324C24.4131 33.9583 25.9359 28.5702 28.0409 23.2716C28.2649 22.6903 28.9143 22.3997 29.4965 22.6009C32.3182 23.607 39.1036 23.5399 41.7237 20.4323C46.3144 14.9772 44.1422 8.69483 43.3584 6.90626C43.1121 6.34734 43.3584 5.67662 43.9183 5.40834C46.6727 4.08927 51.2411 2.74785 56.0782 1.36171C57.5562 0.936928 59.079 0.489787 60.5794 0.0426457C60.9825 -0.0691396 61.4304 0.0426457 61.7215 0.333287C62.0126 0.623929 62.147 1.07107 62.035 1.4735C61.8783 2.45721 64.4984 7.08512 68.2382 9.00782C77.3077 13.6581 83.063 7.86762 84.6082 5.96727C84.8097 5.72134 85.1232 5.56484 85.4591 5.54248C85.795 5.54248 86.1086 5.65427 86.3325 5.87784C90.9681 10.5505 94.887 15.2007 98.3357 20.0969C98.694 20.6111 98.582 21.3266 98.067 21.7066C94.2376 24.4566 92.2669 29.5987 93.2523 34.2042C94.2376 38.7874 98.1565 42.6999 102.994 43.9295C103.307 44.019 103.553 44.1978 103.71 44.4885C103.867 44.7568 103.912 45.0921 103.822 45.3828C102.21 50.7932 99.9033 56.0918 97.1488 60.6973C96.8577 61.1892 96.2307 61.3904 95.6932 61.1668C92.1773 59.6466 88.7735 58.3722 85.7279 59.423C83.5556 60.1608 81.6522 62.2176 80.622 64.9228C79.8159 67.0467 79.5695 69.3942 79.2784 71.8759C79.2112 72.4124 79.1664 72.949 79.0992 73.4856C79.0321 73.9774 78.6738 74.3799 78.1811 74.4693C72.5378 75.6319 67.2304 76.2579 61.923 76.392C61.923 76.392 61.923 76.392 61.9007 76.392L61.9454 76.3473ZM52.5847 62.933C52.8311 62.933 53.055 62.933 53.3014 62.9778C55.1377 63.1566 56.974 64.0733 58.6535 65.6159C61.0049 67.8069 62.5725 70.8251 62.998 74.0221C67.5439 73.8433 72.1347 73.2844 76.9494 72.3454C76.9718 72.0994 77.0166 71.8311 77.039 71.5852C77.3301 68.9471 77.5988 66.4878 78.517 64.0733C79.7935 60.6973 82.1672 58.1933 85.0336 57.2096C88.5495 56.0024 92.2221 57.1426 95.738 58.6181C97.9774 54.7056 99.9033 50.3237 101.336 45.8075C96.2083 44.0413 92.1549 39.7041 91.0576 34.6737C89.9603 29.5763 91.9086 23.92 95.8724 20.5217C92.8716 16.3633 89.4901 12.3837 85.5935 8.35947C83.1302 10.8411 76.6359 15.8267 67.2304 11.0423C63.8041 9.29847 60.7586 5.36363 59.9748 2.63606C58.8999 2.94906 57.8249 3.26206 56.7724 3.57506C52.5848 4.8047 48.5986 5.94491 45.9337 7.06276C46.9639 9.99154 48.2851 16.2739 43.5376 21.9302C40.38 25.7085 33.6394 25.9768 29.8324 25.1049C28.1305 29.5763 26.854 34.0924 26.0031 38.6086C28.2649 39.0557 30.3923 39.7711 32.3854 40.7101C35.2518 42.0963 36.9761 43.7954 37.648 45.8746C38.0287 47.0819 38.0734 48.401 37.7599 50.0777C37.1105 53.6102 35.2742 56.9637 32.6765 59.4453C35.0503 62.3518 37.9615 65.1687 41.5893 68.0081C43.3136 65.9736 45.6874 64.8781 47.8372 64.0509C49.248 63.5143 50.8604 62.9554 52.5624 62.9554L52.5847 62.933Z" fill="#191919"/>
<path d="M65.306 50.7966C61.3422 50.7966 57.3561 48.9186 54.9824 45.6992C53.9746 44.3354 53.3028 42.8151 53.0565 41.3395C52.8325 39.931 52.9221 38.4108 53.3476 36.6446C54.3105 32.7768 56.5499 29.4232 59.4835 27.5005C62.8874 25.2648 67.2319 24.9295 70.5686 26.651C74.6219 28.7525 77.3763 33.1792 77.5779 37.9636C77.8018 43.2399 74.174 48.4938 69.1577 50.1929C67.9037 50.6177 66.6048 50.8189 65.306 50.8189V50.7966ZM65.933 27.8359C64.1639 27.8359 62.35 28.3724 60.7824 29.4009C58.3191 31.0329 56.438 33.8499 55.6094 37.1811C55.2511 38.6343 55.1615 39.864 55.3407 40.9595C55.5198 42.0773 56.0573 43.2399 56.8411 44.3354C59.394 47.8007 64.3878 49.3657 68.4411 48.0019C72.5392 46.6158 75.4953 42.3456 75.2937 38.0531C75.1146 34.0735 72.8528 30.4069 69.5161 28.6854C68.4187 28.1265 67.1871 27.8359 65.9106 27.8359H65.933Z" fill="#191919"/>
<path d="M46.5734 105.729C45.2977 103.744 44.8081 101.226 45.4312 98.9457C45.9652 97.0055 47.241 95.332 48.7838 93.8658C46.974 91.1703 44.9713 88.5934 42.8055 86.1793C42.6126 85.9572 42.4198 85.7498 42.1824 85.5869C41.8115 85.3203 41.3368 85.1426 40.8769 84.8316C38.9039 86.9643 35.9667 88.1787 33.0146 88.1343C29.1873 87.6603 25.7457 84.8612 24.4402 81.2031C20.7316 81.7955 17.0971 82.847 13.7 84.2984C14.3972 85.4684 14.59 86.8754 14.5604 88.2379C14.5307 89.7041 14.2933 91.2 13.6406 92.5181C13.0027 93.8362 11.9346 94.9914 10.5847 95.5689C9.79847 95.9096 8.95289 96.0429 8.09249 96.1169C6.62386 96.2502 5.12557 96.2058 3.67178 96.0873C3.67178 96.0873 0.868039 106.454 1.1944 106.454C2.09931 106.677 3.00422 106.928 3.90913 107.195C4.90305 107.491 5.89697 107.832 6.77221 108.409C7.63262 108.987 8.37435 109.816 8.62653 110.823C8.78971 111.49 8.74521 112.201 8.62653 112.882C8.21116 115.355 6.92056 117.666 5.03656 119.324C5.03656 119.324 11.9792 126.196 12.083 126.122C12.8692 124.952 14.1747 124.271 15.4208 123.619C15.9548 123.353 16.474 123.071 17.0378 122.894C19.0849 122.242 21.4436 122.908 23.0161 124.375C24.5886 125.841 25.4193 128.003 25.538 130.18C28.0005 130.047 30.4631 129.854 32.9108 129.617C33.9789 129.514 35.0915 129.38 36.1002 128.581C36.0409 126.404 36.5007 124.212 37.4502 122.257C37.91 121.309 38.4886 120.391 39.2896 119.709C40.4912 118.702 42.1379 118.288 43.6955 118.377C45.268 118.465 46.7811 119.013 48.2942 119.606C49.8964 116.57 51.5282 113.474 52.0474 109.964C49.8222 109.165 47.8047 107.684 46.5438 105.699L46.5734 105.729ZM34.7206 106.38C34.5426 107.802 33.9047 109.12 33.0146 110.231C32.5696 110.794 32.0355 111.268 31.4718 111.697C30.9081 112.112 30.1812 112.512 29.4988 112.689C28.7571 112.882 27.9412 112.793 27.1846 112.793C26.3984 112.793 25.5973 112.793 24.8407 112.512C24.1287 112.26 23.5056 111.801 22.9568 111.268C22.4227 110.764 21.7848 110.29 21.414 109.639C19.975 107.091 20.3904 103.715 22.1112 101.404C23.0309 100.175 24.3215 99.2419 25.6863 98.531C27.1549 97.7608 28.8758 97.4943 30.4779 97.9682C30.9674 98.1163 31.1455 98.531 31.0713 98.9308C33.697 100.293 35.0618 103.522 34.7058 106.41L34.7206 106.38Z" fill="#E8E0CD"/>
<path d="M25.4651 130.981C25.0645 130.981 24.7233 130.67 24.6937 130.256C24.575 128.271 23.6849 126.346 22.2163 124.983C21.6229 124.421 20.6735 123.739 19.5757 123.636C18.6115 123.532 17.6176 123.887 16.6682 124.243C15.1847 124.806 13.6864 125.531 12.7667 126.938C12.648 127.116 12.47 127.234 12.2623 127.279C12.0546 127.309 11.8321 127.264 11.6689 127.131C8.64264 124.82 6.28394 122.54 4.42961 120.155C4.17742 119.829 4.23676 119.356 4.54829 119.104C6.29877 117.652 7.54488 115.534 7.94541 113.298C8.09376 112.439 8.09376 111.788 7.91574 111.254C7.60422 110.307 6.6993 109.462 5.21584 108.751C3.80656 108.07 2.27859 107.611 0.646789 107.344C0.439104 107.315 0.261089 107.196 0.142412 107.033C0.0237354 106.871 -0.0207684 106.663 0.00890076 106.456C0.602285 102.901 1.61104 99.3322 3.00549 95.8222C3.15384 95.4372 3.58404 95.2446 3.96974 95.3779C5.8389 96.0444 10.3338 95.9999 12.0694 93.9413C15.1105 90.3277 13.6716 86.166 13.1524 84.9812C12.9892 84.611 13.1524 84.1667 13.5232 83.9889C15.3479 83.1151 18.3741 82.2265 21.5784 81.3083C22.5575 81.0269 23.5662 80.7307 24.5602 80.4345C24.8272 80.3604 25.1239 80.4345 25.3167 80.627C25.5096 80.8196 25.5986 81.1158 25.5244 81.3823C25.4206 82.034 27.1562 85.0997 29.6336 86.3734C35.6416 89.4539 39.4541 85.618 40.4777 84.3592C40.6112 84.1963 40.8189 84.0926 41.0414 84.0778C41.2639 84.0778 41.4716 84.1518 41.6199 84.2999C44.6907 87.3953 47.2868 90.4758 49.5713 93.7192C49.8086 94.0598 49.7345 94.5337 49.3933 94.7855C46.8566 96.6072 45.5511 100.013 46.2038 103.064C46.8566 106.1 49.4526 108.692 52.6569 109.507C52.8646 109.566 53.0278 109.684 53.1316 109.877C53.2354 110.055 53.2651 110.277 53.2058 110.469C52.1377 114.053 50.6097 117.563 48.7851 120.614C48.5922 120.94 48.1768 121.073 47.8208 120.925C45.4918 119.918 43.2369 119.074 41.2194 119.77C39.7805 120.259 38.5195 121.621 37.8371 123.413C37.3031 124.82 37.1399 126.376 36.9471 128.019C36.9025 128.375 36.8729 128.73 36.8284 129.086C36.7839 129.412 36.5465 129.678 36.2202 129.737C32.4818 130.508 28.966 130.922 25.4502 131.011C25.4502 131.011 25.4502 131.011 25.4354 131.011L25.4651 130.981ZM19.2642 122.095C19.4274 122.095 19.5757 122.095 19.7389 122.125C20.9554 122.243 22.1718 122.851 23.2844 123.873C24.842 125.324 25.8804 127.323 26.1623 129.441C29.1737 129.323 32.2148 128.952 35.4043 128.33C35.4191 128.168 35.4488 127.99 35.4636 127.827C35.6564 126.079 35.8345 124.45 36.4427 122.851C37.2882 120.614 38.8607 118.956 40.7595 118.304C43.0886 117.504 45.5215 118.26 47.8505 119.237C49.3339 116.645 50.6097 113.742 51.5591 110.751C48.162 109.581 45.4769 106.708 44.75 103.375C44.0232 99.9987 45.3138 96.2517 47.9395 94.0006C45.9517 91.2459 43.7116 88.6097 41.1304 85.9439C39.4986 87.5878 35.1966 90.8904 28.966 87.7211C26.6963 86.5659 24.6788 83.9593 24.1596 82.1525C23.4476 82.3598 22.7355 82.5672 22.0383 82.7745C19.2642 83.5891 16.6237 84.3444 14.8583 85.0849C15.5407 87.025 16.416 91.1867 13.271 94.9336C11.1794 97.4365 6.71414 97.6142 4.19226 97.0366C3.06483 99.9987 2.21926 102.99 1.65554 105.982C3.15384 106.278 4.56312 106.752 5.8834 107.374C7.78223 108.292 8.92449 109.418 9.36953 110.795C9.62172 111.595 9.65139 112.469 9.44371 113.58C9.0135 115.92 7.79707 118.141 6.07625 119.785C7.64872 121.71 9.57722 123.576 11.9804 125.457C13.1227 124.11 14.6952 123.384 16.1193 122.836C17.0539 122.48 18.1219 122.11 19.2494 122.11L19.2642 122.095Z" fill="#191919"/>
<path d="M27.6933 114.058C25.0676 114.058 22.4271 112.814 20.8546 110.682C20.187 109.778 19.742 108.771 19.5788 107.794C19.4305 106.861 19.4898 105.854 19.7717 104.684C20.4095 102.121 21.893 99.8999 23.8363 98.6263C26.0912 97.1452 28.9691 96.9231 31.1795 98.0635C33.8645 99.4556 35.6892 102.388 35.8227 105.557C35.971 109.053 33.5678 112.533 30.2449 113.659C29.4141 113.94 28.5537 114.073 27.6933 114.073V114.058ZM28.1087 98.8484C26.9368 98.8484 25.7352 99.2038 24.6967 99.8851C23.0649 100.966 21.8188 102.832 21.27 105.039C21.0326 106.002 20.9733 106.816 21.0919 107.542C21.2106 108.282 21.5666 109.053 22.0859 109.778C23.777 112.074 27.0851 113.111 29.7702 112.207C32.4849 111.289 34.4431 108.46 34.3096 105.617C34.1909 102.98 32.6926 100.552 30.4822 99.4112C29.7553 99.0409 28.9394 98.8484 28.0939 98.8484H28.1087Z" fill="#191919"/>
</svg>
