<svg width="241" height="244" viewBox="0 0 241 244" fill="none" xmlns="http://www.w3.org/2000/svg">
<path d="M51.1615 198.094L42.8128 193.297L41.8083 193.781L38.8303 192.741L35.6371 189.328L33.3365 184.556L31.5631 173.493L30.3909 155.331L30.1342 125.585L30.2622 121.034L27.2821 115.816L27.0558 109.889L28.9779 101.998L32.7613 94.757L37.8946 89.0321L39.8949 88.6869L42.3304 84.1078L48.8655 71.9806L58.9999 56.7253L66.1695 48.1615L76.9024 38.9631L87.5253 33.068L97.9262 29.6015L110.812 26.7944L127.029 26.4048L139.852 27.9616L150.907 30.9894L161.442 35.5062L175.283 44.3108L185.755 53.1914L191.397 59.7577L198.353 70.3335L203.01 80.3151L206.766 92.2789L207.554 106.756L207.547 111.558L218.104 84.3364L222.071 72.9828L224.713 71.3997L227.767 75.8086L230.59 83.2695L230.164 86.8799L227.432 94.6971L224.122 99.3883L219.569 112.417L214.359 132.108L212.899 133.895L207.645 139.369L203.357 142.674L202.427 142.349L202.577 144.908L202.94 145.661L203.537 147.541L203.81 154.528L203.404 161.07L199.928 168.627L195.483 174.174L191.65 176.177L188.813 178.318L176.986 194.235L156.155 216.195L148.492 224.378L143.031 226.855L138.286 227.286L136.611 226.7L134.572 225.362L133.074 225.465L119.265 223.145L112.565 220.804L111.466 219.167L109.419 218.451L106.104 214.787L100.211 208.342L96.962 204.491L96.8859 201.123L98.3818 196.842L107.301 188.054L157.046 137.143L160.905 133.27L165.529 132.588L168.545 135.313C170.538 138.377 174.51 144.54 174.458 144.689C174.406 144.838 177.367 149.117 178.853 151.238L178.622 154.29L177.712 156.895L183.634 165.648L188.173 162.222L191.068 147.361L193.961 145.657L195.132 142.306L188.644 138.16L191.108 114.376L194.057 113.109L192.983 105.424L191.976 101.73L191.371 100.475L189.742 100.95L186.392 99.7793L181.282 95.2784L175.64 88.7122L171.422 82.8524L165.24 74.8442L155.521 65.6003L146.307 60.2919L135.512 56.5196L123.992 55.4181L107.44 57.3618L97.1692 60.456L88.6007 62.2654L80.3572 63.1441L77.3791 62.1035L76.3455 60.2803L71.6294 63.0182L66.7562 67.9986L67.9582 71.1337L55.2581 91.3403L47.3488 90.665L46.1781 94.0152L47.38 97.1503L46.2093 100.501C44.6133 103.076 41.306 108.436 40.8449 109.277C40.3838 110.119 40.542 111.539 40.6788 112.143L41.7416 116.274L43.2486 115.548L50.8866 113.413L52.2254 111.375L54.4569 107.977L62.355 105.098L74.0027 101.65L76.4313 101.872L78.4787 102.587L79.8196 104.727L80.5191 108.104L88.9904 190.846L88.6763 195.331L87.5706 198.495L84.5476 200.571L71.6622 203.378L65.1208 202.972L62.1248 203.178L51.1615 198.094Z" fill="#E8E0CD"/>
<path d="M46.307 94.3295L45.1227 93.6282L47.2852 89.9799L55.1036 90.9939L67.2174 71.0688L62.196 63.5425L56.3166 61.1946L56.8265 59.9183L63.1037 62.4248L68.8484 71.0357L55.8153 92.4724L48.0083 91.4599L46.307 94.3295Z" fill="#191919"/>
<path d="M45.1701 79.6754L44.5039 80.3047L55.526 91.9417L56.1921 91.3124L45.1701 79.6754Z" fill="#191919"/>
<path d="M49.9131 85.4469L47.1211 90.2695L47.9154 90.7288L50.7074 85.9062L49.9131 85.4469Z" fill="#191919"/>
<path d="M65.846 204.079C65.3601 203.909 64.8956 203.666 64.4654 203.351C63.2813 202.486 62.5282 201.209 62.3463 199.755L51.5103 113.149C51.1446 110.229 52.9194 107.471 55.7296 106.591L73.2331 101.11C74.9155 100.583 76.726 100.836 78.1993 101.805C79.6734 102.774 80.6225 104.334 80.8047 106.087L89.8374 193.149C90.2471 197.095 87.5093 200.754 83.6048 201.48L68.5381 204.278C67.6198 204.449 66.6993 204.377 65.846 204.079ZM56.1426 107.903C53.9665 108.584 52.5933 110.72 52.8758 112.981L63.7119 199.586C63.8462 200.66 64.4023 201.604 65.2771 202.243C66.1518 202.882 67.2205 203.124 68.2851 202.927L83.3518 200.129C86.5567 199.534 88.8041 196.53 88.4683 193.29L79.436 106.228C79.2968 104.888 78.5706 103.694 77.4443 102.954C76.3172 102.213 74.9333 102.019 73.6468 102.422L56.1433 107.903L56.1426 107.903Z" fill="#191919"/>
<path d="M51.939 111.973L41.5156 115.324L41.9386 116.633L52.362 113.281L51.939 111.973Z" fill="#191919"/>
<path d="M60.9684 203.615C60.8545 203.575 60.7425 203.533 60.6317 203.486C59.397 202.971 58.1902 202.385 57.0699 201.829C55.7009 201.149 54.2466 200.404 52.3536 199.41C50.8781 198.635 49.3202 197.805 47.5919 196.874C46.3617 196.211 45.1332 195.544 43.9075 194.873C43.4141 194.603 42.9207 194.332 42.4282 194.06L43.0929 192.857C43.5842 193.129 44.076 193.398 44.5679 193.668C45.7913 194.338 47.0171 195.003 48.2445 195.665C49.9685 196.594 51.5219 197.421 52.9931 198.194C54.876 199.183 56.3222 199.925 57.6811 200.599C58.7801 201.145 59.9629 201.719 61.1613 202.219C62.3247 202.708 63.8132 202.751 64.8624 202.33L65.3758 203.605C64.0942 204.119 62.4014 204.117 60.9674 203.615L60.9684 203.615Z" fill="#191919"/>
<path d="M40.1139 194.164C38.982 193.769 37.7365 192.838 36.3507 191.358C31.9918 186.701 31.4863 179.413 30.7877 169.326C30.574 166.247 30.3321 162.756 29.9581 158.999C28.4596 143.963 29.2748 123.942 29.3692 121.785C28.3603 119.879 27.5863 118.37 27.3249 117.674C27.1599 117.235 25.7443 113.202 26.8956 107.111C28.1818 100.308 32.0739 93.916 38.4637 88.1166C38.6746 87.9249 38.9813 87.8833 39.2369 88.0125C39.3954 88.0926 43.1425 89.9973 44.8707 91.9263C45.0214 92.0947 45.0794 92.3259 45.0276 92.5451C44.9725 92.7733 43.6691 98.1805 42.201 101.684C40.7285 105.199 39.9834 108.282 42.9275 118.705C45.8901 129.193 49.4891 148.16 50.3581 156.331C50.9149 161.568 49.9358 165.038 47.7384 165.612C46.7849 165.862 45.7885 165.505 44.9099 164.665C45.8816 173.995 46.2737 185.054 45.6762 188.222C45.0017 191.8 43.8509 193.777 42.1589 194.268C41.5201 194.453 40.8409 194.419 40.1144 194.165L40.1139 194.164ZM30.6545 124.196C30.4473 130.321 30.08 146.344 31.327 158.865C31.703 162.643 31.9463 166.144 32.1601 169.233C32.8649 179.403 33.3301 186.121 37.3547 190.42C39.1883 192.379 40.7166 193.251 41.7738 192.946C42.551 192.721 43.6237 191.675 44.3226 187.966C45.1097 183.79 44.0232 164.357 42.2174 155.544C40.3626 146.494 37.5794 138.91 36.2421 135.265C35.5065 133.26 33.0401 128.654 30.8642 124.588C30.7936 124.456 30.7242 124.326 30.6538 124.196L30.6545 124.196ZM44.5784 161.745C45.3525 163.474 46.4985 164.514 47.3882 164.281C48.5658 163.973 49.5173 161.44 48.9893 156.474C48.1259 148.355 44.5482 129.504 41.6026 119.077C38.5443 108.248 39.395 104.817 40.9304 101.152C42.1438 98.2573 43.28 93.8625 43.5992 92.5835C42.2915 91.2794 39.9788 89.9677 39.0346 89.4592C33.0817 94.9665 29.4529 100.99 28.2473 107.368C27.1467 113.189 28.5521 117.032 28.6127 117.192C28.8549 117.837 29.6621 119.404 30.6712 121.306C30.6722 121.308 30.6735 121.309 30.6745 121.311C31.114 122.14 31.5918 123.033 32.0778 123.941C34.275 128.045 36.7662 132.698 37.5344 134.792C38.8837 138.469 41.6906 146.118 43.5657 155.269C43.9378 157.086 44.278 159.311 44.5779 161.744L44.5784 161.745Z" fill="#191919"/>
<path d="M40.5346 111.144C40.5035 111.133 40.4724 111.12 40.4421 111.104C40.1048 110.928 39.9741 110.513 40.1502 110.177L46.8556 97.336C45.525 94.379 43.9128 92.9055 43.896 92.8903C43.6134 92.6359 43.5908 92.2011 43.8459 91.9194C44.1003 91.6375 44.535 91.615 44.818 91.8704C44.8979 91.9417 46.7805 93.6627 48.2517 97.0924C48.3327 97.2823 48.3247 97.498 48.2293 97.6807L41.3715 110.814C41.2116 111.12 40.8527 111.255 40.5354 111.144L40.5346 111.144Z" fill="#191919"/>
<path d="M31.2078 133.203C31.6191 137.514 31.9877 141.825 32.3109 146.138C32.4817 148.294 32.6284 150.452 32.7862 152.608C32.9267 154.766 33.0993 156.922 33.2765 159.077L34.3125 172.011C34.6666 176.322 35.0018 180.636 35.3215 184.952C34.7357 180.664 34.2212 176.366 33.7775 172.06C33.5472 169.909 33.3486 167.754 33.144 165.599C32.949 163.444 32.767 161.288 32.5907 159.131C32.2359 154.817 32.0104 150.494 31.7767 146.173C31.5431 141.851 31.3529 137.527 31.207 133.203L31.2078 133.203Z" fill="#191919"/>
<path d="M86.4798 199.701C86.4237 199.681 86.3718 199.647 86.331 199.598C79.8515 191.924 76.9464 152.062 75.7055 135.041L75.7017 134.986C74.4561 117.9 75.1264 101.702 75.1335 101.54C75.1417 101.351 75.3022 101.203 75.4918 101.212C75.6813 101.22 75.8289 101.381 75.8206 101.57C75.8138 101.731 75.1456 117.892 76.3874 134.937L76.391 134.993C77.627 151.948 80.521 191.654 86.8559 199.156C86.9782 199.301 86.9602 199.518 86.8146 199.64C86.7181 199.721 86.5904 199.74 86.4788 199.701L86.4798 199.701Z" fill="#191919"/>
<path d="M88.876 196.025C88.8115 196.002 88.7528 195.96 88.7107 195.9C86.8855 193.362 84.726 173.104 82.4879 150.77C82.062 146.52 81.6944 142.85 81.405 140.227C79.9825 127.328 78.4306 103.435 78.4149 103.195C78.4028 103.005 78.5467 102.842 78.7358 102.83C78.926 102.817 79.0892 102.962 79.1016 103.15C79.1176 103.39 80.6679 127.268 82.0891 140.151C82.3787 142.779 82.7468 146.45 83.1729 150.701C84.7545 166.484 87.4013 192.9 89.2701 195.499C89.3814 195.653 89.3456 195.868 89.1912 195.978C89.0969 196.046 88.979 196.059 88.8765 196.023L88.876 196.025Z" fill="#191919"/>
<path d="M69.5539 203.695C69.4992 203.676 69.4486 203.643 69.408 203.595C64.8999 198.408 59.8064 150.151 57.6317 129.544C57.3323 126.707 57.0955 124.467 56.9374 123.081C55.5413 110.853 56.1283 107.167 56.1538 107.016C56.1859 106.829 56.3636 106.703 56.5508 106.735C56.7365 106.77 56.8637 106.944 56.8324 107.131C56.8266 107.168 56.2418 110.916 57.6209 123.005C57.7791 124.393 58.016 126.635 58.3156 129.473C60.2972 148.249 65.562 198.122 69.9272 203.146C70.0518 203.289 70.0363 203.506 69.8932 203.631C69.7967 203.714 69.667 203.734 69.5539 203.695Z" fill="#191919"/>
<path d="M47.3445 82.4792L42.8637 90.9946C42.8428 91.035 42.8146 91.0693 42.7809 91.0975L42.7739 91.1028C42.425 91.3967 42.0746 91.7438 41.744 92.0876C41.4102 92.4336 41.0911 92.7958 40.779 93.1622C40.1569 93.8991 39.5788 94.6735 39.0286 95.4678C37.9429 97.0659 37.0146 98.7717 36.2364 100.543C35.4626 102.316 34.8747 104.174 34.4071 106.046C33.9779 107.923 33.8231 109.865 34.0571 111.779C34.2764 113.697 34.8477 115.565 35.5261 117.39C36.2052 119.218 36.989 121.014 37.7309 122.828C39.2382 126.447 40.5292 130.164 41.474 133.964C40.9472 132.078 40.3406 130.216 39.6626 128.38C38.9863 126.544 38.2339 124.738 37.4526 122.944C36.6726 121.149 35.8501 119.371 35.1245 117.542C34.4021 115.716 33.7893 113.818 33.527 111.843C33.2512 109.871 33.378 107.85 33.7881 105.909C34.2298 103.977 34.8024 102.082 35.582 100.26C36.3578 98.4401 37.2927 96.6839 38.4161 95.0488C39.546 93.4143 40.7992 91.8833 42.3428 90.5643L42.2541 90.6719L46.7349 82.1565C46.8235 81.9884 47.0316 81.9242 47.1992 82.0125C47.3676 82.1012 47.4321 82.3091 47.3438 82.4764L47.3445 82.4792Z" fill="#191919"/>
<path d="M44.0909 92.27C44.0734 92.2639 44.0557 92.256 44.0393 92.2469C43.8725 92.1563 43.8111 91.9469 43.9016 91.7803L48.2724 83.775C48.363 83.6085 48.5718 83.5471 48.7394 83.638C48.9062 83.7286 48.9676 83.938 48.8771 84.1045L44.5063 92.1099C44.4241 92.2597 44.2475 92.3239 44.0911 92.2693L44.0909 92.27Z" fill="#191919"/>
<path d="M65.2576 66.5815L64.234 65.6616C64.5165 65.3478 71.2307 57.9521 77.0056 56.25L77.3966 57.5688C71.9901 59.1625 65.324 66.5085 65.2573 66.5822L65.2576 66.5815Z" fill="#191919"/>
<path d="M66.7103 68.7996L65.7207 67.8431C66.0045 67.5502 72.706 60.6613 76.2146 59.3868L76.6866 60.6787C73.4727 61.846 66.7781 68.7297 66.7113 68.7991L66.7103 68.7996Z" fill="#191919"/>
<path d="M40.6228 106.351L40.4187 105.94C40.7936 105.755 42.049 105.027 42.4766 103.45C42.8736 101.984 42.268 100.778 42.0726 100.442L42.4691 100.212C42.6869 100.585 43.3629 101.932 42.9194 103.57C42.4417 105.332 41.0409 106.144 40.6228 106.351Z" fill="#191919"/>
<path d="M193.774 145.857L194.231 142.552L187.492 138.482L190.647 113.593L200.504 110.435L206.977 112.383L206.581 113.699L200.518 111.874L191.902 114.635L188.97 137.769L195.718 141.845L195.138 146.046L193.774 145.857Z" fill="#191919"/>
<path d="M203.786 135.111L187.914 137.348L188.043 138.255L203.915 136.018L203.786 135.111Z" fill="#191919"/>
<path d="M62.689 63.1736L61.5704 62.3719C63.9095 59.1128 66.3356 56.0899 68.7797 53.3862C87.0532 33.1785 120.166 26.1759 149.303 36.3573C178.439 46.5388 199.984 72.6401 201.695 99.832C201.924 103.469 201.938 107.345 201.738 111.352L200.364 111.283C200.562 107.326 200.547 103.502 200.321 99.9167C198.644 73.2624 177.478 47.659 148.849 37.655C120.221 27.651 87.7152 34.4994 69.8018 54.3081C67.3916 56.9734 64.9983 59.956 62.689 63.1736Z" fill="#191919"/>
<path d="M40.5967 89.2149L39.3615 88.608C46.0435 75.0246 53.675 60.8545 64.1792 49.2387C74.2821 38.067 88.3479 30.4685 104.855 27.2655C120.267 24.2742 136.776 25.4299 151.341 30.5195C165.906 35.6092 179.542 44.9873 189.737 56.9257C200.657 69.7138 206.929 84.4181 207.875 99.4508C208.858 115.082 206.003 130.921 202.771 145.709L201.426 145.414C204.636 130.723 207.474 114.998 206.501 99.5354C204.672 70.4669 181.803 42.6202 150.888 31.8172C119.972 21.0142 84.737 28.5569 65.2016 50.1599C54.8103 61.6501 47.2355 75.721 40.5967 89.2149Z" fill="#191919"/>
<path d="M196.486 136.667L195.578 136.531L194.759 142.043L195.666 142.179L196.486 136.667Z" fill="#191919"/>
<path d="M110.132 219.557C109.278 219.258 108.514 218.741 107.901 218.035L97.8559 206.462C95.253 203.463 95.3899 198.895 98.1686 196.063L159.46 133.575C160.693 132.318 162.408 131.688 164.165 131.848C165.921 132.008 167.496 132.937 168.484 134.397L178.764 149.587C180.415 152.026 180.085 155.29 177.981 157.346L115.563 218.353C114.515 219.378 113.13 219.908 111.665 219.847C111.133 219.826 110.618 219.726 110.132 219.557ZM165.119 133.45C164.775 133.33 164.414 133.251 164.042 133.217C162.699 133.095 161.388 133.577 160.445 134.538L99.153 197.027C96.8719 199.352 96.7593 203.102 98.8966 205.564L108.941 217.137C109.651 217.955 110.638 218.431 111.721 218.475C112.804 218.52 113.826 218.127 114.6 217.372L177.018 156.364C178.648 154.771 178.903 152.246 177.625 150.357L167.345 135.167C166.799 134.359 166.018 133.764 165.12 133.45L165.119 133.45Z" fill="#191919"/>
<path d="M178.381 156.158L177.234 156.918L183.3 166.033L184.446 165.273L178.381 156.158Z" fill="#191919"/>
<path d="M114.239 222.229C112.805 221.728 111.48 220.675 110.796 219.475L111.993 218.797C112.552 219.78 113.742 220.674 114.957 221.016C116.206 221.371 117.489 221.658 118.689 221.916C120.173 222.235 121.766 222.555 123.855 222.954C125.488 223.266 127.219 223.586 129.145 223.932C130.517 224.18 131.891 224.422 133.265 224.66C133.818 224.756 134.371 224.851 134.924 224.945L134.696 226.3C134.141 226.206 133.586 226.11 133.031 226.014C131.655 225.776 130.279 225.533 128.903 225.285C126.972 224.938 125.237 224.617 123.599 224.303C121.499 223.902 119.896 223.58 118.402 223.259C117.179 222.997 115.87 222.703 114.583 222.337C114.468 222.305 114.353 222.268 114.24 222.228L114.239 222.229Z" fill="#191919"/>
<path d="M136.441 227.822C135.715 227.568 135.163 227.171 134.778 226.628C133.76 225.191 134.091 222.927 135.792 219.708C137.297 216.857 144.492 208.449 151.064 201.755C149.853 201.865 148.852 201.523 148.26 200.734C146.899 198.916 148.294 195.592 151.991 191.841C157.761 185.989 172.391 173.392 181.239 167.033C190.034 160.711 191.372 157.835 192.409 154.169C193.443 150.514 195.79 145.471 195.89 145.258C195.985 145.054 196.175 144.91 196.397 144.872C198.95 144.438 203.069 145.282 203.243 145.318C203.521 145.377 203.737 145.601 203.783 145.881C205.17 154.399 204.235 161.823 201.003 167.947C198.11 173.429 194.491 175.703 194.088 175.944C193.45 176.325 191.904 177.025 189.928 177.886C188.659 179.632 176.827 195.804 166.29 206.635C163.657 209.34 161.294 211.921 159.209 214.197C152.379 221.654 147.445 227.041 141.135 227.969C139.129 228.264 137.574 228.217 136.442 227.821L136.441 227.822ZM187.42 178.973C187.285 179.031 187.149 179.089 187.013 179.149C182.778 180.974 177.978 183.042 176.154 184.152C172.837 186.17 165.936 190.371 158.848 196.296C151.947 202.067 138.994 216.593 137.008 220.351C135.246 223.688 135.433 225.175 135.9 225.835C136.537 226.732 138.276 227 140.931 226.61C146.758 225.754 151.306 220.787 158.191 213.27C160.282 210.987 162.653 208.398 165.3 205.677C174.076 196.657 183.767 183.893 187.419 178.972L187.42 178.973ZM196.981 146.177C196.435 147.377 194.587 151.523 193.733 154.543C192.652 158.367 191.18 161.582 182.043 168.148C173.245 174.47 158.705 186.991 152.972 192.805C149.465 196.362 148.632 198.936 149.362 199.91C149.912 200.646 151.457 200.547 153.14 199.675C154.89 197.959 156.542 196.429 157.964 195.241C165.131 189.248 172.092 185.013 175.437 182.977C177.343 181.817 182.19 179.727 186.466 177.884C187.411 177.477 188.34 177.077 189.2 176.702C189.202 176.701 189.205 176.7 189.207 176.699C191.181 175.84 192.788 175.117 193.378 174.764C193.526 174.676 197.019 172.544 199.783 167.305C202.813 161.564 203.725 154.591 202.498 146.575C201.442 146.385 198.814 145.971 196.981 146.177L196.981 146.177Z" fill="#191919"/>
<path d="M187.818 162.611C187.5 162.501 187.303 162.172 187.369 161.832L190.184 147.286C190.223 147.084 190.351 146.909 190.533 146.812C193.82 145.045 196.364 144.872 196.471 144.865C196.851 144.842 197.177 145.13 197.201 145.509C197.225 145.887 196.937 146.213 196.559 146.237C196.53 146.239 194.333 146.4 191.472 147.872L188.721 162.094C188.648 162.467 188.287 162.71 187.914 162.638C187.881 162.631 187.849 162.622 187.817 162.611L187.818 162.611Z" fill="#191919"/>
<path d="M181.376 185.674C178.569 188.966 175.727 192.231 172.852 195.466C169.978 198.702 167.109 201.944 164.145 205.097C162.664 206.675 161.178 208.249 159.683 209.813C158.181 211.371 156.685 212.934 155.164 214.473C152.135 217.566 149.056 220.607 145.926 223.598C148.865 220.42 151.814 217.255 154.775 214.102L163.642 204.628C165.123 203.052 166.601 201.473 168.054 199.873C169.521 198.284 170.979 196.687 172.456 195.107C175.396 191.934 178.369 188.79 181.375 185.674L181.376 185.674Z" fill="#191919"/>
<path d="M96.7242 203.278C96.6134 203.239 96.5247 203.145 96.4997 203.021C96.4624 202.835 96.5829 202.654 96.7688 202.617C106.398 200.693 133.393 171.431 144.92 158.936L144.956 158.896C156.545 146.335 166.087 133.274 166.182 133.143C166.294 132.99 166.51 132.956 166.663 133.068C166.817 133.18 166.851 133.395 166.739 133.548C166.644 133.679 157.079 146.77 145.463 159.361L145.426 159.401C133.854 171.946 106.753 201.322 96.9049 203.29C96.8427 203.302 96.7804 203.298 96.7242 203.278Z" fill="#191919"/>
<path d="M97.1324 198.906C97.0299 198.87 96.9466 198.786 96.9141 198.675C96.8622 198.492 96.9686 198.302 97.1509 198.251C100.231 197.381 118.754 178.363 129.82 167.001C132.802 163.94 135.377 161.296 137.241 159.42C146.377 150.226 162.461 132.511 162.623 132.333C162.75 132.193 162.968 132.182 163.109 132.31C163.25 132.437 163.261 132.655 163.133 132.796C162.972 132.974 146.876 150.7 137.73 159.906C135.868 161.779 133.294 164.422 130.314 167.481C114.653 183.56 100.347 198.063 97.338 198.912C97.267 198.932 97.1951 198.928 97.1313 198.906L97.1324 198.906Z" fill="#191919"/>
<path d="M107.474 216.95C107.361 216.91 107.272 216.814 107.248 216.688C107.214 216.502 107.337 216.322 107.524 216.288C114.068 215.076 149.25 179.335 162.494 165.88C164.496 163.846 166.077 162.24 167.066 161.253C175.705 152.623 177.551 149.358 177.569 149.326C177.661 149.16 177.868 149.1 178.036 149.191C178.202 149.283 178.263 149.492 178.172 149.658C178.098 149.792 176.261 153.041 167.553 161.739C166.566 162.724 164.985 164.33 162.985 166.363C148.449 181.13 114.408 215.712 107.651 216.963C107.59 216.974 107.529 216.969 107.475 216.95L107.474 216.95Z" fill="#191919"/>
<path d="M201.025 136.071L199.227 145.524L199.225 145.384C199.611 147.378 199.637 149.356 199.504 151.338C199.364 153.316 199.001 155.273 198.475 157.181C197.95 159.092 197.218 160.931 196.361 162.717C195.472 164.491 194.312 166.151 192.869 167.523C191.433 168.904 189.773 170.007 188.069 170.986C186.363 171.965 184.612 172.844 182.883 173.762C181.155 174.679 179.442 175.623 177.769 176.639C176.096 177.652 174.461 178.731 172.874 179.879C175.981 177.494 179.306 175.39 182.738 173.498C184.448 172.541 186.18 171.624 187.85 170.617C189.517 169.612 191.128 168.506 192.494 167.142C193.87 165.79 194.958 164.174 195.791 162.439C196.591 160.682 197.289 158.863 197.787 156.994C198.281 155.124 198.618 153.211 198.763 151.284C198.827 150.321 198.857 149.355 198.83 148.39C198.814 147.908 198.79 147.427 198.744 146.949C198.7 146.474 198.642 145.984 198.552 145.537L198.551 145.53C198.542 145.485 198.542 145.439 198.55 145.396L200.348 135.944C200.383 135.757 200.563 135.634 200.75 135.671C200.937 135.706 201.06 135.886 201.023 136.072L201.025 136.071Z" fill="#191919"/>
<path d="M196.793 145.626C196.637 145.572 196.539 145.411 196.568 145.243L198.134 136.258C198.167 136.071 198.345 135.946 198.532 135.979C198.72 136.011 198.846 136.189 198.812 136.377L197.246 145.362C197.213 145.549 197.035 145.673 196.848 145.641C196.828 145.638 196.81 145.633 196.793 145.627L196.793 145.626Z" fill="#191919"/>
<path d="M196.234 112.35C196.228 112.25 195.585 102.347 192.351 97.7372L193.478 96.9489C196.936 101.877 197.582 111.845 197.608 112.267L196.234 112.35Z" fill="#191919"/>
<path d="M193.716 113.18C193.707 113.084 192.757 103.527 190.969 100.614L192.142 99.8967C194.094 103.079 195.046 112.643 195.086 113.048L193.716 113.18L193.716 113.18Z" fill="#191919"/>
<path d="M188.096 101.459C185.123 100.42 181.812 96.7947 179.397 93.9011L179.333 93.8242C177.62 91.773 175.678 89.4469 173.679 87.2012C173.255 86.7258 172.885 86.2129 172.578 85.677C170.684 82.387 160.277 65.6335 141.378 59.0293C122.478 52.4252 103.9 59.05 100.368 60.4448C99.7965 60.6727 99.1874 60.8435 98.5601 60.9517C95.6001 61.4628 92.631 62.0735 90.0117 62.6118L89.9135 62.6319C85.3313 63.5755 78.9691 64.54 76.6203 62.0344C75.7429 61.0984 75.521 59.8148 75.9623 58.2204C77.5083 52.6164 85.9661 44.4676 104.714 39.9443C112.058 38.1738 120.406 37.9446 129.538 39.2622L128.921 32.8377L130.291 32.7075L131.076 40.8859L130.203 40.7514C120.907 39.3182 112.44 39.4963 105.038 41.2812C96.2596 43.3986 89.2222 46.4023 84.1228 50.2083C78.9823 54.0441 77.631 57.3457 77.2881 58.5875C76.9794 59.7052 77.0897 60.5254 77.6239 61.0957C79.0125 62.5777 83.053 62.6407 89.634 61.2865L89.7332 61.2659C92.3627 60.7253 95.3436 60.1127 98.3252 59.5981C98.8592 59.5057 99.3756 59.3613 99.8612 59.1687C103.474 57.7411 122.472 50.9678 141.832 57.733C161.192 64.4982 171.837 81.6296 173.774 84.9951C174.034 85.45 174.349 85.885 174.709 86.2896C176.723 88.5525 178.672 90.8868 180.391 92.9462L180.456 93.0234C184.76 98.1821 187.963 100.648 189.971 100.354C190.745 100.241 191.341 99.6679 191.796 98.6011C192.301 97.416 193.3 93.9914 191.667 87.7887C190.048 81.6347 186.413 74.9019 180.865 67.7782C176.185 61.7714 169.672 56.3588 161.507 51.6903L160.739 51.2512L166.447 45.342L167.438 46.2972L162.954 50.939C170.919 55.5961 177.308 60.9747 181.951 66.9339C193.802 82.1498 195.343 93.7927 193.063 99.1399C192.414 100.662 191.441 101.527 190.172 101.713C189.512 101.81 188.814 101.709 188.099 101.459L188.096 101.459Z" fill="#191919"/>
<path d="M157.682 49.6175L157.229 49.3895C151.07 46.288 146.421 44.8115 146.375 44.797L146.354 44.7899L146.334 44.7827C146.289 44.7653 141.723 43.0228 134.981 41.6152L134.485 41.5116L133.697 33.3161L135.067 33.1859L135.758 40.3745C142.118 41.7388 146.474 43.3664 146.808 43.4922C147.146 43.6004 151.569 45.041 157.394 47.935L162.412 42.7413L163.403 43.6966L157.682 49.6175Z" fill="#191919"/>
<path d="M190.734 158.81C190.536 158.388 189.946 156.88 190.67 155.204C191.342 153.647 192.71 153.014 193.114 152.857L193.28 153.284C192.919 153.425 191.693 153.992 191.091 155.386C190.443 156.887 190.972 158.238 191.15 158.616L190.734 158.81Z" fill="#191919"/>
<path d="M207.845 113.489L206.553 113.012L221.456 72.6911C221.823 71.7 222.705 71.0241 223.758 70.9275C224.81 70.8302 225.802 71.3338 226.345 72.2407C227.877 74.8005 229.959 78.6108 231.169 82.2233C231.618 83.5641 231.656 84.9978 231.28 86.3692C230.336 89.8087 228.151 96.1784 224.126 100.191L223.153 99.2172C226.953 95.4284 229.045 89.3127 229.953 86.0043C230.258 84.8962 230.227 83.7389 229.865 82.6582C228.693 79.1621 226.663 75.4468 225.165 72.9452C224.893 72.4903 224.415 72.2475 223.887 72.296C223.358 72.3443 222.933 72.6712 222.749 73.1682L207.846 113.489L207.845 113.489Z" fill="#191919"/>
<path d="M202.994 144.541L202.026 143.563L213.035 132.692L223.584 98.1406C222.455 92.6525 215.923 89.7371 215.856 89.7079L216.406 88.448C216.707 88.5798 223.803 91.7362 224.968 98.0538L224.999 98.2183L214.249 133.426L214.126 133.548L202.993 144.541L202.994 144.541Z" fill="#191919"/>
<path d="M223.087 93.979L222.473 93.6669C223.032 92.5695 223.589 91.4364 224.177 90.2028C224.314 89.9148 224.455 89.6245 224.596 89.3335C225.374 87.7284 226.179 86.0687 226.59 84.3608C227.149 82.0387 226.435 79.9424 225.654 77.9943C225.086 76.5743 224.38 74.9744 223.197 73.9726C222.966 73.7762 222.62 73.514 222.287 73.4953L222.324 72.8094C222.858 72.8387 223.309 73.1672 223.642 73.4492C224.944 74.5533 225.693 76.243 226.293 77.7402C227.114 79.791 227.865 82.0039 227.258 84.5226C226.829 86.3019 226.008 87.9958 225.213 89.6335C225.073 89.923 224.933 90.2117 224.796 90.4982C224.206 91.7369 223.646 92.8757 223.085 93.9782L223.087 93.979Z" fill="#191919"/>
<path d="M223.186 75.6154C223.073 76.1552 222.928 76.6828 222.771 77.2072C222.617 77.7324 222.443 78.2502 222.267 78.7677C222.083 79.2828 221.896 79.7958 221.69 80.303C221.486 80.8109 221.27 81.3139 221.023 81.8064C221.135 81.2666 221.28 80.7388 221.437 80.2144C221.591 79.6892 221.764 79.1714 221.942 78.6541C222.125 78.139 222.312 77.626 222.519 77.1191C222.723 76.6111 222.939 76.1082 223.186 75.6154Z" fill="#191919"/>
<path d="M205.699 130.081C206.559 130.227 207.44 130.265 208.295 130.135C209.145 130.012 209.982 129.728 210.667 129.24C211.347 128.749 211.858 128.041 212.237 127.262C212.621 126.481 212.889 125.636 213.157 124.782C213.715 123.079 214.268 121.374 214.838 119.675L215.7 117.13C215.992 116.282 216.3 115.441 216.612 114.601L215.144 119.773C214.649 121.494 214.135 123.209 213.629 124.927C213.371 125.784 213.108 126.657 212.712 127.491C212.32 128.319 211.774 129.129 210.985 129.684C210.202 130.233 209.289 130.534 208.368 130.659C207.445 130.774 206.51 130.725 205.611 130.53L205.699 130.08L205.699 130.081Z" fill="#191919"/>
<path d="M220.768 93.6045L216.44 91.8496L220.92 93.1717L220.768 93.6045Z" fill="#191919"/>
<path d="M222.557 98.8645L214.889 95.9426L222.708 98.4324L222.557 98.8645Z" fill="#191919"/>
<path d="M221.045 103.182L213.378 100.259L221.197 102.749L221.045 103.182Z" fill="#191919"/>
<path d="M219.534 107.51L211.866 104.587L219.685 107.077L219.534 107.51Z" fill="#191919"/>
<path d="M217.893 112.196L210.225 109.275L218.044 111.764L217.893 112.196Z" fill="#191919"/>
<path d="M215.787 116.497L208.12 113.575L215.938 116.065L215.787 116.497Z" fill="#191919"/>
<path d="M213.779 121.188L206.436 118.38L213.93 120.756L213.779 121.188Z" fill="#191919"/>
<path d="M212.102 125.991L205.987 123.611L212.253 125.558L212.102 125.991Z" fill="#191919"/>
<path d="M190.502 96.4446C190.802 94.7794 190.959 92.0011 190.002 88.2214C188.551 82.486 184.92 75.7799 179.504 68.8268C178.326 67.3146 177.052 65.8785 175.705 64.5146C174.376 63.1701 172.977 61.8954 171.525 60.6862C170.112 59.5094 168.647 58.3929 167.144 57.3328C165.71 56.3212 164.24 55.3601 162.741 54.4461C161.349 53.5964 159.932 52.7875 158.494 52.0171C157.207 51.3264 155.902 50.6665 154.583 50.0373C153.461 49.5015 152.329 48.9883 151.187 48.4982C150.292 48.1141 149.391 47.7448 148.483 47.391C147.393 46.9669 146.291 46.5832 145.187 46.196C144.484 45.95 143.776 45.718 143.064 45.4966C142.14 45.2093 141.21 44.9387 140.276 44.683C139.085 44.357 137.887 44.0549 136.684 43.7764C135.269 43.4488 133.847 43.1536 132.42 42.8928C130.825 42.6011 129.224 42.352 127.616 42.1483C125.886 41.9297 124.148 41.7639 122.407 41.6597C120.581 41.55 118.752 41.5077 116.924 41.5435C115.045 41.58 113.166 41.6993 111.3 41.9163C109.406 42.1358 107.523 42.4559 105.668 42.8935C105.593 42.911 105.518 42.9289 105.444 42.9471C96.8758 45.0137 89.8583 47.9998 85.1505 51.582C82.0486 53.9426 80.4406 56.2138 79.6379 57.7041C79.3272 58.2811 79.3321 58.9666 79.6507 59.5397C79.9649 60.1054 80.5379 60.4672 81.1814 60.5076C81.8041 60.5466 82.518 60.5417 83.3034 60.493C85.6495 60.3466 88.014 59.8596 89.2842 59.5984L89.3835 59.5778C91.8809 59.0642 94.9895 58.4247 98.0277 57.8993C98.4437 57.8278 98.8471 57.7145 99.2275 57.5642C101.36 56.7215 107.155 54.6512 114.875 53.6286C124.706 52.3267 133.966 53.1598 142.397 56.1057C150.827 59.0516 158.591 64.1665 165.471 71.309C170.874 76.9172 174.118 82.146 175.262 84.1336C175.466 84.4881 175.712 84.8276 175.992 85.1431C178.038 87.4428 180.074 89.8805 181.709 91.8401L181.774 91.9181C182.605 92.9143 184.152 94.768 185.896 96.3429C186.481 96.8715 187.037 97.3199 187.548 97.6763C187.692 97.7767 187.846 97.8554 188.007 97.9114C188.437 98.0618 188.912 98.0519 189.348 97.8722C189.953 97.623 190.385 97.0889 190.501 96.444L190.502 96.4446ZM189.086 97.2375C188.7 97.396 188.284 97.3517 187.943 97.1135C187.455 96.773 186.923 96.3427 186.359 95.8338C184.651 94.2911 183.124 92.4614 182.304 91.479L182.239 91.4C180.601 89.4378 178.562 86.9955 176.508 84.6873C176.259 84.4073 176.041 84.1064 175.86 83.7923C174.703 81.7824 171.424 76.4962 165.968 70.8336C159.011 63.6135 151.157 58.4399 142.624 55.4579C134.09 52.4759 124.723 51.6311 114.784 52.9479C106.988 53.9805 101.13 56.0738 98.9738 56.9252C98.6368 57.0584 98.2791 57.1579 97.91 57.222C94.8611 57.7488 91.7468 58.3896 89.2438 58.9047L89.1439 58.9251C87.8899 59.1835 85.5568 59.6635 83.2588 59.8063C82.5011 59.8537 81.8163 59.8585 81.2228 59.8212C80.8084 59.7955 80.454 59.5713 80.2511 59.2061C80.0472 58.8388 80.0439 58.3997 80.2428 58.0303C81.0135 56.6003 82.5623 54.4156 85.5668 52.1289C90.1993 48.6037 97.1282 45.659 105.605 43.6149C107.436 43.1731 109.294 42.8485 111.166 42.6229C113.011 42.401 114.867 42.2758 116.725 42.2334C118.534 42.192 120.344 42.2276 122.151 42.3307C123.877 42.4285 125.599 42.588 127.314 42.8005C128.911 42.9985 130.501 43.2422 132.083 43.5281C133.505 43.7849 134.921 44.0755 136.328 44.3982C137.53 44.6736 138.727 44.9736 139.917 45.2966C140.855 45.5514 141.79 45.8218 142.718 46.1089C143.349 46.3037 143.977 46.5063 144.602 46.7203C145.66 47.0822 146.716 47.4505 147.761 47.8488C148.604 48.1699 149.442 48.5067 150.275 48.8556C151.366 49.3136 152.447 49.7927 153.521 50.2927C154.8 50.8888 156.067 51.5142 157.319 52.1685C158.729 52.9054 160.121 53.6792 161.489 54.4907C162.972 55.3705 164.428 56.2953 165.851 57.2689C167.35 58.2936 168.813 59.3727 170.228 60.511C171.686 61.6839 173.095 62.9204 174.436 64.2253C175.799 65.5512 177.094 66.9478 178.298 68.4205C178.521 68.6943 178.743 68.9706 178.959 69.2496C184.317 76.128 187.905 82.7468 189.333 88.3908C190.26 92.0511 190.111 94.725 189.823 96.3237C189.749 96.7366 189.472 97.0789 189.084 97.2384L189.086 97.2375Z" fill="#191919"/>
</svg>
