<svg width="1920" height="558" viewBox="0 0 1920 558" fill="none" xmlns="http://www.w3.org/2000/svg">
<path d="M1606.66 282.675C1566.7 409.585 1545.68 421.11 1532 421.11C1499.42 421.11 1535.17 327.737 1569.83 205.031C1607.66 70.7555 1549.85 1.55983 1432.09 1.55983C1314.34 1.55983 1253.36 70.7988 1184.99 213.436C1106.29 378.605 1047.43 404.039 980.501 405.339C913.481 404.039 853.628 378.648 773.881 213.436C707.643 77.0815 645.618 1.55983 494.203 1.55983C342.789 1.55983 275.508 77.0815 210.312 213.436C129.349 383.371 69.4091 419.594 0 419.594V555.949C146.159 555.949 256.57 487.186 355.385 275.31C406.899 165.168 432.135 137.915 494.16 137.915C556.185 137.915 577.207 165.168 628.765 275.31C724.973 481.554 834.169 538.704 974.681 541.607V541.737C976.636 541.737 978.547 541.737 980.458 541.737C982.369 541.737 984.323 541.737 986.235 541.737V541.607C1126.88 538.704 1238.07 481.554 1334.28 275.31C1390.01 155.723 1403.69 139.995 1421.54 139.995C1441.52 139.995 1429.97 175.654 1406.82 248.013C1346.88 434.715 1346.88 557.422 1522.48 557.422C1632.89 557.422 1704.39 494.509 1755.9 344.505C1827.4 134.708 1850.59 136.355 1920 136.355V0C1773.84 0 1690.71 17.2447 1606.57 282.632L1606.66 282.675Z" fill="#E8E0CD"/>
</svg>
