<svg width="220" height="160" viewBox="0 0 220 160" fill="none" xmlns="http://www.w3.org/2000/svg">
<path d="M126.07 92.0463C126.579 89.4796 127.657 87.1135 128.282 84.5795C128.874 82.1893 129.241 79.7669 129.596 77.3334C130.348 72.1839 130.741 66.9952 131.223 61.8143C131.433 59.5625 131.902 57.1968 131.709 54.9303C131.531 52.8424 130.463 50.9649 128.912 49.5357C126.935 47.7126 124.206 47.4762 121.666 46.8991C119.236 46.3479 116.797 45.845 114.356 45.3591C104.143 43.3166 93.8719 41.5977 83.601 39.8759C73.3845 38.1641 63.2025 36.1331 52.9425 34.6918C47.7634 33.9652 42.5532 33.3766 37.3245 33.1657C34.8804 33.0664 32.3739 32.9206 29.9372 33.1539C28.3669 33.3047 26.1053 33.4204 25.0448 34.7314C22.9816 37.2787 23.1774 41.0382 22.6544 44.1036C21.8145 49.0055 21.5472 53.9443 21.1039 58.892C20.6547 63.9208 19.7962 68.8926 18.9519 73.867C18.1092 78.8329 17.4816 83.835 16.5703 88.7884C16.0956 91.3613 15.5871 93.9251 15.1153 96.4985C14.6698 98.9272 14.0636 100.989 14.8712 103.403C15.4933 105.261 16.1056 106.443 17.9 107.447C19.4051 108.287 21.0313 109.047 22.6851 109.541C27.3264 110.932 32.2241 111.549 36.9932 112.368C39.544 112.807 42.209 113.348 44.8038 113.366C46.9651 113.379 49.1182 113.226 51.2348 113.776C51.7345 113.905 52.269 114.345 52.2478 114.916C52.0983 118.624 53.0735 122.892 55.0595 126.089C56.0949 127.756 57.7036 129.195 59.2652 130.374C60.1849 131.069 61.1361 131.835 62.1612 132.438C60.8619 129.949 60.7614 126.688 61.1576 124.125C61.4714 122.094 62.0429 120.336 62.9757 118.51C63.5357 117.415 64.0589 116.279 65.5008 116.51C70.118 117.254 74.7342 118.248 79.3556 119.034C84.4925 119.911 89.6372 120.746 94.7905 121.5C99.9502 122.252 105.135 123.045 110.321 123.602C111.771 123.758 113.23 123.874 114.676 124.07C115.711 124.212 117.392 124.36 118.33 123.789C119.782 122.907 120.618 121.403 121.229 119.866C124.736 111.014 124.244 101.258 126.073 92.0468L126.07 92.0463ZM31.8301 83.2444C28.1978 85.7083 24.9291 88.9185 21.6122 91.777C21.1391 92.1834 20.3885 91.5658 20.8636 91.1158C22.5804 89.4963 24.4495 88.0307 26.298 86.5643C27.9774 85.2312 29.5833 83.7499 31.3819 82.5734C31.815 82.2888 32.2562 82.9497 31.8283 83.2382L31.8301 83.2444ZM20.7164 86.1484C21.9256 84.7678 23.5367 83.7771 25.0193 82.7131C26.5603 81.6041 28.0797 80.4676 29.5775 79.3038C30.0732 78.9191 30.59 79.717 30.1171 80.1058C27.3152 82.3925 24.1778 84.3953 21.6099 86.9387C21.0691 87.4735 20.2084 86.7302 20.7159 86.1512L20.7164 86.1484ZM19.9484 96.042C24.5008 92.5027 28.979 88.9322 33.661 85.5572C33.8585 85.4143 34.0512 85.7192 33.8681 85.8646C31.3651 87.8569 28.7872 89.7739 26.4103 91.9182C24.5459 93.6016 22.7201 95.641 20.5338 96.9169C19.9416 97.2635 19.4116 96.4574 19.9455 96.0415L19.9484 96.042ZM19.7036 101.847C19.0733 102.11 18.7604 101.232 19.2095 100.86C24.3005 96.6356 29.6674 92.7462 34.8674 88.6533C35.299 88.3127 35.7563 89.0147 35.3396 89.3551C32.552 91.6444 29.7836 93.99 26.9049 96.163C25.5312 97.197 24.2084 98.293 22.8662 99.365C21.8218 100.198 20.9602 101.325 19.7031 101.85L19.7036 101.847ZM23.4461 104.083C22.8679 104.596 22.1413 103.766 22.7463 103.284C27.0521 99.8491 31.8091 96.8249 35.7417 92.9557C35.763 92.9361 35.7961 92.9656 35.7748 92.9851C31.9003 96.9735 27.6 100.395 23.4466 104.08L23.4461 104.083ZM26.4615 104.94C29.7391 101.535 33.9462 98.9823 37.6744 96.105C37.9358 95.9034 38.1973 96.3175 37.956 96.5228C34.3727 99.5614 30.7597 102.504 27.2964 105.679C26.7784 106.153 25.9547 105.466 26.4586 104.94L26.4615 104.94ZM29.694 106.066C32.5315 103.551 35.7549 101.482 38.3335 98.6851C38.676 98.3135 39.2546 98.8207 38.9243 99.2061C36.4579 102.085 33.3282 104.256 30.5955 106.86C30.0337 107.397 29.1172 106.57 29.6916 106.062L29.694 106.066ZM35.0532 107.977C34.4732 108.549 33.6711 107.646 34.3139 107.136C36.7236 105.218 39.0463 103.257 41.2475 101.104C41.4021 100.954 41.6116 101.15 41.4916 101.322C39.7137 103.845 37.2396 105.825 35.0504 107.977L35.0532 107.977ZM39.5145 108.734C39.1795 109.21 38.4386 108.588 38.8216 108.124C39.8968 106.831 41.1163 105.637 42.0647 104.244C42.2145 104.022 42.5813 104.183 42.4521 104.438C41.6567 105.996 40.5211 107.314 39.5145 108.734ZM44.4043 106.684C43.9822 107.25 43.5774 107.8 43.2025 108.398C42.9351 108.827 42.2408 108.501 42.4819 108.038C42.828 107.371 43.4018 106.801 43.8669 106.211C44.152 105.847 44.6718 106.32 44.4015 106.684L44.4043 106.684ZM55.8369 75.6027C54.9288 76.9854 53.0961 77.8624 51.4364 77.4164C49.7905 76.9757 48.152 75.6833 48.2268 73.8291C48.2906 72.2135 49.0632 70.5363 50.3318 69.4949C50.7243 69.1736 51.1311 68.9691 51.5457 68.8511C51.6083 68.8156 51.6686 68.7768 51.7307 68.7441C53.5513 67.7388 55.2041 68.7905 56.0359 70.4873C56.8695 72.1902 56.8992 73.9901 55.8398 75.6032L55.8369 75.6027ZM73.521 80.2438C71.3097 81.1544 68.7894 79.2673 68.2918 77.1154C68.0071 75.8878 68.5286 74.81 69.3932 74.1201C70.0287 73.4061 70.8103 72.8478 71.7935 72.6428C73.0533 72.3797 74.4699 72.9428 75.1864 74.0233C76.4972 75.995 75.8597 79.283 73.5205 80.2466L73.521 80.2438ZM93.1723 84.4868C90.5885 84.749 87.8094 82.3515 88.3485 79.6525C88.5313 78.73 88.9664 78.0938 89.5458 77.6716C90.3151 76.548 91.4857 75.7849 92.9298 75.9542C94.3185 76.1193 95.6086 77.0199 96.2093 78.2816C97.3661 80.7091 96.1209 84.1854 93.1723 84.4868ZM105.53 116.511C108.284 116.807 111.968 117.792 114.506 116.255C117.314 114.556 118.214 110.28 118.276 107.213C118.295 106.234 119.691 106.324 119.617 107.299C119.363 110.674 118.352 115.393 115.143 117.204C112.208 118.859 108.454 117.773 105.437 116.975C105.138 116.897 105.226 116.479 105.53 116.511ZM121.587 115.014C121.003 117.131 120.29 119.373 118.182 120.431C115.645 121.705 112.02 121.126 109.298 120.912C105.676 120.627 102.301 120.01 98.904 118.699C98.614 118.587 98.7822 118.102 99.0803 118.185C102.165 119.05 105.15 119.623 108.345 119.832C111.07 120.012 114.678 120.599 117.282 119.549C119.655 118.594 120.334 115.725 120.814 113.463C121.458 110.432 121.548 107.375 121.696 104.291C121.734 103.515 122.953 103.409 122.93 104.205C122.833 107.853 122.561 111.486 121.584 115.011L121.587 115.014Z" fill="#E8E0CD"/>
<path d="M73.0345 74.4184C72.9516 74.4678 72.8476 74.4869 72.729 74.4565C72.4575 74.3895 72.1592 74.3879 71.8626 74.4424C71.2222 74.6805 70.6185 75.2361 70.2143 75.8485C70.1078 76.0109 69.9701 76.1178 69.8196 76.1812C69.7475 76.5287 69.7978 76.9015 70.0192 77.2761C70.5149 78.1082 71.9215 79.4405 72.9893 78.6734C73.9897 77.9526 74.6765 76.2921 73.9077 75.158C73.6444 74.7699 73.3474 74.534 73.0355 74.4127L73.0345 74.4184Z" fill="#E8E0CD"/>
<path d="M53.6944 69.9334C53.4434 69.8994 53.1899 69.8796 52.9384 69.8807C52.4954 69.976 52.063 70.2402 51.738 70.5153C51.014 71.131 50.2955 72.0088 50.1516 72.9765C49.9756 74.1701 50.7387 74.6052 51.3577 75.4745C51.4168 75.5556 51.4476 75.6463 51.4568 75.7418C52.4319 76.0514 53.6106 75.8439 54.3544 74.9415C55.1763 73.9506 55.3602 72.7468 54.8498 71.5572C54.6363 71.058 54.2709 70.2085 53.691 69.9358L53.6944 69.9334Z" fill="#E8E0CD"/>
<path d="M213.914 56.0423C214.248 53.1037 214.902 46.4995 211.452 45.091C209.322 44.2222 206.783 44.0644 204.533 43.6457C202.079 43.1928 199.623 42.7366 197.17 42.2837C186.962 40.3945 176.828 38.2756 166.738 35.839C156.65 33.403 146.355 31.7501 136.096 30.1243C131.034 29.3223 125.946 28.7295 120.868 28.0505C116.715 27.4963 112.598 26.6874 108.446 26.1598C106.352 25.8926 101.78 25.2091 100.477 27.5108C99.4395 29.3421 99.4017 31.9506 99.2588 34.0005C99.1156 36.0356 98.2263 37.9319 97.7658 39.924C104.475 41.1111 111.173 42.3579 117.847 43.7556C120.494 44.3113 123.147 44.8386 125.792 45.3909C127.783 45.8063 129.551 46.4833 130.993 47.9803C132.354 49.3983 133.508 51.1273 133.914 53.069C134.273 54.7998 134.08 56.6031 133.89 58.3424C133.342 63.3648 132.999 68.41 132.404 73.4269C131.815 78.3979 131.235 83.5261 129.499 88.2501C127.748 93.0123 127.605 98.0617 126.928 103.046C126.903 103.232 126.878 103.418 126.853 103.604C131.275 104.41 135.718 105.09 140.159 105.764C144.704 106.452 149.527 106.879 153.952 108.143C154.401 108.271 154.786 108.693 154.656 109.192C153.728 112.778 153.01 116.67 150.691 119.438C153.191 119.181 155.755 118.848 157.664 117.539C160.251 115.767 160.558 112.507 161.52 109.759C161.7 109.24 162.353 109.06 162.835 109.125C167.506 109.738 172.103 110.737 176.72 111.649C181.613 112.613 186.542 113.383 191.533 113.553C193.401 113.618 195.579 113.927 197.35 113.197C199.482 112.315 199.531 110.052 200.332 108.186C201.303 105.921 202.427 103.71 203.266 101.394C204.105 99.0749 204.734 96.6621 205.397 94.2877C206.763 89.4025 208.016 84.4879 209.127 79.5416C210.122 75.1167 210.868 70.6373 211.848 66.2126C212.596 62.8391 213.523 59.4866 213.913 56.0452L213.914 56.0423ZM102.636 35.5335C103.037 34.1287 103.263 32.7216 103.536 31.2877C103.662 30.6304 104.674 30.8353 104.56 31.4919C104.351 32.6882 104.181 33.9122 103.811 35.0703C103.672 35.5054 103.505 35.9529 103.44 36.4072C103.337 37.1214 104.062 36.9516 104.409 37.0265C106.979 37.5709 109.496 38.3403 112.08 38.8257C112.334 38.8721 112.258 39.2598 112.003 39.2163C110.138 38.903 108.247 38.8047 106.388 38.4631C105.578 38.3156 104.763 38.0702 103.942 38.0174C103.53 37.9893 103.039 37.9908 102.709 37.696C102.161 37.2122 102.479 36.103 102.641 35.5374L102.636 35.5335ZM114.044 42.1568C109.388 41.1588 104.651 40.4513 100.036 39.2761C99.7295 39.4959 99.1995 39.3876 99.1475 38.8944C99.018 37.6745 99.7782 36.5845 100.09 35.4392C100.51 33.9 100.836 32.3527 101.379 30.8478C101.452 30.644 101.76 30.7705 101.73 30.9674C101.484 32.5117 101.449 34.1123 101.086 35.6381C100.837 36.6805 100.215 37.7401 100.249 38.8166C100.249 38.8488 100.247 38.8777 100.244 38.9095C104.939 39.4422 109.581 40.4376 114.25 41.1416C114.914 41.2422 114.707 42.2981 114.047 42.1573L114.044 42.1568ZM135.129 73.0204C138.614 69.307 142.889 66.3475 146.579 62.8386C146.929 62.5066 147.496 62.9941 147.146 63.3408C143.545 66.9332 139.648 70.2518 135.931 73.7295C135.436 74.1905 134.649 73.5311 135.127 73.0199L135.129 73.0204ZM134.203 77.845C138.519 73.981 143.651 71.0574 147.832 67.0428C148.097 66.7862 148.532 67.1586 148.267 67.427C146.273 69.4504 144.011 71.1435 141.794 72.9122C139.463 74.7716 137.252 76.8171 134.854 78.5852C134.404 78.9166 133.78 78.2223 134.204 77.8421L134.203 77.845ZM144.204 73.4745C141.403 76.9723 137.848 80.2097 134.191 82.8244C133.804 83.0999 133.283 82.524 133.638 82.193C136.976 79.0773 140.787 76.5903 143.86 73.1686C144.06 72.947 144.39 73.2446 144.206 73.475L144.204 73.4745ZM132.308 86.3017C135.79 82.7434 139.823 79.7838 143.179 76.082C143.526 75.6996 144.119 76.2241 143.782 76.6142C140.555 80.3422 136.83 83.7714 133.112 87.0113C132.61 87.4504 131.814 86.8069 132.308 86.3017ZM141.578 82.3377C138.772 85.2951 135.839 88.25 132.69 90.8517C132.266 91.2024 131.676 90.5144 132.059 90.1326C134.924 87.2535 138.053 84.6481 140.885 81.7276C141.296 81.3041 141.988 81.9051 141.578 82.3377ZM130.11 94.4044C133.874 90.9911 138.061 88.1592 141.327 84.2155C141.699 83.7643 142.373 84.3649 142.007 84.8172C138.837 88.7521 134.777 92.088 130.797 95.1922C130.328 95.5584 129.664 94.807 130.107 94.4039L130.11 94.4044ZM132.119 96.0839C134.795 93.5631 137.701 91.3042 140.301 88.6992C140.677 88.3221 141.302 88.8641 140.924 89.2497C138.371 91.8778 135.583 94.2962 132.822 96.7016C132.379 97.0872 131.673 96.5012 132.119 96.081L132.119 96.0839ZM131.37 100.322C134.011 97.5399 137.116 95.197 139.957 92.6272C140.382 92.2414 141.068 92.8266 140.637 93.229C137.836 95.853 134.949 98.3793 132.171 101.034C131.681 101.505 130.887 100.829 131.367 100.324L131.37 100.322ZM135.39 101.65C137.451 99.6503 139.8 97.9848 141.91 96.0383C142.173 95.7959 142.6 96.1611 142.336 96.4119C140.263 98.3828 138.012 100.14 136.096 102.271C135.691 102.722 134.962 102.067 135.393 101.65L135.39 101.65ZM142.788 100.03C142.125 100.848 141.508 101.835 140.681 102.496C140.31 102.793 139.693 102.272 139.967 101.868C140.565 100.992 141.402 100.224 142.118 99.4393C142.506 99.0144 143.147 99.5856 142.788 100.03ZM144.96 101.042C144.539 101.551 144.141 102.08 143.72 102.587C143.258 103.145 142.399 102.393 142.873 101.837C143.301 101.335 143.706 100.813 144.135 100.311C144.594 99.7729 145.411 100.496 144.96 101.039L144.96 101.042ZM145.916 102.459C145.94 102.44 145.939 102.446 145.907 102.475C145.869 102.506 145.833 102.541 145.795 102.572C145.714 102.628 145.611 102.659 145.513 102.659C145.265 102.657 145.046 102.497 145.028 102.239C145.013 102.046 145.145 101.841 145.334 101.778C145.362 101.754 145.387 101.73 145.415 101.705C145.609 101.55 145.917 101.641 146.045 101.832C146.191 102.052 146.113 102.305 145.919 102.457L145.916 102.459ZM183.362 107.344C185.61 107.744 187.908 108.093 190.193 108.104C192.494 108.116 194.275 107.279 195.697 105.442C198.055 102.4 198.807 98.4351 200.317 94.9659C200.449 94.6616 200.873 94.8972 200.769 95.192C199.251 99.5804 198.944 104.398 195.267 107.692C192.112 110.518 186.871 109.255 183.115 108.589C182.299 108.443 182.553 107.196 183.366 107.341L183.362 107.344ZM203.824 94.1742C203.125 95.2695 202.871 96.9266 202.386 98.1431C201.587 100.144 200.798 102.123 200.14 104.179C199.604 105.852 199.046 107.518 198.472 109.179C198.061 110.362 197.556 111.235 196.462 111.886C195.359 112.541 193.537 112.288 192.32 112.266C190.77 112.241 189.197 112.21 187.657 111.999C184.142 111.517 180.435 110.821 177.155 109.441C176.883 109.327 177.038 108.88 177.323 108.955C180.577 109.833 183.919 110.565 187.265 110.99C188.917 111.2 190.581 111.268 192.248 111.267C193.791 111.267 196.099 111.591 196.948 109.951C198.386 107.169 199.088 103.931 200.156 100.989C200.683 99.5393 201.236 98.0977 201.743 96.642C202.078 95.6826 202.225 94.5161 202.708 93.6161C203.09 92.8998 204.253 93.5104 203.827 94.1775L203.824 94.1742Z" fill="#E8E0CD"/>
<path d="M93.9958 78.262C93.2729 78.2065 92.1568 78.1351 91.2842 78.3983C91.1717 78.5127 91.0658 78.64 90.9734 78.7903C90.7696 79.1138 90.4595 79.242 90.1532 79.2361C90.1223 79.292 90.0943 79.3485 90.071 79.4117C89.5159 80.9496 90.8381 82.9233 92.5589 82.8879C94.3743 82.8522 95.4852 80.9728 94.8002 79.3145C94.6174 78.8737 94.3331 78.5199 93.9958 78.262Z" fill="#E8E0CD"/>
<path d="M210.432 42.5137C205.605 41.4114 200.618 40.7638 195.744 39.8904C185.528 38.0585 175.392 35.8921 165.31 33.4571C155.228 31.0221 144.939 29.4494 134.677 27.8877C129.612 27.1174 124.518 26.5411 119.443 25.8423C115.556 25.3071 111.715 24.4401 107.822 23.9713C104.844 23.6104 101.229 23.5118 98.9732 25.8013C97.4898 27.3079 97.4463 29.9154 97.3072 31.8633C97.1165 34.4997 96.3947 37.0012 95.9726 39.6101C93.0338 39.0952 90.0906 38.5882 87.1492 38.0875C76.9202 36.347 66.7244 34.375 56.4765 32.7542C51.3998 31.9524 46.2969 31.31 41.1715 30.9216C36.629 30.5778 31.9865 30.248 27.4866 31.0173C25.882 31.2908 24.6156 31.6876 23.4071 32.8044C22.2234 33.8994 21.6495 35.5893 21.2249 37.0923C20.7842 38.651 20.6136 40.2854 20.4184 41.8918C20.1661 43.9745 19.7668 46.0363 19.5173 48.1195C18.9152 53.1439 18.7747 58.2142 18.0886 63.2292C17.4071 68.2186 16.4695 73.1701 15.6559 78.1383C14.8452 83.1071 14.073 88.0594 13.1045 93.0024C12.6423 95.3606 12.0834 97.7305 11.7533 100.11C11.4798 102.066 12.2162 104.026 12.8383 105.852C13.6249 108.153 16.0542 109.567 18.1178 110.57C21.1861 112.061 24.4713 112.865 27.815 113.477C31.6532 114.182 35.5127 114.868 39.3741 115.446C41.2387 115.724 43.1124 115.904 44.9927 116.015C46.5927 116.107 48.174 115.929 49.7598 116.083C49.9611 120.072 51.0493 124.498 53.6426 127.574C55.0767 129.275 56.6017 130.785 58.3988 132.115C60.1051 133.376 61.846 134.658 63.9548 135.121C64.9722 135.344 65.3601 134.011 64.6611 133.499C63.2583 132.033 62.757 129.349 62.6947 127.453C62.6186 125.096 63.2206 122.441 64.2145 120.311C64.4096 119.89 64.6611 119.499 64.8752 119.086C64.9891 118.866 65.4365 118.455 65.2118 118.423C65.8173 118.393 66.6683 118.832 67.221 118.962C69.8562 119.586 72.578 119.962 75.2386 120.446C85.507 122.311 95.8274 123.907 106.187 125.173C108.668 125.476 111.146 125.813 113.631 126.09C115.654 126.314 117.657 126.498 119.525 125.571C122.385 124.151 123.402 120.302 124.32 117.552C125.562 113.837 126.072 109.785 126.564 105.839C130.942 106.599 135.335 107.241 139.733 107.872C144.048 108.494 148.429 109.398 152.776 109.812C152.226 113.902 150.874 118.256 146.723 119.948C145.669 120.377 145.898 122.222 147.149 122.004C151.082 121.316 155.42 121.532 158.974 119.497C161.905 117.817 162.499 114.574 163.42 111.625C172.893 112.943 182.089 115.499 191.699 115.871C195.115 116.004 199.037 116.202 201.043 112.929C202.091 111.217 202.487 109.008 203.312 107.174C204.286 105.008 205.259 102.849 205.971 100.58C208.991 90.9647 211.323 81.0981 213.246 71.2124C213.924 67.7149 214.721 64.2507 215.436 60.7628C216.124 57.4107 216.824 52.9643 216.327 49.5458C215.815 46.0307 213.979 43.3213 210.429 42.5103L210.432 42.5137ZM121.225 119.861C120.616 121.401 119.781 122.903 118.326 123.784C117.388 124.352 115.707 124.204 114.671 124.065C113.226 123.869 111.766 123.753 110.317 123.597C105.134 123.04 99.9486 122.248 94.7861 121.495C89.6293 120.743 84.4852 119.906 79.3511 119.029C74.7302 118.24 70.114 117.246 65.4963 116.505C64.055 116.271 63.5284 117.41 62.9713 118.505C62.0389 120.328 61.4669 122.089 61.1531 124.12C60.757 126.683 60.8574 129.944 62.1568 132.433C61.1311 131.833 60.1833 131.065 59.2608 130.369C57.6997 129.187 56.0904 127.751 55.0551 126.084C53.069 122.887 52.0938 118.619 52.2433 114.911C52.2674 114.341 51.73 113.9 51.2304 113.771C49.1132 113.224 46.9601 113.377 44.7993 113.361C42.204 113.346 39.5395 112.802 36.9888 112.363C32.2196 111.544 27.3248 110.928 22.6806 109.536C21.0269 109.042 19.4007 108.282 17.8956 107.442C16.1006 106.441 15.4883 105.259 14.8667 103.398C14.0591 100.984 14.6654 98.9222 15.1108 96.4935C15.5827 93.9201 16.094 91.3568 16.5658 88.7834C17.4772 83.83 18.1048 78.8279 18.9475 73.862C19.7917 68.8876 20.6474 63.9153 21.0994 58.887C21.5428 53.9393 21.81 49.0005 22.6499 44.0986C23.1758 41.0337 22.98 37.2743 25.0403 34.7264C26.1008 33.4154 28.3624 33.2997 29.9328 33.1489C32.3723 32.9161 34.8788 33.062 37.32 33.1607C42.5493 33.3687 47.7595 33.9574 52.9381 34.6868C63.198 36.1281 73.38 38.1591 83.5966 39.8709C93.8675 41.5927 104.139 43.3116 114.351 45.3541C116.792 45.8428 119.231 46.3429 121.661 46.8941C124.204 47.4718 126.931 47.7076 128.907 49.5307C130.458 50.9627 131.526 52.8374 131.705 54.9253C131.897 57.1946 131.428 59.5575 131.219 61.8093C130.736 66.9903 130.346 72.1794 129.592 77.3284C129.236 79.7647 128.869 82.1843 128.277 84.5745C127.65 87.1079 126.575 89.4718 126.066 92.0413C124.237 101.252 124.729 111.009 121.222 119.861L121.225 119.861ZM211.852 66.2085C210.871 70.6361 210.126 75.1126 209.131 79.5375C208.02 84.4838 206.766 89.4012 205.401 94.2836C204.737 96.658 204.109 99.068 203.269 101.39C202.43 103.709 201.306 105.92 200.335 108.182C199.534 110.048 199.485 112.314 197.353 113.192C195.58 113.925 193.402 113.613 191.537 113.549C186.546 113.378 181.613 112.612 176.723 111.645C172.107 110.733 167.51 109.734 162.839 109.121C162.357 109.056 161.703 109.236 161.523 109.755C160.562 112.503 160.255 115.76 157.667 117.535C155.762 118.841 153.195 119.177 150.694 119.434C153.016 116.667 153.732 112.774 154.66 109.188C154.789 108.689 154.405 108.267 153.955 108.138C149.53 106.875 144.71 106.448 140.163 105.76C135.719 105.086 131.276 104.405 126.856 103.6C126.881 103.414 126.906 103.228 126.931 103.042C127.609 98.0576 127.752 93.0082 129.503 88.246C131.241 83.5225 131.818 78.3938 132.408 73.4228C133.002 68.4059 133.348 63.3612 133.894 58.3383C134.084 56.599 134.276 54.7957 133.918 53.0649C133.515 51.1237 132.361 49.3947 130.996 47.9762C129.558 46.4768 127.786 45.8022 125.796 45.3868C123.148 44.8311 120.498 44.3043 117.85 43.7515C111.18 42.3543 104.481 41.1075 97.7694 39.9198C98.227 37.9273 99.1159 36.0339 99.2625 33.9964C99.4088 31.9442 99.4437 29.3352 100.48 27.5067C101.786 25.2055 106.356 25.8885 108.45 26.1557C112.601 26.6862 116.722 27.4927 120.871 28.0464C125.95 28.7254 131.038 29.3182 136.1 30.1202C146.359 31.746 156.654 33.4017 166.742 35.8349C176.833 38.2686 186.965 40.3904 197.173 42.2796C199.627 42.7325 202.083 43.1887 204.536 43.6416C206.787 44.0575 209.327 44.2153 211.455 45.0869C214.905 46.4954 214.249 53.0991 213.918 56.0382C213.527 59.4797 212.6 62.8322 211.852 66.2057L211.852 66.2085Z" fill="#191919"/>
<path d="M51.7258 68.7419C51.6632 68.7775 51.6006 68.813 51.5408 68.849C51.1267 68.9641 50.7195 69.1714 50.3269 69.4928C49.0578 70.537 48.2829 72.2108 48.2219 73.827C48.15 75.6816 49.7885 76.9741 51.4315 77.4142C53.0946 77.8579 54.924 76.9832 55.8321 75.6005C56.892 73.9846 56.8646 72.1881 56.0282 70.4846C55.1992 68.7884 53.5441 67.7333 51.723 68.7414L51.7258 68.7419ZM54.3599 74.9365C53.6138 75.8356 52.4374 76.0464 51.4623 75.7368C51.4525 75.6441 51.4189 75.553 51.3632 75.4695C50.7437 74.6031 49.9806 74.1679 50.1571 72.9715C50.301 72.0038 51.0195 71.1261 51.7435 70.5103C52.0657 70.2347 52.5009 69.971 52.9439 69.8758C53.1954 69.8747 53.4518 69.895 53.6999 69.9285C54.2797 70.2012 54.6452 71.0507 54.8587 71.5499C55.3662 72.739 55.1823 73.9428 54.3633 74.9342L54.3599 74.9365Z" fill="#191919"/>
<path d="M71.7895 72.6426C70.8063 72.8476 70.0247 73.406 69.3892 74.1199C68.5241 74.8126 68.0026 75.8904 68.2878 77.1152C68.7854 79.2671 71.3029 81.1537 73.5171 80.2436C75.8557 79.2828 76.4937 75.992 75.1829 74.0203C74.4636 72.9392 73.0493 72.3795 71.79 72.6398L71.7895 72.6426ZM72.9922 78.679C71.9272 79.4467 70.5178 78.1138 70.0221 77.2817C69.7978 76.9066 69.7503 76.5343 69.8225 76.1868C69.973 76.1234 70.1112 76.0137 70.2171 75.8541C70.6214 75.2416 71.2251 74.6861 71.8655 74.448C72.165 74.394 72.4604 74.3951 72.7319 74.4621C72.8505 74.4925 72.9516 74.4729 73.0374 74.424C73.3493 74.5453 73.6462 74.7812 73.9095 75.1693C74.6788 76.3005 73.9944 77.9644 72.9912 78.6847L72.9922 78.679Z" fill="#191919"/>
<path d="M92.9256 75.9506C91.4821 75.7784 90.311 76.5444 89.5417 77.668C88.9628 78.0873 88.53 78.7268 88.3443 79.6489C87.8048 82.3507 90.5867 84.7487 93.1682 84.4831C96.1168 84.1818 97.362 80.7054 96.2052 78.278C95.6045 77.0162 94.3143 76.1156 92.9256 75.9506ZM92.5572 82.8882C90.8364 82.9236 89.5147 80.947 90.0693 79.4119C90.0926 79.3487 90.1235 79.2928 90.1516 79.2363C90.4579 79.2423 90.7713 79.1117 90.9717 78.7905C91.0641 78.6402 91.1729 78.5135 91.2825 78.3986C92.1552 78.1353 93.2684 78.2062 93.9942 78.2622C94.3314 78.5201 94.6158 78.8739 94.7985 79.3148C95.4836 80.9731 94.3727 82.8524 92.5572 82.8882Z" fill="#191919"/>
<path d="M22.1679 32.1722C23.2607 30.6032 25.3314 30.3179 27.0821 29.9888C29.0282 29.625 31.1027 29.5954 33.0793 29.5832C37.3138 29.5572 41.5736 30.43 45.8044 30.6672C46.5796 30.7117 46.4842 29.5156 45.7176 29.4727C41.089 29.2129 36.4812 28.303 31.8414 28.3959C29.916 28.4351 27.9871 28.5909 26.0978 28.9504C24.7047 29.2156 22.8394 29.5735 21.8361 30.6838C19.5116 33.2539 19.1085 36.8456 18.5877 40.1255C17.8348 44.8908 17.2878 49.6613 16.7773 54.459C16.7389 54.8156 17.245 54.9254 17.3336 54.5692C18.333 50.576 18.7112 46.4725 19.3731 42.4178C19.9239 39.0378 20.1602 35.0639 22.1708 32.1727L22.1679 32.1722Z" fill="#191919"/>
<path d="M33.7034 27.4437C34.5055 27.3729 34.4166 26.1252 33.613 26.2045C29.0248 26.647 22.9062 25.6906 19.5694 29.6156C18.7799 30.542 18.3748 31.8081 17.9188 32.9155C17.3931 34.1948 16.8448 35.4525 16.458 36.7806C15.5931 39.7428 15.9131 43.0322 15.6479 46.0772C15.6189 46.415 16.0902 46.5214 16.1756 46.1822C16.7885 43.7429 16.9032 41.2481 17.281 38.769C17.6897 36.0873 18.869 33.4434 20.0511 31.0111C22.1818 26.617 29.7848 27.797 33.7058 27.4471L33.7034 27.4437Z" fill="#191919"/>
<path d="M30.1163 80.103C30.592 79.7147 30.0724 78.9163 29.5767 79.301C28.0789 80.4648 26.5595 81.6013 25.0185 82.7103C23.5354 83.7771 21.9248 84.765 20.7156 86.1456C20.2076 86.7274 21.0688 87.4678 21.6096 86.933C24.1775 84.3896 27.3149 82.3869 30.1168 80.1002L30.1163 80.103Z" fill="#191919"/>
<path d="M20.8623 91.1137C20.3877 91.5609 21.1377 92.1814 21.6108 91.775C24.9254 88.9131 28.1965 85.7062 31.8287 83.2424C32.2572 82.951 31.8155 82.2929 31.3823 82.5776C29.5837 83.754 27.9783 85.2325 26.2984 86.5684C24.4499 88.0349 22.5809 89.5005 20.8641 91.1199L20.8623 91.1137Z" fill="#191919"/>
<path d="M20.5339 96.9156C22.7201 95.6397 24.5459 93.6003 26.4103 91.9168C28.7872 89.7726 31.3651 87.8556 33.8681 85.8633C34.0518 85.715 33.8585 85.413 33.6611 85.5558C28.9785 88.9337 24.5008 92.5013 19.9484 96.0407C19.4145 96.4566 19.9445 97.2627 20.5367 96.9161L20.5339 96.9156Z" fill="#191919"/>
<path d="M35.3411 89.3514C35.755 89.0104 35.3005 88.3089 34.8689 88.6496C29.6661 92.7419 24.2991 96.6313 19.2111 100.856C18.7619 101.229 19.072 102.106 19.7051 101.843C20.9623 101.319 21.8238 100.191 22.8683 99.3584C24.2133 98.287 25.5356 97.1938 26.9069 96.1565C29.788 93.9868 32.5569 91.6384 35.3416 89.3485L35.3411 89.3514Z" fill="#191919"/>
<path d="M35.7364 92.9512C31.8066 96.821 27.0496 99.8452 22.741 103.279C22.1359 103.761 22.8625 104.592 23.4408 104.078C27.5918 100.39 31.8949 96.9691 35.7689 92.9836C35.7874 92.9635 35.7543 92.934 35.7359 92.9541L35.7364 92.9512Z" fill="#191919"/>
<path d="M37.6741 96.1015C33.9459 98.9788 29.7359 101.531 26.4612 104.937C25.9544 105.463 26.781 106.15 27.299 105.676C30.7622 102.501 34.3753 99.5585 37.9585 96.5198C38.1999 96.3146 37.9389 95.8976 37.677 96.102L37.6741 96.1015Z" fill="#191919"/>
<path d="M38.3297 98.682C35.7517 101.476 32.5278 103.548 29.6902 106.062C29.1159 106.571 30.0323 107.397 30.5941 106.86C33.3268 104.256 36.457 102.082 38.9229 99.2064C39.2532 98.8209 38.6752 98.311 38.3321 98.6853L38.3297 98.682Z" fill="#191919"/>
<path d="M41.246 101.1C39.0448 103.253 36.7225 105.211 34.3123 107.132C33.6696 107.643 34.4717 108.545 35.0517 107.974C37.2414 105.819 39.715 103.842 41.4929 101.318C41.6124 101.15 41.4 100.953 41.2488 101.101L41.246 101.1Z" fill="#191919"/>
<path d="M42.064 104.247C41.1156 105.64 39.8965 106.831 38.8209 108.127C38.4379 108.591 39.1759 109.212 39.5137 108.737C40.5203 107.317 41.656 105.999 42.4513 104.44C42.5806 104.185 42.2166 104.025 42.064 104.247Z" fill="#191919"/>
<path d="M43.8627 106.212C43.3976 106.802 42.8243 107.369 42.4777 108.038C42.2361 108.505 42.9276 108.83 43.1983 108.398C43.5703 107.801 43.9779 107.25 44.4001 106.685C44.6704 106.321 44.1507 105.848 43.8656 106.212L43.8627 106.212Z" fill="#191919"/>
<path d="M50.3277 125.397C49.6507 124.262 49.1183 123.08 48.7643 121.81C48.337 120.278 48.4721 118.693 48.3636 117.131C48.324 116.57 47.4647 116.63 47.4866 117.191C47.589 119.793 47.4985 122.269 48.7793 124.648C49.3996 125.802 50.0818 126.909 50.8988 127.94C51.8799 129.175 53.2362 130.166 54.1427 131.437C54.2791 131.629 54.6383 131.475 54.5257 131.249C53.4889 129.136 51.5515 127.441 50.3306 125.397L50.3277 125.397Z" fill="#191919"/>
<path d="M46.4065 117.408C46.4111 116.831 45.6103 116.879 45.4628 117.347C44.393 120.721 46.0435 125.209 48.0667 127.926C48.2328 128.15 48.5657 127.929 48.4261 127.689C46.6231 124.558 46.3733 120.9 46.4065 117.408Z" fill="#191919"/>
<path d="M43.0935 120.974C42.9705 119.978 43.1116 118.96 42.934 117.972C42.8187 117.323 41.9625 117.399 41.9221 118.042C41.7794 120.35 42.4428 122.371 43.4596 124.415C43.6006 124.696 44.0526 124.567 43.9384 124.253C43.5488 123.18 43.2288 122.113 43.0901 120.976L43.0935 120.974Z" fill="#191919"/>
<path d="M106.499 128.278C108.527 128.583 110.556 128.865 112.595 129.098C114.711 129.34 116.854 129.358 118.958 129.668C119.732 129.783 119.978 128.611 119.195 128.48C117.297 128.161 115.351 128.196 113.438 128.021C111.188 127.813 108.954 127.503 106.715 127.203C102.695 126.667 98.5714 125.552 94.5098 125.554C94.2259 125.555 94.1931 126.027 94.4781 126.053C98.5049 126.42 102.491 127.677 106.498 128.281L106.499 128.278Z" fill="#191919"/>
<path d="M119.16 130.875C115.56 130.629 112.039 130.41 108.48 129.791C106.744 129.489 105.013 129.162 103.284 128.821C101.398 128.448 99.6011 127.812 97.6765 127.62C97.3108 127.583 97.19 128.1 97.5645 128.186C99.2498 128.572 100.875 129.173 102.53 129.665C104.392 130.216 106.356 130.518 108.259 130.891C111.872 131.599 115.416 131.89 119.083 132.107C119.786 132.147 119.863 130.926 119.16 130.877L119.16 130.875Z" fill="#191919"/>
<path d="M121.692 104.293C121.544 107.377 121.454 110.434 120.81 113.465C120.33 115.726 119.651 118.593 117.278 119.551C114.675 120.598 111.069 120.012 108.341 119.834C105.143 119.624 102.161 119.054 99.0761 118.187C98.7781 118.104 98.607 118.589 98.8999 118.701C102.297 120.012 105.672 120.629 109.294 120.914C112.016 121.128 115.64 121.707 118.178 120.433C120.286 119.378 120.999 117.133 121.583 115.016C122.557 111.488 122.828 107.857 122.928 104.21C122.949 103.414 121.729 103.52 121.694 104.297L121.692 104.293Z" fill="#191919"/>
<path d="M105.431 116.975C108.449 117.774 112.202 118.862 115.138 117.204C118.347 115.393 119.357 110.675 119.611 107.299C119.686 106.325 118.289 106.234 118.27 107.213C118.208 110.283 117.311 114.556 114.501 116.255C111.963 117.789 108.279 116.807 105.525 116.511C105.22 116.479 105.132 116.897 105.431 116.975Z" fill="#191919"/>
<path d="M135.934 73.7287C139.651 70.2511 143.548 66.9325 147.15 63.3401C147.497 62.9928 146.929 62.5053 146.582 62.8379C142.892 66.3468 138.617 69.3063 135.133 73.0197C134.652 73.5303 135.442 74.1903 135.937 73.7292L135.934 73.7287Z" fill="#191919"/>
<path d="M134.852 78.587C137.25 76.816 139.463 74.7739 141.791 72.914C144.008 71.1452 146.27 69.4521 148.265 67.4288C148.529 67.1603 148.095 66.7879 147.829 67.0445C143.646 71.0558 138.517 73.9799 134.201 77.8467C133.777 78.224 134.404 78.9217 134.851 78.5898L134.852 78.587Z" fill="#191919"/>
<path d="M143.857 73.1688C140.783 76.5906 136.972 79.0776 133.635 82.1933C133.279 82.5243 133.804 83.1007 134.188 82.8247C137.845 80.21 141.399 76.9726 144.2 73.4747C144.384 73.2444 144.054 72.9467 143.854 73.1683L143.857 73.1688Z" fill="#191919"/>
<path d="M133.111 87.0054C136.831 83.7659 140.554 80.3363 143.781 76.6082C144.118 76.2181 143.525 75.6937 143.178 76.0761C139.819 79.7773 135.789 82.7375 132.306 86.2958C131.812 86.801 132.606 87.444 133.111 87.0054Z" fill="#191919"/>
<path d="M140.887 81.7232C138.056 84.6437 134.924 87.2485 132.061 90.1282C131.678 90.5128 132.268 91.198 132.693 90.8472C135.842 88.2455 138.774 85.2906 141.58 82.3332C141.99 81.9006 141.298 81.2996 140.887 81.7232Z" fill="#191919"/>
<path d="M141.332 84.2187C138.065 88.1624 133.876 90.991 130.114 94.4076C129.671 94.8107 130.335 95.5621 130.804 95.196C134.783 92.0945 138.844 88.7558 142.014 84.821C142.377 84.3682 141.706 83.7708 141.334 84.2192L141.332 84.2187Z" fill="#191919"/>
<path d="M132.821 96.7035C135.583 94.2952 138.371 91.8769 140.924 89.2516C141.299 88.8654 140.676 88.3239 140.3 88.7011C137.7 91.3061 134.794 93.565 132.118 96.0858C131.672 96.5059 132.378 97.0919 132.821 96.7064L132.821 96.7035Z" fill="#191919"/>
<path d="M139.956 92.6273C137.115 95.1971 134.009 97.5428 131.369 100.322C130.89 100.827 131.68 101.502 132.174 101.032C134.948 98.3765 137.835 95.8531 140.639 93.2267C141.07 92.8244 140.384 92.242 139.96 92.625L139.956 92.6273Z" fill="#191919"/>
<path d="M141.909 96.0405C139.799 97.987 137.45 99.6526 135.389 101.652C134.958 102.069 135.687 102.724 136.092 102.273C138.011 100.145 140.261 98.385 142.332 96.4136C142.597 96.1599 142.173 95.7953 141.906 96.04L141.909 96.0405Z" fill="#191919"/>
<path d="M142.115 99.4439C141.398 100.228 140.561 100.996 139.964 101.873C139.69 102.274 140.307 102.797 140.677 102.501C141.504 101.84 142.121 100.853 142.784 100.035C143.146 99.5908 142.503 99.0191 142.115 99.4439Z" fill="#191919"/>
<path d="M144.13 100.317C143.701 100.819 143.296 101.341 142.867 101.843C142.394 102.396 143.253 103.151 143.715 102.593C144.136 102.083 144.534 101.555 144.954 101.048C145.405 100.502 144.588 99.7789 144.129 100.32L144.13 100.317Z" fill="#191919"/>
<path d="M145.407 101.706C145.379 101.731 145.354 101.755 145.326 101.78C145.137 101.842 145.008 102.047 145.02 102.24C145.038 102.498 145.26 102.659 145.505 102.66C145.603 102.66 145.706 102.626 145.787 102.573C145.825 102.542 145.861 102.507 145.899 102.476C145.932 102.444 145.935 102.439 145.908 102.46C146.102 102.305 146.18 102.053 146.034 101.835C145.906 101.645 145.597 101.553 145.403 101.709L145.407 101.706Z" fill="#191919"/>
<path d="M147.492 116.331C148.632 114.876 149.984 113.07 149.732 111.127C149.654 110.535 148.731 110.59 148.795 111.191C148.956 112.695 147.921 113.996 147.128 115.186C146.338 116.37 145.348 117.799 143.769 117.784C143.409 117.78 143.372 118.378 143.732 118.414C145.374 118.581 146.541 117.548 147.493 116.328L147.492 116.331Z" fill="#191919"/>
<path d="M164.582 112.902C162.899 121.523 152.251 124.028 144.65 123.197C144.302 123.16 144.191 123.656 144.543 123.735C149.142 124.74 154.192 124.001 158.439 122.056C162.238 120.318 164.745 117.121 165.769 113.138C165.961 112.393 164.733 112.14 164.585 112.902L164.582 112.902Z" fill="#191919"/>
<path d="M202.702 93.615C202.222 94.5156 202.074 95.6821 201.737 96.641C201.227 98.0961 200.674 99.5378 200.15 100.987C199.082 103.927 198.38 107.165 196.942 109.95C196.093 111.59 193.788 111.266 192.242 111.266C190.577 111.268 188.912 111.196 187.259 110.989C183.913 110.564 180.571 109.832 177.317 108.954C177.032 108.879 176.876 109.326 177.148 109.44C180.429 110.82 184.133 111.516 187.651 111.998C189.191 112.209 190.761 112.239 192.314 112.264C193.531 112.284 195.353 112.54 196.456 111.884C197.55 111.236 198.055 110.364 198.466 109.178C199.04 107.517 199.598 105.851 200.133 104.177C200.791 102.125 201.578 100.145 202.38 98.142C202.865 96.9256 203.119 95.2684 203.818 94.1731C204.244 93.506 203.081 92.8982 202.7 93.6116L202.702 93.615Z" fill="#191919"/>
<path d="M183.11 108.595C186.866 109.261 192.111 110.522 195.262 107.698C198.939 104.403 199.246 99.5862 200.764 95.1978C200.866 94.8997 200.444 94.6674 200.312 94.9717C198.802 98.4409 198.05 102.406 195.692 105.448C194.27 107.285 192.489 108.122 190.188 108.11C187.903 108.098 185.602 107.75 183.357 107.349C182.544 107.204 182.294 108.452 183.106 108.597L183.11 108.595Z" fill="#191919"/>
<path d="M174.645 33.9561C186.666 36.6154 198.867 38.5628 210.646 42.213C211.505 42.478 211.782 41.1063 210.918 40.8493C199.144 37.3524 186.872 35.3043 174.728 33.549C174.463 33.5096 174.384 33.8968 174.645 33.9561Z" fill="#191919"/>
<path d="M211.369 39.5652C212.282 39.796 212.569 38.3647 211.655 38.1424C206.762 36.9637 201.869 35.6734 196.938 34.6724C192.094 33.6931 187.01 32.6583 182.054 32.6673C181.945 32.6679 181.937 32.8395 182.043 32.8588C191.927 34.6098 201.65 37.1025 211.37 39.5624L211.369 39.5652Z" fill="#191919"/>
<path d="M188.692 31.8264C192.354 32.5525 196.019 33.2524 199.686 33.9585C201.408 34.2899 203.135 34.59 204.845 34.9747C206.318 35.3076 208.27 35.5929 209.583 36.3687C210.352 36.8225 210.979 35.5822 210.206 35.1393C209.213 34.5713 207.847 34.3312 206.73 34.1014C204.866 33.7208 203.026 33.2945 201.15 32.9645C197.059 32.2485 192.968 31.5677 188.853 31.0231C188.333 30.9548 188.168 31.7164 188.693 31.8208L188.692 31.8264Z" fill="#191919"/>
<path d="M114.25 41.144C109.581 40.44 104.938 39.4475 100.244 38.9119C100.249 38.8835 100.252 38.8518 100.249 38.819C100.218 37.743 100.839 36.6835 101.086 35.6405C101.449 34.1147 101.484 32.5142 101.73 30.9698C101.76 30.7729 101.455 30.647 101.379 30.8502C100.836 32.3551 100.507 33.9019 100.09 35.4416C99.7782 36.5869 99.0185 37.6741 99.1475 38.8968C99.1995 39.3901 99.7295 39.4984 100.036 39.2785C104.651 40.4537 109.387 41.1612 114.044 42.1592C114.704 42.3 114.912 41.2441 114.247 41.1435L114.25 41.144Z" fill="#191919"/>
<path d="M103.94 38.0144C104.76 38.0701 105.576 38.3126 106.386 38.4601C108.248 38.8022 110.139 38.9006 112.001 39.2133C112.256 39.2568 112.335 38.8696 112.078 38.8227C109.494 38.3373 106.977 37.5679 104.407 37.0235C104.06 36.9485 103.338 37.1189 103.438 36.4042C103.503 35.9499 103.67 35.5024 103.809 35.0673C104.179 33.9092 104.352 32.6857 104.558 31.4889C104.672 30.8323 103.66 30.6274 103.534 31.2847C103.261 32.7215 103.031 34.1281 102.634 35.5305C102.471 36.099 102.154 37.2053 102.702 37.6891C103.035 37.9844 103.523 37.9825 103.935 38.0105L103.94 38.0144Z" fill="#191919"/>
</svg>
