<svg width="142" height="140" viewBox="0 0 142 140" fill="none" xmlns="http://www.w3.org/2000/svg">
<path d="M97.0342 12.6332C107.083 7.77698 117.941 11.2203 123.502 20.7308C123.906 21.4313 126.347 20.4815 126.085 20.0422C119.561 8.89308 106.714 6.77962 95.5102 12.1939C93.9624 12.9419 96.3674 12.9538 97.0342 12.6332Z" fill="#191919"/>
<path d="M101.522 3.29944C111.571 -1.55676 122.429 1.89839 127.99 11.3971C128.394 12.0976 130.835 11.1477 130.573 10.7084C124.061 -0.452534 111.214 -2.55412 100.01 2.84826C98.4624 3.59628 100.867 3.60815 101.534 3.28757L101.522 3.29944Z" fill="#191919"/>
<path d="M8.00622 60.2637L4.3194 63.5283L3.8186 65.2601L4.87465 68.597L7.43935 76.7008L14.4755 92.3051L19.5023 104.874L29.4531 126.374L34.902 131.991L44.5386 132.613L88.7447 116.525L130.091 101.342L136.034 95.2653L135.551 85.4537L128.992 69.6986L118.86 39.3409L114.261 29.7829L110.194 26.8745L97.8484 27.635L76.0953 33.4705L35.4011 47.3983L8.00622 60.2637Z" fill="#E8E0CD"/>
<path d="M3.45816 62.5909C2.34267 64.2178 2.84496 65.9889 3.68146 67.7121C4.30454 70.2942 5.41309 72.877 5.78347 73.802C9.73714 83.8416 13.7911 93.8301 17.8451 103.819C19.9785 109.088 22.1296 114.352 24.3457 119.576C25.7404 122.879 27.1981 126.258 29.5438 129.009C34.5041 134.87 41.5153 134.639 48.3316 132.443C69.1929 125.687 89.6659 117.335 110.231 109.765C115.34 107.878 120.46 106.026 125.564 104.122C128.736 102.924 132.25 101.639 134.575 99.0501C140.096 92.8831 135.538 83.9998 133.155 77.5742C128.948 66.2444 124.983 54.8189 120.894 43.4324C118.71 37.3297 116.39 24.7853 107.82 25.5482C107.591 25.254 107.16 25.12 106.847 25.2963C106.794 25.313 106.748 25.2891 106.689 25.2883C88.4669 28.5463 70.4734 33.8162 53.0434 40.0079C44.5638 43.0197 36.1731 46.3121 27.9629 49.9912C20.2775 53.4272 12.0899 56.8097 4.9983 61.4473C4.38638 61.6602 3.85972 62.0199 3.45816 62.5909ZM132.841 97.4952C131.233 99.1619 129.145 100.228 126.972 101.09C127.369 100.076 127.651 99.0027 127.89 97.9812C127.997 97.5226 127.312 97.2571 127.1 97.6909C126.517 98.9175 125.963 100.232 125.659 101.602C125 101.849 124.335 102.079 123.693 102.32C123.92 101.689 124.142 101.04 124.276 100.36C124.334 100.052 123.95 99.9423 123.776 100.19C123.278 100.946 122.895 101.762 122.531 102.572C122.494 102.642 122.476 102.706 122.439 102.775C120.615 103.449 118.79 104.123 116.978 104.774C117.05 104.635 117.117 104.479 117.19 104.34C117.638 103.426 118.063 102.5 118.465 101.562C118.635 101.18 118.107 100.923 117.885 101.263C117.344 102.129 116.826 103.007 116.332 103.897C116.084 104.342 115.819 104.793 115.601 105.267C114.641 105.61 113.688 105.969 112.734 106.329C112.784 106.12 112.823 105.934 112.879 105.743C113.124 104.739 113.357 103.758 113.38 102.728C113.373 102.46 113.034 102.432 112.902 102.628C112.331 103.523 111.999 104.497 111.667 105.47C111.518 105.922 111.323 106.409 111.221 106.885C110.922 106.98 110.633 107.11 110.333 107.205C109.656 107.458 108.961 107.716 108.284 107.969C108.31 107.864 108.317 107.766 108.342 107.661C108.571 106.604 108.811 105.525 108.958 104.455C108.985 104.234 108.637 104.055 108.545 104.316C108.177 105.301 107.892 106.298 107.606 107.296C107.518 107.632 107.395 107.98 107.295 108.34C105.959 108.84 104.635 109.317 103.299 109.817C103.522 109.418 103.711 108.972 103.9 108.527C104.283 107.653 104.602 106.76 104.829 105.82C104.867 105.634 104.601 105.468 104.458 105.629C103.836 106.424 103.312 107.284 102.859 108.181C102.496 108.874 102.163 109.539 102.028 110.277C100.915 110.687 99.7851 111.103 98.6727 111.513C98.9201 111.068 99.1155 110.581 99.3331 110.165C99.8177 109.182 100.309 108.158 100.526 107.066C100.57 106.898 100.338 106.778 100.225 106.91C99.4506 107.715 98.8844 108.686 98.3357 109.651C97.908 110.384 97.3679 111.192 97.2307 112.046C96.4831 112.321 95.718 112.602 94.9705 112.877C95.0254 112.744 95.0803 112.611 95.1407 112.495C95.5296 111.639 95.9482 110.754 96.0985 109.818C96.1443 109.533 95.7853 109.319 95.5883 109.555C94.9564 110.257 94.5554 111.136 94.1202 111.969C93.8784 112.432 93.6069 112.923 93.4226 113.444C92.3454 113.843 91.2506 114.248 90.1735 114.646C90.8436 113.759 91.2227 112.442 91.5717 111.521C91.6573 111.301 91.3578 111.029 91.196 111.254C90.7527 111.877 90.3093 112.5 89.9178 113.164C89.5803 113.753 89.1843 114.342 89.1669 115.023C87.9487 115.466 86.7359 115.927 85.5 116.376C86.5995 115.005 87.2612 113.233 87.6815 111.556C87.7187 111.428 87.5332 111.332 87.4495 111.436C86.2962 112.882 85.214 114.614 84.8437 116.449C84.825 116.513 84.8417 116.565 84.8704 116.595C83.758 117.005 82.6456 117.415 81.5508 117.819C81.6299 117.64 81.7266 117.455 81.8112 117.293C82.1991 116.495 82.535 115.655 82.8069 114.797C82.8562 114.646 82.6243 114.526 82.5286 114.653C81.9728 115.35 81.4513 116.094 80.9994 116.874C80.7344 117.325 80.4574 117.798 80.262 118.285C79.1848 118.684 78.1077 119.082 77.0482 119.476C77.2818 118.803 77.4923 118.119 77.6795 117.423C77.7727 117.104 77.267 116.917 77.1098 117.217C76.7526 117.929 76.3723 118.628 76.0439 119.369C75.9648 119.548 75.8858 119.728 75.7946 119.93C74.8586 120.284 73.917 120.621 72.981 120.975C73.115 120.663 73.2379 120.315 73.3542 120.008C73.6836 119.209 73.9257 118.379 74.2319 117.568C74.2934 117.395 74.0372 117.321 73.9471 117.466C73.4952 118.245 72.9969 119.001 72.5682 119.793C72.2846 120.308 71.948 120.839 71.8333 121.396C70.7738 121.79 69.7143 122.183 68.6548 122.576C68.679 122.53 68.7032 122.483 68.7273 122.437C69.1747 121.581 69.5932 120.696 70.0174 119.829C70.1504 119.574 69.7848 119.4 69.6231 119.625C69.0653 120.439 68.4965 121.217 67.9619 122.042C67.7574 122.377 67.512 122.706 67.313 123.058C66.4773 123.362 65.6295 123.688 64.7938 123.991C65.1373 123.052 65.334 122.141 65.5318 121.171C65.5644 120.968 65.3083 120.894 65.206 121.062C64.6176 121.962 64.071 122.811 63.6328 123.818C63.5174 124.067 63.4021 124.316 63.2867 124.564C62.3507 124.918 61.385 125.301 60.4016 125.69C60.733 124.774 61.0179 123.835 61.198 122.871C61.2186 122.69 61.0033 122.623 60.9131 122.768C60.3191 123.651 59.8587 124.588 59.4326 125.572C59.3415 125.774 59.2382 126 59.1173 126.231C57.9157 126.727 56.7196 127.241 55.4827 127.748C55.5925 127.482 55.7023 127.216 55.8176 126.967C56.3218 125.861 56.7156 124.714 57.063 123.542C57.1068 123.374 56.8794 123.33 56.8013 123.452C56.0819 124.49 55.4088 125.552 54.834 126.68C54.568 127.189 54.2305 127.778 53.9867 128.357C52.9328 128.768 51.8965 129.173 50.8314 129.548C50.9971 129.091 51.1219 128.627 51.269 128.233C51.6422 127.265 52.0153 126.298 52.2085 125.252C52.2402 125.107 52.0481 125.052 51.9877 125.168C51.3992 126.068 50.9908 127.047 50.5702 128.048C50.3209 128.61 49.8942 129.285 49.7543 129.947C48.6605 130.293 47.5667 130.64 46.4804 130.887C46.5781 130.644 46.6637 130.423 46.7781 130.233C47.2989 129.18 47.7436 128.132 48.0381 126.978C48.0698 126.832 47.8787 126.719 47.7598 126.834C47.0014 127.75 46.412 128.708 45.8735 129.766C45.6559 130.183 45.3082 130.679 45.0655 131.199C44.4843 131.326 43.892 131.416 43.3173 131.502C43.4039 131.224 43.4729 130.951 43.5585 130.731C43.9699 129.578 44.5763 128.305 44.5738 127.07C44.5814 126.971 44.4301 126.923 44.3762 126.998C43.5417 127.918 43.1153 129.269 42.6575 130.398C42.5049 130.775 42.2696 131.196 42.0808 131.642C41.7763 131.661 41.4476 131.727 41.1431 131.746C40.7625 131.77 40.4061 131.748 40.0497 131.725C40.2582 131.158 40.4667 130.59 40.6343 130.016C40.8578 129.25 41.2179 128.364 41.0795 127.559C41.0527 127.413 40.9015 127.364 40.7946 127.456C40.1657 127.983 39.8696 128.887 39.5357 129.611C39.2556 130.259 39.0044 130.937 38.7707 131.609C38.2862 131.55 37.8259 131.445 37.3833 131.334C38.0397 130.219 38.9033 128.961 39.1291 127.713C39.1478 127.649 39.0615 127.56 39.0021 127.618C37.9755 128.483 37.2955 129.953 36.6094 131.096C36.4349 131.036 36.2725 130.952 36.0981 130.891C35.973 130.68 35.8655 130.463 35.8175 130.189C35.7695 129.915 35.7568 129.629 35.7849 129.35C40.0944 122.177 43.2232 113.91 46.7542 106.424C50.3828 98.6937 54.264 90.9032 57.2831 82.903C58.5709 83.5377 59.841 84.178 61.1288 84.8126C60.6063 85.6149 60.2165 86.5296 59.7868 87.3797C59.2428 88.4204 58.4815 89.5106 58.2863 90.6725C58.2788 90.7713 58.3882 90.8718 58.483 90.8032C59.4249 90.0998 60.0294 88.9435 60.7005 87.9977C61.2759 87.1786 61.9682 86.3612 62.4574 85.4537C63.4492 85.9504 64.4354 86.4296 65.4448 86.9208C64.7685 87.4822 64.4564 88.6425 64.1104 89.389C63.5039 90.6617 62.9791 91.9473 62.4423 93.2559C62.4236 93.3197 62.4867 93.3962 62.5461 93.3388C63.3483 92.255 64.1504 91.1713 64.895 90.0285C65.3757 89.278 66.2807 88.3354 66.3902 87.3936C67.075 87.7173 67.742 88.0466 68.4323 88.3879C67.9053 89.1144 67.6007 90.1758 67.2491 90.9047C66.6557 92.0961 66.1616 93.2947 65.7251 94.5523C65.6878 94.6799 65.8734 94.7756 65.957 94.6719C66.7415 93.5937 67.4443 92.5028 68.1073 91.3472C68.5053 90.6423 69.2218 89.7786 69.529 88.9094C70.4688 89.3646 71.4208 89.7968 72.3551 90.2345C72.1979 90.5352 72.0407 90.8358 71.8845 91.0782C71.2951 92.0368 70.7576 93.0368 70.3537 94.0911C70.2439 94.3574 70.5666 94.6413 70.7989 94.3941C71.5256 93.6237 72.166 92.7648 72.7479 91.9051C72.958 91.5877 73.2805 91.1962 73.5621 90.7982C73.9917 90.9904 74.4213 91.1825 74.8277 91.3627C74.7421 91.5828 74.6333 91.791 74.5476 92.0111C74.2379 92.6881 73.8928 93.3763 73.7167 94.1076C73.6533 94.3979 74.0642 94.6538 74.2501 94.3827C74.7232 93.7311 75.0284 92.9783 75.3624 92.255C75.4415 92.0756 75.5205 91.8962 75.6052 91.7343C76.3539 92.0763 77.1027 92.4184 77.8635 92.7373C78.2235 92.8936 78.6989 92.8011 78.8691 92.4191C81.9848 85.2762 85.1701 78.1691 88.373 71.0565C88.7023 71.2997 89.0492 71.5373 89.4082 71.7518C89.0772 72.3004 88.8844 72.9791 88.6825 73.5062C88.2171 74.7343 87.7231 75.9329 87.1473 77.1187C87.0924 77.2519 87.278 77.3476 87.3329 77.2144C87.9243 76.1394 88.5444 75.0939 89.2342 74.0843C89.5642 73.5939 90.0837 72.9662 90.3693 72.3355C91.169 72.7772 91.9984 73.1902 92.852 73.557C92.5433 74.1758 92.2521 74.7891 91.9786 75.3967C91.56 76.2819 91.1117 77.1958 90.8499 78.1472C90.7941 78.3386 91.0668 78.4646 91.1979 78.3266C91.8307 77.5666 92.3254 76.6766 92.8136 75.8273C93.1632 75.2148 93.5128 74.6024 93.8625 73.9899C94.8961 74.4348 95.9065 74.8678 96.9169 75.3007C96.6267 75.8558 96.3996 76.4873 96.1931 76.9387C95.702 77.9627 95.0456 79.0775 94.8978 80.2051C94.8903 80.304 94.9886 80.3694 95.0834 80.3008C95.927 79.532 96.4906 78.3693 97.0745 77.3932C97.3395 76.9426 97.7466 76.3892 98.0544 75.8285C98.9479 76.2599 99.8292 76.7144 100.705 77.1513C100.394 77.578 100.151 78.0987 99.9036 78.5437C99.3968 79.4568 98.9076 80.3644 98.5168 81.3373C98.4256 81.5398 98.6964 81.7822 98.8637 81.5749C99.5263 80.7862 100.061 79.9608 100.625 79.1067C100.938 78.6218 101.32 78.1146 101.575 77.5707C102.521 78.0435 103.461 78.4988 104.388 78.9772C104.059 79.4095 103.822 79.9478 103.581 80.3521C102.997 81.3282 102.478 82.3226 101.986 83.3466C101.883 83.5723 102.184 83.786 102.339 83.6017C103.014 82.7899 103.647 81.9717 104.241 81.0889C104.542 80.6271 105.043 80.0633 105.327 79.4907C106.139 79.9093 106.939 80.3511 107.756 80.7872C107.515 81.1915 107.298 81.6078 107.081 81.9659C106.377 83.115 105.796 84.2833 105.231 85.5043C105.164 85.6606 105.372 85.8264 105.503 85.6884C106.314 84.7562 107.102 83.812 107.804 82.7792C108.092 82.3406 108.504 81.8629 108.829 81.3549C109.298 81.6117 109.779 81.8453 110.231 82.1076C110.376 82.1969 110.515 82.2687 110.678 82.3524C110.598 82.5318 110.514 82.6937 110.447 82.85C110.004 83.7815 109.486 84.6595 108.951 85.5431C108.902 85.6356 109.029 85.7305 109.101 85.6499C109.735 84.8317 110.351 84.0191 111.066 83.2718C111.197 83.1339 111.357 82.9672 111.5 82.8061C112.138 83.1641 112.781 83.5396 113.418 83.8977C112.956 84.5843 112.638 85.4184 112.298 86.1242C111.838 87.0612 111.342 88.0094 111.202 89.0381C111.195 89.0788 111.247 89.1203 111.295 89.086C112.079 88.3746 112.58 87.444 113.11 86.5428C113.501 85.8785 114.011 85.1576 114.322 84.4223C115.486 85.0961 116.65 85.7698 117.802 86.4667C117.342 87.0369 117.076 87.9125 116.802 88.5202C116.317 89.5617 115.872 90.6096 115.433 91.675C115.347 91.8951 115.626 92.0386 115.758 91.8424C116.382 90.8727 116.989 89.9086 117.568 88.9149C117.893 88.3487 118.437 87.6748 118.665 86.985C119.458 87.4674 120.269 87.9442 121.05 88.4498C120.663 88.8812 120.482 89.5367 120.251 90.0343C119.899 90.8214 119.558 91.5854 119.31 92.3972C119.15 92.8725 119.878 93.0862 120.101 92.6874C120.565 91.8844 120.924 91.0566 121.295 90.2057C121.49 89.7775 121.725 89.3556 121.815 88.9027C123.921 90.2239 126.004 91.5914 128.044 93.0107C127.623 93.3951 127.257 93.8967 126.911 94.3345C126.397 94.9797 125.912 95.6544 125.455 96.3585C125.299 96.601 125.658 96.8154 125.854 96.6376C126.526 96.0004 127.151 95.3393 127.76 94.6255C128.082 94.234 128.387 93.848 128.663 93.4325C130.311 94.5903 131.958 95.748 133.581 96.9521C133.414 97.1594 133.27 97.3787 133.079 97.5741L132.841 97.4952ZM107.442 27.482C113.711 26.1929 115.733 34.2382 117.304 38.5276C118.802 42.6471 120.299 46.7666 121.815 50.8805C124.638 58.5756 127.497 66.2596 130.28 73.9484C132.33 79.6301 137.285 88.9088 134.395 95.1697C127.217 89.7213 119.711 84.6468 111.812 80.2949C107.796 78.0918 103.689 76.0913 99.4845 74.2758C96.0468 72.7968 92.3191 70.8305 88.5305 70.389C94.9429 56.1231 101.396 41.8635 107.454 27.4589L107.442 27.482ZM28.447 51.4593C36.9949 47.8662 45.6271 44.4781 54.388 41.4353C71.2096 35.5905 88.3323 31.3102 105.693 27.4758C100.476 38.8349 95.6429 50.3623 90.6006 61.7821C88.0581 67.547 85.6027 73.3421 83.0834 79.119C81.7874 82.0768 80.6763 85.864 78.8535 88.506C77.8579 89.9598 78.1934 90.5292 76.1944 90.1003C76.1127 90.0875 76.0199 90.0397 75.9327 90.0094C75.8696 89.9328 75.7824 89.9025 75.671 89.9185C75.066 89.724 74.4741 89.4481 73.8599 89.102C73.809 89.0024 73.7106 88.937 73.576 88.941C72.8812 88.524 72.1864 88.1069 71.5657 87.8016C53.1381 78.637 34.8575 67.3607 14.5614 62.8406C14.5422 62.5958 14.288 62.406 14.0456 62.5599C13.963 62.6054 13.9035 62.6628 13.8385 62.7027C12.0669 62.3176 10.2766 61.9964 8.46775 61.7389C8.13094 61.5946 7.78858 61.4327 7.4155 61.3578C7.2698 61.3267 7.10646 61.3012 6.94311 61.2757C14.2113 58.2999 21.2065 54.5228 28.4525 51.4769L28.447 51.4593ZM12.6514 64.4101C12.3195 65.017 11.9764 65.5887 11.6036 66.1892C10.6776 67.6789 9.69312 69.1678 8.92949 70.7412C8.8625 70.8975 9.07026 71.0634 9.17809 70.9135C10.205 69.6813 11.0761 68.3248 11.9759 66.9978C12.516 66.19 13.0107 65.3 13.6492 64.5575C13.8462 64.3215 14.019 64.1317 14.1631 63.9124C15.1115 64.2105 16.0654 64.5263 17.0193 64.842C15.8293 66.724 14.5808 68.6053 13.53 70.5591C13.5179 70.5822 13.5467 70.6117 13.5764 70.583C15.1728 68.8812 16.6199 67.0143 18.1068 65.2119C19.2816 65.6122 20.4442 66.0355 21.5892 66.4645C20.3822 68.6607 18.8904 70.7541 17.6027 72.8794C17.5487 72.9544 17.6758 73.0493 17.7297 72.9743C19.4767 71.0125 21.1218 68.8513 22.9783 66.9899C24.1929 67.4547 25.3898 67.9252 26.5924 68.4131C25.8582 69.2824 25.2834 70.41 24.7015 71.2697C23.6092 72.9085 22.5169 74.5473 21.5462 76.2635C21.4736 76.4023 21.6703 76.533 21.7716 76.4238C23.1125 74.9572 24.3374 73.4308 25.5744 71.8813C26.2974 70.9769 27.2907 70.0064 27.8644 68.9369C28.6949 69.2918 29.5374 69.6234 30.3502 69.9838C28.2989 72.6403 26.512 75.5798 24.7391 78.3797C24.6907 78.4722 24.8122 78.5496 24.8893 78.4865C27.231 75.9505 29.7193 73.3874 31.7902 70.6089C33.027 71.1439 34.2693 71.6965 35.494 72.2546C33.4761 75.0163 31.7532 77.9741 29.9607 80.8961C29.9244 80.9655 30.0283 81.0484 30.0822 80.9734C32.385 78.3146 34.7685 75.7267 36.8115 72.8606C37.7458 73.2983 38.6978 73.7305 39.6321 74.1682C37.9151 76.7767 36.3019 79.4682 34.8168 82.1964C34.7685 82.2889 34.8956 82.3838 34.9671 82.3032C37.0784 79.898 39.098 77.3867 40.9839 74.8212C41.9933 75.3124 43.0204 75.7979 44.0298 76.2891C43.3133 77.1528 42.7627 78.2342 42.2327 79.1353C41.276 80.7119 40.4232 82.3715 39.4721 83.9656C39.394 84.0868 39.5962 84.2351 39.6975 84.1259C40.8508 82.68 42.1025 81.2996 43.2327 79.8418C43.926 78.9661 44.8255 78.0059 45.3695 76.9652C46.2685 77.4141 47.1852 77.8575 48.0842 78.3064C47.6686 79.0169 47.3624 79.8279 46.9831 80.4691C45.9659 82.1614 44.9951 83.8775 44.1227 85.6591C44.0502 85.7978 44.2468 85.9286 44.3481 85.8193C45.4717 84.4022 46.497 82.9197 47.5168 81.4196C48.0085 80.7043 48.8244 79.8478 49.3952 78.953C50.3174 79.4139 51.2572 79.8691 52.185 80.3475C51.345 81.2503 50.8525 82.6993 50.315 83.6993C49.5181 85.1675 48.6274 86.646 48.1264 88.2521C48.077 88.4028 48.2802 88.4929 48.3815 88.3837C49.5309 87.1707 50.3994 85.622 51.2892 84.2017C51.8907 83.22 52.9222 82.0636 53.2696 80.8921C54.1454 81.3291 55.0212 81.766 55.8794 82.2085C51.3994 90.1307 47.7513 98.658 43.9616 106.921C40.5783 114.323 36.3325 121.881 33.8084 129.667C29.7391 126.805 27.5677 121.355 25.5267 116.5C21.8771 107.85 18.1977 99.2293 14.4951 90.5964C12.7059 86.4148 10.8814 82.2442 9.03922 78.0793C8.04171 75.8473 7.06184 73.6098 6.06433 71.3778C5.9687 70.4623 5.64927 69.637 5.22695 68.6705C4.58514 67.1945 3.569 65.0263 4.9089 63.6179C6.85651 61.554 10.1417 65.1271 12.5819 64.3742L12.6514 64.4101Z" fill="#191919"/>
<path d="M124.358 90.7378C123.198 90.8734 121.964 92.9238 122.577 94.0035C122.662 94.1502 122.862 94.1063 122.94 93.9851C123.24 93.5234 123.239 92.9061 123.528 92.4093C123.817 91.9125 124.297 91.5871 124.568 91.0958C124.658 90.9515 124.528 90.7226 124.34 90.7434L124.358 90.7378Z" fill="#191919"/>
<path d="M65.3091 80.1687C54.3478 74.2963 42.1384 69.9382 30.4961 65.5938C41.6815 71.0092 53.2936 76.7915 65.1248 80.6902C65.4273 80.7875 65.5874 80.3122 65.3091 80.1687Z" fill="#191919"/>
<path d="M94.1756 48.2955C94.2864 47.9709 93.7918 47.8187 93.6467 48.0962C87.91 58.7321 83.6331 70.5465 79.2547 81.7948C79.2602 81.8123 79.2714 81.8474 79.3011 81.8187C84.574 70.9436 90.3029 59.7311 94.1933 48.2899L94.1756 48.2955Z" fill="#191919"/>
</svg>
